<svg xmlns="http://www.w3.org/2000/svg" viewBox="0 0 1000 800"><defs><style>.cls-1{isolation:isolate;}.cls-2{fill:#f1f2f2;}.cls-3{fill:#efbfa5;}.cls-4{fill:#7fc5a3;}.cls-5{fill:#3b455a;}.cls-6{fill:#42495b;}.cls-7{fill:#486362;}.cls-8{fill:#474ebb;}.cls-9{fill:#af9059;}.cls-10{fill:#ebb044;}.cls-11{fill:#ccd2d9;}.cls-12{fill:#fff;}.cls-13{fill:#b97262;}.cls-14{fill:#8ec3cb;}.cls-15{fill:#96b344;}.cls-16{fill:#a2bd44;}.cls-17{opacity:0.07;}.cls-18{fill:#bed386;}.cls-19{opacity:0.08;}.cls-20{fill:#f0e6dc;}.cls-21{fill:#a2c59d;}.cls-22{fill:#9ec9d9;}.cls-23{fill:#eecd63;}.cls-24{fill:#dcdfe2;}.cls-25{fill:#eed5d5;}.cls-26,.cls-32{opacity:0.1;}.cls-26{mix-blend-mode:multiply;}.cls-27{fill:#edeeef;}.cls-28{fill:#a0a2a5;}.cls-29{fill:#d34e4e;}.cls-30{opacity:0.05;}.cls-31{opacity:0.57;}.cls-33{opacity:0.04;}.cls-34{fill:#6daf8d;}.cls-35{fill:#dba189;}.cls-36{fill:#eaeaea;}.cls-37{fill:#c7c8c9;}.cls-38{opacity:0.09;}.cls-39{opacity:0.15;}.cls-40{fill:#5e6474;}.cls-41{fill:#ededed;}</style></defs><title>Artboard 245</title><g class="cls-1"><g id="shadow"><path class="cls-2" d="M464.27,654c-27.2.09-54.4.81-81.56,4.13-10.24,1.25-20.26,4-30.52,5.11-20.5,2.22-40.63,6.35-61.2,8.26-16.56,1.54-33.2,2.44-49.71,4.39a159.44,159.44,0,0,1-48-1.61c-11.38-2.24-22.8-3.49-34-7.08-12.51-4-26.1-6.89-39.14-6.79-18.59.15-36.69.16-54.48,7.26-6.24,2.49-13.89,6.58-18.63,11.81-10.86,12-12.32,41.8-1.49,54.21,18.26,20.88,57.61,20.87,83.2,21.25,28,.42,55.92-3.91,84-5.25,26.09-1.25,56-4.27,82.17-4.2,53.38.13,101.84,11.49,155.13,7.57,50.06-3.68,100.26-2.42,150.43-2.42,51.45,0,106.28-9.51,157.36-2,22.26,3.27,47,1.91,69.39,4.2,20,2.05,44-1.25,63.91-3.15,16.75-1.59,28.61-5.67,43.83-13.66,12-6.33,27.83-13,31.52-28.06,10.36-42.34-146-41.32-170-41.22-26.85.11-53.92,1.08-80.75,0-11.29-.47-22.41-2.9-33.42-5.55s-22-2-33.15-3.08c-46.4-4.64-92.91-4-139.46-4C494.59,654.13,479.43,654,464.27,654Z"/></g><g id="object"><polygon class="cls-3" points="762.72 212.75 764.89 198.75 770.88 199.51 771.5 209.46 774.48 208.49 771.17 220.23 764.86 220.28 762.72 212.75"/><path class="cls-4" d="M832.8,327.91a12.61,12.61,0,0,0,.34-3.62c-.23-5.45-3-10.57-6.76-14.59-5.88-6.36-13.8-10.92-20.36-16.58l-22.5-19.41-9.91-57.06-12.52.76-1.18,71.14c10.37,8.11,20.54,16,30.34,24.68,8.78,7.8,16.63,18,28.3,21.37C825.15,336.51,831.29,333.92,832.8,327.91Z"/><polygon class="cls-5" points="868.7 469.9 873.56 503.33 863.81 691.86 847.46 688.43 820.33 474.1 868.7 469.9"/><polygon class="cls-5" points="788.37 463.62 785.21 588.61 816.96 696.5 835.46 689.62 819.88 593.4 834.18 462.55 788.37 463.62"/><path class="cls-5" d="M835.52,679.51l-22.15,10.15,7.44,15.49-11.62,7.32s-1.09,6.45,2.81,9.17,29.18-18.51,29.18-18.51Z"/><path class="cls-5" d="M868.7,683.18l-24,4.06,3.16,16.89-13.12,4.05s-2.73,5.94.33,9.59,33-10.3,33-10.3Z"/><path class="cls-5" d="M822,259.79a65.7,65.7,0,0,0,7.28,15.81,111.74,111.74,0,0,1,4.4-30.22,2.94,2.94,0,0,0,0-2.27,2.75,2.75,0,0,0-1.84-1C819.24,239,819,250.1,822,259.79Z"/><path class="cls-3" d="M828.93,275.8c1.32,4.2,3.5,9,7.86,11.52,5.13,3,10.62,1.48,14.45-.84,12.65-7.65,34.58-49.86,1.6-60.22C822.9,216.85,823.46,258.36,828.93,275.8Z"/><path class="cls-5" d="M855,276c2,2.91,6.45,2.25,9.63.75,13.06-6.18,21-21.61,18.52-35.84-2.11-11.9-16.83-21.15-20.2-6.55-1.2,5.18,1.8,12.47.93,18.22C862.63,260.8,858.59,268.59,855,276Z"/><path class="cls-5" d="M822.78,211.06c-15,8.31-21.73,26.59-35.46,36.88a50.9,50.9,0,0,0,39.61,1c12.36-4.94,41.68-7.94,37.84-25.07C860.87,206.42,835.94,203.78,822.78,211.06Z"/><path class="cls-4" d="M881,318.95c8.6,14.93,8.56,31.83,7.37,48-2.69,36.6.8,79-11.82,114-23.82,0-69.49-10.94-93.21-13.38-4.62-31.82-1.93-50.42.68-86.46,1.29-17.77,4-41.6,10.33-58.53,5.15-13.86,18.87-31.75,39.59-31.18C853.39,292,873.22,305.37,881,318.95Z"/><path class="cls-3" d="M842.23,298.81c-2.17.92-4.83.53-7.4-2-2.21-2.14-1.53-2.84-1.06-6,.69-4.66,1.93-9.29,2.89-13.9l12.83,2.67s-2.58,12.49-2.77,13.34A8.22,8.22,0,0,1,842.23,298.81Z"/><polygon class="cls-3" points="905.77 456.94 891.57 464.75 888.08 458.79 896.67 451.29 893.72 449.26 906.66 444.07 911.11 449.75 905.77 456.94"/><path class="cls-4" d="M873,313.75a14.43,14.43,0,0,0-1.48,3.88c-1.41,6.08.13,12.58,3,18.15,4.54,8.81,11.88,16.24,17.39,24.48l18.89,28.26-10.42,53.69,13.73,11.6,24.42-78.28c-9-12.1-14.95-20.07-23.09-32.64-7.3-11.27-12.85-24.91-24.69-32.19C884,306.59,876.47,307.58,873,313.75Z"/><g id="_Group_" data-name="&lt;Group&gt;"><g id="_Group_2" data-name="&lt;Group&gt;"><polygon class="cls-5" points="418.97 708.24 417.4 716.32 400.47 721.75 394.37 712.34 403.62 705.59 420.54 700.17 418.97 708.24"/></g><g id="_Group_3" data-name="&lt;Group&gt;"><polygon class="cls-5" points="455.33 506.99 420.28 705.78 404.43 706.35 395.01 568.13 390.56 499.47 455.33 506.99"/></g></g><g id="_Group_4" data-name="&lt;Group&gt;"><g id="_Group_5" data-name="&lt;Group&gt;"><polygon class="cls-5" points="503.27 504.87 480.75 699.73 466.21 701.01 450.83 551.7 438.63 507.68 503.27 504.87"/></g><g id="_Group_6" data-name="&lt;Group&gt;"><polygon class="cls-5" points="466.14 699.16 466.86 707.54 483.29 714.53 490.44 705.46 481.86 697.77 466.14 699.16"/></g></g><polygon class="cls-6" points="394.37 510.57 387.2 487.61 394.37 461.57 503.27 465.36 503.27 504.87 394.37 510.57"/><polygon class="cls-3" points="295.5 307.06 293.37 316.79 276.87 315.14 273.17 305.41 278.62 298.31 284.63 303.43 285.03 301.6 283.57 299.38 285.83 297.95 295.5 307.06"/><polygon class="cls-7" points="416.84 281.87 354.74 311.44 293.61 302.63 289.69 317.35 360.35 340.07 451.71 309.63 416.84 281.87"/><path class="cls-3" d="M452.39,224.14c-11,6.87-26.57,2.94-36.63,11.23-6.54,5.39-9,15-7.41,23.66a21.15,21.15,0,0,0,5,10.91,19.72,19.72,0,0,0,6.4,4.31,27.67,27.67,0,0,0,9.89,2.3,52.28,52.28,0,0,1-1.54,9.19l19-2.16-1.2-11.09a27.12,27.12,0,0,0,4.35-3.21c8.11-7.4,11.64-19.83,8.73-30.77C457.62,233.39,455,228.72,452.39,224.14Z"/><path class="cls-5" d="M423.49,233.27q.68-.25,1.37-.47a48.93,48.93,0,0,1,20.66-2c4.74.55,10.06,2.35,11.7,7.37a22,22,0,0,1,.69,7.09l-.11,9a3.19,3.19,0,0,0,.25,1.57c.78,1.43,3.1.81,4.08-.5,3.57-4.76,8-12.3,9.16-18.1.94-4.73-.76-10.27,1.21-14.73.92-2.06,2.76-3.53,4.19-5.28a15.12,15.12,0,0,0,2.64-13.81,11.61,11.61,0,0,0-5.76-7.09c-4.67-2.24-10.3-.31-15.36-1.42-2.57-.56-4.93-1.9-7.52-2.34-5.46-.93-10.77,2.27-14.94,5.93s-7.93,8-13,10.21c-4.08,1.77-8.66,2-12.86,3.45a25,25,0,0,0-15,15.37c-2.72,7.85-2.08,17.72,3.75,23.88a84.9,84.9,0,0,1,7.73,10c.84,1.2,5.68,5.66,5.32,1-.28-3.63-1.73-7.09-2-10.72C409,242.81,415.69,236.15,423.49,233.27Z"/><path class="cls-8" d="M470.2,286.14l-52.67-4.39S400.17,304.37,381,369.47s-4.95,122.71-4.95,122.71,59.42-10.7,143.32-1.07L495,329.59Z"/><g id="_Group_7" data-name="&lt;Group&gt;"><g id="_Group_8" data-name="&lt;Group&gt;"><polygon class="cls-9" points="251.57 220.33 257.68 213.92 257.46 206.09 259.07 205.19 260.24 207.15 261.89 200.58 266.26 197.32 273.09 199.58 277.21 205.84 274.23 212.5 267.27 217.59 259.28 226.72 251.57 220.33"/></g><g id="_Group_9" data-name="&lt;Group&gt;"><polygon class="cls-10" points="249.44 214.84 191 280.52 156.31 282.08 162.93 337.12 208.81 316.65 221.34 307.96 267.36 225.05 249.44 214.84"/></g></g><g id="_Group_10" data-name="&lt;Group&gt;"><polygon class="cls-5" points="155.9 700.72 155.9 708.17 174.99 717.72 184.54 708.17 174.99 698.62 173.76 698.62 173.46 700.72 155.9 700.72"/></g><g id="_Group_11" data-name="&lt;Group&gt;"><polygon class="cls-5" points="108.86 698.62 107.55 698.62 98 708.17 107.55 717.72 126.64 708.17 126.64 700.72 109.09 700.72 108.86 698.62"/></g><g id="_Group_12" data-name="&lt;Group&gt;"><path class="cls-10" d="M109.14,418.1c2.51-12.72,4.48-24.46,4.66-30.83.54-19.15,3-82.39,3-82.39l11.69-24.19,2.16,0-.47-.06c.51.06-.24-4.67-.43-5.09-10.16-.35-23.26,5.39-29.67,13.37-4.74,5.91-7.56,13.13-10.31,20.23-7.74,20-11.24,38.5-15.1,59.51-2.46,13.4-4.73,26.74-6.52,40a417.19,417.19,0,0,0-3.78,44c0,1.61-.36,6.13-.54,11.52-.38,11.3-.13,26.41,4.54,27a4.55,4.55,0,0,0,2.49-.67c6-3,10.76-6.85,16.06-10.24l.29-58.93Z"/></g><g id="_Group_13" data-name="&lt;Group&gt;"><path class="cls-10" d="M216.63,478.66c-1.2-12.54-2.44-25.08-4-37.58-3-24.94-7.14-49.82-14.11-74-2.66-9.22-5.73-18.32-8.8-27.41l-11.22-33.21c-4.65-13.76-12.49-23.45-26.22-28.27a50.92,50.92,0,0,0-7.69-2,8.43,8.43,0,0,0-.16.88,7.22,7.22,0,0,1-1.35,3.75l9,.09s25.43,90.37,26.36,105.94c.36,5.92,1.54,18.84,2.85,32.46l13.81,2.07.59,52.08,2.31.65c4.38,1.18,7.95,4.43,11.58,7C215,484.86,217.36,486.35,216.63,478.66Z"/></g><g id="_Group_14" data-name="&lt;Group&gt;"><path class="cls-10" d="M181.34,419.32c2.08,21.55,4.49,44.83,4.49,44.83s-11.16.27-27.31,1.49c1.19,0,2.39-.06,3.58-.07,11.23-.1,22.88,4.75,33.64,7.9l-.59-52.08Z"/></g><g id="_Group_15" data-name="&lt;Group&gt;"><path class="cls-10" d="M106,472.19c-7.7.41-8.66-1-8.66-1s6.95-28.37,11.82-53.05l-22,3.29-.29,58.93A57.22,57.22,0,0,1,92.75,477,74.22,74.22,0,0,1,106,472.19Z"/></g><path class="cls-11" d="M195.74,473.47c-10.75-3.15-22.4-8-33.64-7.9-1.19,0-2.39,0-3.58.07l-3.05.24c-7.53.61-16,1.41-24.81,2.49l-1.3.16c-11.29,2.46-18.62,3.42-23.39,3.67A74.21,74.21,0,0,0,92.75,477a57.19,57.19,0,0,0-5.89,3.33l-.06,12.27L108.33,701H126v2.12h.1l19.41-139.8.08-.79,10.63,140.58h.1V701H174l22.5-156.55Z"/><path class="cls-12" d="M181.34,419.32c-1.31-13.61-2.5-26.54-2.85-32.46-.93-15.57-26.36-105.94-26.36-105.94l-9-.09a3.28,3.28,0,0,1-.31.33,2.79,2.79,0,0,1-1,.56,5.27,5.27,0,0,1-2.31.06l-8.94-1.08-2.16,0-11.69,24.19s-2.41,63.24-3,82.39c-.18,6.37-2.14,18.11-4.66,30.83-4.88,24.68-11.82,53.05-11.82,53.05s1,1.45,8.66,1c4.76-.25,12.09-1.21,23.39-3.67l1.3-.16c8.83-1.07,17.29-1.88,24.81-2.49l3.05-.24c16.15-1.22,27.31-1.49,27.31-1.49S183.42,440.87,181.34,419.32Z"/><g id="_Group_16" data-name="&lt;Group&gt;"><g id="_Group_17" data-name="&lt;Group&gt;"><polygon class="cls-13" points="198.97 376.4 207.74 377.13 213.5 371.99 215.22 372.68 214.49 374.84 220.5 371.97 225.77 373.33 228.48 380.12 226.43 387.32 219.49 389.21 211.17 386.98 199.13 386.5 198.97 376.4"/></g><g id="_Group_18" data-name="&lt;Group&gt;"><polygon class="cls-10" points="204.1 372.86 156.42 367.01 112.67 302.51 103.36 343.91 125.24 389.33 141.44 401.52 209.05 390.44 204.1 372.86"/></g></g><path class="cls-5" d="M159.45,223.09a32.91,32.91,0,0,1,3.16,14.84c0,1.36,0,2.93,1,3.78s0,2.74.94,1.64,4.12-4.92,4.32-6.36a54.5,54.5,0,0,0,.5-10.19c-.13-3-.57-6.07-2.35-8.41a16.42,16.42,0,0,0-3.94-3.39,20.86,20.86,0,0,0-6.65-3.47c-4.2-1-6.88.39-3.29,3.59A26.27,26.27,0,0,1,159.45,223.09Z"/><path class="cls-13" d="M130.18,279.55l17.41,2.58a109.3,109.3,0,0,0,2.34-15.47c5.12-.62,11.18-2,13.19-7.3A18.05,18.05,0,0,0,164,254l1.3-22.48a22.1,22.1,0,0,0-.46-7.72c-1.32-4.3-5.08-7-8.82-8.81-9.54-4.55-20.9-5-30.18.29a16.55,16.55,0,0,0-6.34,5.85c-2.33,4-2.32,9.11-2.23,13.87l.25,13.21c.09,5.06.55,10.91,4.26,13.77,2,1.52,4.6,1.92,6.27,3.84C131,269.26,129.26,274.92,130.18,279.55Z"/><path class="cls-5" d="M165.92,251.13c0-1.39-.4-5.5-2.59-3a4.24,4.24,0,0,0-.83,2.47,9.61,9.61,0,0,1-.4,2.63c-.73,1.89-2.87,2.66-4.74,2.53a4.43,4.43,0,0,1-2.13-.63,6.79,6.79,0,0,1-1.56-1.62l-3.38-4.38c-1.94-2.51-6.08-1.69-8.87-1.46a17.61,17.61,0,0,0-9.19,3.08c-.27.2-.54.42-.81.63a9.58,9.58,0,0,1-2.07,1.36c-2.53,1.09-5.53-.34-7.14-2.72-.74-1.09-1.41-2.48-2.64-2.72a2.53,2.53,0,0,0-2.47,1.36,7.46,7.46,0,0,0-.85,3,23,23,0,0,0,1.36,11.4c3.2,7.64,10.07,8.91,17,9.11l8.26.23c5,.14,10.35.21,14.74-2.54,3.87-2.43,6.31-6.76,7.46-11.38A29.44,29.44,0,0,0,165.92,251.13ZM147,260.72a9.49,9.49,0,0,1-8.56.56c-1.23-.45-.59-2.56.64-2.11a7.63,7.63,0,0,0,7-.41C147.22,258.06,148.14,260,147,260.72Z"/><path class="cls-5" d="M169,210.56a40.49,40.49,0,0,0,1.35-5.48,10.62,10.62,0,0,1-5.35.19l.15-3.23c0-.9-11.86-2.15-12.82-2.28-9-1.23-17.29-2.39-25.75,2.14-7.22,3.86-12,9.94-13.53,18.11-1.42,7.8.58,18.19,4.72,24.94.08-2.09-.85-7.09-.27-9a17.94,17.94,0,0,1,2.19-5.58,23.24,23.24,0,0,1,8.52-8.22,44.29,44.29,0,0,1,18-5.13c5.7-.51,12.63-.88,18.14.93,2.65.87,3.06,1.58,4.83-1.09.31-.47,2.87-6,2.65-6Z"/><circle class="cls-14" cx="384.02" cy="455.18" r="175.84"/><path class="cls-15" d="M426,284.39q4.7,1.15,9.31,2.55Z"/><path class="cls-16" d="M431,299.47l2.25.71.67-.49A20.26,20.26,0,0,1,431,299.47Z"/><path class="cls-16" d="M422.42,308.08c5.41,0,13.5,9,17.66,6.19,5.72-3.83,4.31-7.42,5.85-9.43q-6.19-2.58-12.63-4.66Z"/><path class="cls-16" d="M431,299.47q-2.56-.78-5.16-1.49A19.44,19.44,0,0,0,431,299.47Z"/><g class="cls-17"><path class="cls-12" d="M524.74,374.21a163.94,163.94,0,0,0-29.58-37.41l-.47-.43q-1.75-1.64-3.55-3.23l-.52-.45q-1.8-1.58-3.65-3.1l-.43-.35q-1.91-1.57-3.87-3.08l-.29-.22q-2-1.57-4.15-3.08l-.14-.1q-2.18-1.56-4.41-3.05h0q-4.57-3-9.35-5.79h0a162.13,162.13,0,0,0-56.74-19.75h0c-1.18-.18-2.37-.35-3.56-.5l-2-.24c-.77-.09-1.54-.19-2.32-.27h0q-4.91-.49-9.9-.68h0l-2.16-.07c-1.47,0-3-.08-4.44-.08-1.28,0-2.56,0-3.83,0l-1.43,0-2.32.09-1.83.1-1.77.11-2.18.16-1,.09q-6.33.55-12.51,1.58h0q-1.64.27-3.28.58h0q-2.11.39-4.19.84l-.16,0q-2,.44-4,.92l-.22.05q-2,.48-3.95,1l-.22.06q-2,.54-3.94,1.12l-.16,0q-2,.61-4,1.26h0a162.64,162.64,0,0,0-41.57,20.67h0A163.25,163.25,0,0,0,253.77,555.1a163.33,163.33,0,0,1,34.67-204.77l.78-.66c.69-.59,1.38-1.18,2.08-1.76l1.2-1,1.72-1.38,1.31-1,1.66-1.27,1.37-1,1.66-1.21,1.41-1,1.68-1.16,1.43-1,1.72-1.13,1.44-.93,1.78-1.11,1.42-.87,1.9-1.12,1.35-.79,2.22-1.24,1.08-.6q1.64-.89,3.3-1.74l1-.5c.79-.4,1.58-.8,2.38-1.18l1.36-.64,2.07-1,1.49-.66,2-.87,1.55-.65,2-.81,1.58-.62,2-.76,1.58-.58,2-.72,1.57-.54,2.13-.69,1.52-.48,2.32-.69,1.37-.4c1-.28,2-.55,3-.81l.74-.2q1.86-.48,3.75-.91l1.16-.25,2.64-.57,1.47-.29,2.35-.45,1.6-.28,2.26-.37,1.67-.25,2.24-.31,1.69-.21,2.26-.26,1.68-.17,2.31-.21,1.65-.13,2.42-.15,1.57-.09,2.68-.1,1.33,0q2,0,4-.05l1,0h0a162.55,162.55,0,0,1,68,15.26l.62.3q1.57.74,3.12,1.51l1.34.68,2.43,1.27,1.35.72q1.44.78,2.86,1.6l1.11.63q1.52.88,3,1.8l1.4.87,2.12,1.34,1.45.94q1.15.76,2.28,1.54l1.13.77h0A164.24,164.24,0,0,1,524.74,374.21Z"/></g><path class="cls-18" d="M382.52,295.74h0Z"/><path class="cls-5" d="M445.81,290.52a51.15,51.15,0,0,0-14.93.22,21,21,0,0,0,4.38-3.8q-4.6-1.4-9.31-2.55l-.67.22c-4.25,1.49-4.87,1.64-4.18,4.33a31.27,31.27,0,0,1-4.68-2.33H396.06C409,300.88,384,299.94,374.83,300c-1.67,0-2.06-3.34-1.11-4.22.44-.41,10.74,0,8.8,0,8.31,0,7.27-.67,7.27-9.13-8.26,6.09-8,0-17.35,0-8.79,0-13.1.48-20.81,3.95l7.53,6.42c-3.16-.72-13.47-4.76-16.29-3.56-1.31.56-1.65,4.05-3.27,4.05-6.55,0-24.37,3.58-24.37-3.93,0,0-.12-.06-.32-.09a175.85,175.85,0,0,0-44.32,27.38c8.47-1.4,17.37-.9,19.13-.9.78,0,6.16,13.9,6.22,15,.29,6.06-3.84,8.46-6.91,14.22-5.58,10.49-8,24.24-7.42,36,0,.43,7,6.73,7,9.23,0,10.46,1.1,10.63,8.28,18.34V399.88c4.29,11.23,9.47,15.56,13.34,26.55,4.39,12.47,21.75,2.89,27.65,11.11,2.6,3.62,7.44,2,9.76,5.49l6.28,9.58c3.78,5.78,8.4,3.77,15.16,3.77,6.5,0-5.91,22.45-5.91,24.34,0,7.78,10.62,25.5,10.56,28.62-.2,9.24,11.34,10.54,17.61,16.23,5,4.59,1.44,17.59,1.28,23.36a36.52,36.52,0,0,0,2.4,13.42h0c1.37,3.86,3.1,7.58,4.66,11.39.27.67.54,1.34.8,2,.11.3.22.6.33.89q.31.85.6,1.71c.11.32.21.63.31,1,.19.6.36,1.2.52,1.8.08.29.16.58.23.87.22.89.43,1.8.59,2.72.82,4.73-1,9.83.06,14.36s5.08,7.55,5,12.7c-.09,7.95,22.26,9.44,26.59,9.44,0,0-16.32-8.46-16.32-7.45,0-7.54,3.88-7,3.88-11.62,0-5.47-5-10-1.86-17.7,3.35-8.36,3-8.11,12-8.11A54.13,54.13,0,0,0,430.7,565c8.1-12.62,26.94-24.76,31.92-28.17,6.77-4.63,3-17.12,5.91-23.78,2.58-5.85,10.38-11.25,10.76-18.45a8.16,8.16,0,0,0,0-1.08c0-.08,0-.16,0-.25a6.4,6.4,0,0,0-.13-.75l-.05-.2a5.57,5.57,0,0,0-.25-.71l0-.11a5.1,5.1,0,0,0-.41-.73h0c-1.57-2.32-4.81-3-7.64-2.87-4,.13-4.4-6.56-7.43-6.56-8.41,0-17.15-1.43-24.43-6.83-1.21-.89-2.56-11.63-4.62-14.29-3-3.81-12.4,2.88-16.07-2.3-1.39-2-4.67-9.64-6.91-9.64-3,0-19.85-3.27-23.38-.07.54-.49-5.73-2.4-6.62-2.4.38,0-21.59,11.38-21.59,5.47,0-7.66,3.74-17.56-5.35-17.56-14.61,0-2.18-3.8-2.18-10.49,0-8.58-14.14,2.36-21.6,2.36.2,0-8.39-14.08-4.27-14.08,3,0,3.42-6,5.61-8.59,5.77-6.74,15.62-7.45,22.56-6.18,2.81.51,13,12.32,13,14.76,0-.58,4.15-3.24,4.71-4.1,2-3.08.87-4.41,1.37-7.49,1.68-10.34,2.11-12.39,10.36-18.68,6.06-4.62,14.54-9.92,19.3-15.9,3.63-4.56,7-6.93,12.3-9.52-.54.26,5,3.38,6.17,3.38,4.77,0,5.92-4,8.53-7.65h-8.28c9.35-7.15-7.57-10.86,11.17-10.86,9.21,0,10.06.13,15.69-6.42-9,0-6.78-.06-6.78-9.18,0-1.52-2.53-7.09-4.95-4.71-6.61,6.49-6.37-1.19-9.26-5.51-3.74-5.58-7.77.16-9.33,3.55-1.93,4.2-17.83,10.76-17.79,16.25,0,3.21-5.23,3.08-5.13-.5.15-5.38-18.43-10.51-18.74-12.61-.4-2.77,9.19-10.24,17.54-10.24,3.83,0,2-4.44,3.14-4.44,8,0,17.33-2.47,21.68-8.88-1.09,0-11.3.07-11.3-.05,0-3.65-1.56-5.87,2.62-5.87,9.81,0,12.72,7.65,23.48,7.65l-11.55,8.39c5.4,0,13.5,9,17.65,6.19,7.67-5.14,2.5-9.84,8.88-10.9a7.58,7.58,0,0,0,3.13,1.95c2,.7,9.18,2,10.39,3.81,1.47,2.2,5.21,15.2,2.46,16.33-4.46,1.84-17.51,16-7.53,19.51,7.72,2.73,9.7-.71,16.56-5,6.38-4,8.12-2.53,15.31,0,.06,0,7.46-.25,10.23.73,6.06,2.14,5.62-1.68,6.26-1.46,2.53.89,7.4,1.54,10.57.15A176.14,176.14,0,0,0,445.81,290.52Z"/><path class="cls-5" d="M372.83,412.94l-3.56,3.57c11.08,0,17.82,3.57,27.65,3.57C390.32,409.75,385.15,412.94,372.83,412.94Z"/><path class="cls-5" d="M409.39,421.88c-8.89-.27-9.3,1.08-14.75,7.17l14.06,0C412.76,429.07,412.19,422,409.39,421.88Z"/><path class="cls-5" d="M422,431.15c0-12.47-12.68,0,0,0Z"/><g class="cls-19"><path d="M476,305.1A175.86,175.86,0,0,1,235.85,549.69,175.85,175.85,0,1,0,476,305.1Z"/></g><polygon class="cls-8" points="470.44 303.75 525.61 354.39 546.2 412.62 561.06 409.26 548.35 336.13 470.2 286.14 470.44 303.75"/><polygon class="cls-3" points="549.24 408.89 558.86 406.26 565.05 421.63 558.16 429.43 549.34 427.91 551.08 420.2 549.28 420.7 547.98 423.02 545.67 421.69 549.24 408.89"/><polygon class="cls-20" points="775.62 468.24 768.34 470.88 771.21 472.23 775.41 470.7 784.48 475.86 785.48 473.84 775.62 468.24"/><polygon class="cls-20" points="764.16 322.22 761.69 320.49 752.19 322.74 751.39 325.23 764.16 322.22"/><polygon class="cls-20" points="724.54 331.58 739.29 328.09 740.05 325.61 724.69 329.24 708.6 323.17 708.05 325.36 724.54 331.58"/><path class="cls-20" d="M830.79,499.6l-.5-.29-38.12-21.67-.87,2.09,20.09,11.42,21.51,10.13,21-6.72c.31-.89.64-1.78,1-2.66Z"/><path class="cls-20" d="M871.68,488.85l2.38-.76-1.68-.9C872.15,487.75,871.91,488.3,871.68,488.85Z"/><polygon class="cls-20" points="662.22 374.69 660.05 373.53 657.52 410.89 659.73 411.52 662.22 374.69"/><polygon class="cls-20" points="737.43 482.1 736.76 484.73 764.31 474.73 761.41 473.4 737.43 482.1"/><polygon class="cls-20" points="665.05 332.86 662.88 331.76 660.63 365.08 662.79 366.25 665.05 332.86"/><polygon class="cls-20" points="655.91 467.87 656.69 456.48 654.5 455.55 653.57 469.29 659.03 471.68 659.59 469.47 655.91 467.87"/><polygon class="cls-20" points="659.29 418.01 657.09 417.36 654.94 449.05 657.13 449.95 659.29 418.01"/><polygon class="cls-20" points="666.62 309.73 697.28 321.3 697.84 319.11 664.59 306.56 663.52 322.33 665.68 323.56 666.62 309.73"/><path class="cls-20" d="M903.4,386c.84-1.61,1.7-3.21,2.56-4.81l2.9-44.67-2.59,5.3Z"/><polygon class="cls-20" points="901.47 324.27 894.72 323.7 870.18 330.05 868.72 332.75 901.47 324.27"/><polygon class="cls-20" points="909.62 324.96 909.62 324.96 908.7 324.88 909.62 324.96"/><path class="cls-20" d="M883.29,484.83l1.14-2.42-3.53,1.13Z"/><path class="cls-20" d="M898.91,455a21.71,21.71,0,0,1,2.4-2.34l1.51-23.26q-1.25,1.78-2.48,3.57Z"/><polygon class="cls-20" points="789.38 316.26 792.06 315.62 840.85 339.96 856.98 335.79 858.41 333.1 841.1 337.57 796.66 315.41 786.99 314.59 789.38 316.26"/><polygon class="cls-21" points="718.31 489.04 717.9 491.57 730.26 487.09 730.93 484.46 718.31 489.04"/><polygon class="cls-21" points="670.21 474.1 669.65 476.3 685.38 483.16 686.17 481.05 670.21 474.1"/><path class="cls-22" d="M902.78,395.54l2.15,1.5,1-15.86c-.85,1.6-1.71,3.2-2.56,4.81Z"/><path class="cls-22" d="M900.35,433q1.23-1.79,2.48-3.57l.64-9.81-2.15-1.5Z"/><path class="cls-22" d="M871.3,486.62l-16.49,5.28c-.32.89-.65,1.78-1,2.66l17.82-5.71c.23-.55.47-1.1.7-1.66Z"/><polygon class="cls-12" points="708.05 325.36 708.6 323.17 697.84 319.11 697.28 321.3 708.05 325.36"/><polygon class="cls-12" points="659.59 469.47 659.03 471.68 666.18 474.79 666.73 472.58 659.59 469.47"/><polygon class="cls-12" points="666.73 472.58 666.18 474.79 669.65 476.3 670.21 474.1 666.73 472.58"/><polygon class="cls-12" points="736.45 482.45 735.78 485.08 736.76 484.73 737.43 482.1 736.45 482.45"/><polygon class="cls-12" points="730.93 484.46 730.26 487.09 735.78 485.08 736.45 482.45 730.93 484.46"/><path class="cls-12" d="M880.9,483.54l-8.1,2.6-.42,1.06,1.68.9,9.06-2.9.17-.36Z"/><polygon class="cls-12" points="662.79 366.25 660.63 365.08 660.05 373.53 662.22 374.69 662.79 366.25"/><path class="cls-12" d="M872.38,487.19l.42-1.06-1.5.48Z"/><path class="cls-21" d="M897.4,478.25l-13,4.16-1.14,2.42.36.19,15.89-5.09,1.77-27.26a21.71,21.71,0,0,0-2.4,2.34Z"/><path class="cls-21" d="M883.12,485.19l.53-.17-.36-.19Z"/><polygon class="cls-12" points="761.41 473.4 764.31 474.73 771.21 472.23 768.34 470.88 761.41 473.4"/><polygon class="cls-12" points="829.19 501.27 830.54 502.04 832.9 501.28 811.39 491.15 829.19 501.27"/><polygon class="cls-12" points="785.48 473.84 784.48 475.86 791.3 479.74 792.17 477.65 785.48 473.84"/><polygon class="cls-12" points="665.68 323.56 663.52 322.33 662.88 331.76 665.05 332.86 665.68 323.56"/><polygon class="cls-12" points="657.13 449.95 654.94 449.05 654.5 455.55 656.69 456.48 657.13 449.95"/><polygon class="cls-12" points="659.73 411.52 657.52 410.89 657.09 417.36 659.29 418.01 659.73 411.52"/><polygon class="cls-12" points="868.72 332.75 870.18 330.05 858.41 333.1 856.98 335.79 868.72 332.75"/><polygon class="cls-12" points="907.38 324.77 906.27 341.8 908.87 336.51 909.62 324.96 908.7 324.88 907.38 324.77"/><polygon class="cls-12" points="751.39 325.23 752.19 322.74 740.05 325.61 739.29 328.09 751.39 325.23"/><polygon class="cls-20" points="710.77 491.77 710.29 491.56 686.17 481.05 685.38 483.16 709.29 493.58 711.79 493.79 717.9 491.57 718.31 489.04 710.77 491.77"/><polygon class="cls-23" points="772.72 320.19 773.34 317.74 761.69 320.49 764.16 322.22 772.72 320.19"/><polygon class="cls-23" points="789.38 316.26 786.99 314.59 786.75 314.57 779.62 316.26 778.99 318.71 789.38 316.26"/><polygon class="cls-23" points="901.31 418.1 903.46 419.6 904.93 397.04 902.78 395.54 901.31 418.1"/><polygon class="cls-23" points="778.99 318.71 779.62 316.26 773.34 317.74 772.72 320.19 778.99 318.71"/><polygon class="cls-24" points="871.18 397.03 844.14 378.13 833.81 397.2 862.79 413.89 871.18 397.03"/><polygon class="cls-20" points="656.69 456.48 655.91 467.87 659.59 469.47 662.29 458.87 656.69 456.48"/><polygon class="cls-24" points="821.31 402.95 766.84 366.5 754.37 415.5 801.26 440.71 821.31 402.95"/><polygon class="cls-24" points="752.46 423 743.28 459.08 768.34 470.88 775.62 468.24 785.48 473.84 798.37 447.58 752.46 423"/><polygon class="cls-24" points="692.35 340.71 697.28 321.3 666.62 309.73 665.68 323.56 692.78 339.01 692.35 340.71"/><polygon class="cls-24" points="737.43 482.1 761.41 473.4 741.92 464.42 737.43 482.1"/><polygon class="cls-24" points="681.13 384.81 662.22 374.69 659.73 411.52 673.34 415.42 681.13 384.81"/><polygon class="cls-24" points="879.88 379.53 908.7 324.88 909.95 319.76 868.72 332.75 853.41 361.02 879.88 379.53"/><polygon class="cls-20" points="671.75 421.66 659.29 418.01 657.13 449.95 663.85 452.74 671.75 421.66"/><path class="cls-24" d="M865.72,424.7,828.2,407.56l-20,36.89L803,441.64l59.16,31.81c5-11.76,10.51-23.33,15.51-34.49q6.36-14.2,13.2-28.19l-13.64-9.54Z"/><polygon class="cls-24" points="826.58 393.03 837.1 373.21 775.99 330.49 768.58 359.62 826.58 393.03"/><path class="cls-24" d="M875,480.38l5.87,3.16,3.53-1.13,7.15-15.15c2-4.28,4.24-8.76,7.33-12.25l1.43-22c-8.18,11.88-15.84,24.15-21.42,37.43C877.54,473.69,876.29,477,875,480.38Z"/><path class="cls-24" d="M899.6,393.31q1.89-3.67,3.8-7.33l2.87-44.18L885.8,383.66Z"/><polygon class="cls-24" points="691.01 345.98 665.05 332.86 662.79 366.25 683.08 377.15 691.01 345.98"/><polygon class="cls-24" points="856.98 335.79 840.85 339.96 792.06 315.62 789.38 316.26 846.24 356.01 856.98 335.79"/><polygon class="cls-24" points="718.48 396.19 739.29 328.09 724.54 331.58 708.05 325.36 693.45 382.73 718.48 396.19"/><path class="cls-24" d="M803.56,450.35l-11.38,27.3,38.12,21.67.5.29,24-7.7q2.12-5.87,4.5-11.7Z"/><polygon class="cls-24" points="749.18 412.7 770.99 326.99 764.16 322.22 751.39 325.23 727.15 400.85 749.18 412.7"/><polygon class="cls-8" points="691.51 390.37 670.21 474.1 686.17 481.05 698.63 448.16 722.37 464.03 718.31 489.04 730.93 484.46 747.27 420.22 691.51 390.37"/><path class="cls-14" d="M902.78,395.54l.62-9.55q-1.92,3.65-3.8,7.33Z"/><path class="cls-14" d="M877.64,439c-5,11.15-10.48,22.73-15.51,34.49L875,480.38c1.26-3.34,2.52-6.69,3.9-10,5.58-13.28,13.24-25.55,21.42-37.43l1-14.88-10.47-7.32Q884,424.76,877.64,439Z"/><path class="cls-14" d="M854.81,491.9l16.49-5.28-12-6.42Q856.94,486,854.81,491.9Z"/><polygon class="cls-12" points="691.01 345.98 691.01 345.98 683.08 377.15 693.45 382.73 708.05 325.36 697.28 321.3 692.35 340.71 691.01 345.98"/><polygon class="cls-12" points="681.13 384.81 673.34 415.42 677.32 416.56 672.64 421.92 671.75 421.66 663.85 452.74 665.37 453.37 662.29 458.87 662.29 458.87 659.59 469.47 666.73 472.58 687.97 388.48 681.13 384.81"/><polygon class="cls-12" points="687.97 388.48 666.73 472.58 670.21 474.1 691.51 390.37 687.97 388.48"/><polygon class="cls-12" points="742.49 458.71 743.28 459.08 752.46 423 751.68 422.58 742.49 458.71"/><polygon class="cls-12" points="741.13 464.06 736.45 482.45 737.43 482.1 741.92 464.42 741.13 464.06"/><polygon class="cls-12" points="749.18 412.7 754.37 415.5 766.84 366.5 763.29 364.13 766.21 358.25 768.58 359.62 775.99 330.49 770.99 326.99 749.18 412.7"/><polygon class="cls-12" points="740.72 463.87 741.22 458.11 742.49 458.71 751.68 422.58 747.27 420.22 730.93 484.46 736.45 482.45 741.13 464.06 740.72 463.87"/><polygon class="cls-12" points="683.08 377.15 662.79 366.25 662.22 374.69 681.13 384.81 683.08 377.15"/><polygon class="cls-12" points="747.92 417.68 749.18 412.7 727.15 400.85 726.72 402.19 716.9 401.34 718.48 396.19 693.45 382.73 692.05 388.25 747.92 417.68"/><path class="cls-12" d="M872.8,486.14l8.1-2.6L875,480.38C874.3,482.31,873.56,484.23,872.8,486.14Z"/><path class="cls-12" d="M801.26,440.71h0l-46.89-25.21-1.91,7.5,45.91,24.58h0l5.18,2.77h0l55.75,29.85q1.38-3.38,2.83-6.75L803,441.64Z"/><polygon class="cls-12" points="692.05 388.25 691.51 390.37 747.27 420.22 747.92 417.68 692.05 388.25"/><path class="cls-12" d="M862.14,473.45q-1.44,3.37-2.83,6.75l12,6.42,1.5-.48c.76-1.91,1.5-3.83,2.23-5.76Z"/><polygon class="cls-12" points="692.05 388.25 693.45 382.73 683.08 377.15 681.13 384.81 687.97 388.48 688.5 386.38 692.05 388.25"/><polygon class="cls-12" points="688.5 386.38 687.97 388.48 691.51 390.37 692.05 388.25 688.5 386.38"/><polygon class="cls-12" points="749.18 412.7 747.92 417.68 752.34 420.01 751.68 422.58 752.46 423 754.37 415.5 749.18 412.7"/><polygon class="cls-12" points="747.92 417.68 747.27 420.22 751.68 422.58 752.34 420.01 747.92 417.68"/><path class="cls-8" d="M884.43,482.41l13-4.16L898.91,455c-3.1,3.49-5.31,8-7.33,12.25Z"/><polygon class="cls-12" points="741.92 464.42 761.41 473.4 768.34 470.88 743.28 459.08 741.92 464.42"/><polygon class="cls-12" points="741.13 464.06 741.92 464.42 743.28 459.08 742.49 458.71 741.13 464.06"/><polygon class="cls-12" points="741.22 458.11 740.72 463.87 741.13 464.06 742.49 458.71 741.22 458.11"/><polygon class="cls-12" points="798.37 447.58 785.48 473.84 792.17 477.65 803.56 450.35 798.37 447.58"/><polygon class="cls-12" points="798.37 447.58 798.37 447.58 803.56 450.35 803.56 450.35 798.37 447.58"/><polygon class="cls-12" points="692.35 340.71 692.78 339.01 665.68 323.56 665.05 332.86 691.01 345.98 692.35 340.71"/><polygon class="cls-12" points="692.35 340.71 691.01 345.98 691.01 345.98 692.35 340.71"/><polygon class="cls-25" points="663.85 452.74 657.13 449.95 656.69 456.48 662.29 458.87 663.85 452.74"/><polygon class="cls-12" points="662.29 458.87 665.37 453.37 663.85 452.74 662.29 458.87 662.29 458.87"/><polygon class="cls-12" points="673.34 415.42 659.73 411.52 659.29 418.01 671.75 421.66 673.34 415.42"/><polygon class="cls-12" points="672.64 421.92 677.32 416.56 673.34 415.42 671.75 421.66 672.64 421.92"/><polygon class="cls-12" points="833.81 397.2 844.14 378.13 837.1 373.21 826.58 393.03 833.81 397.2"/><polygon class="cls-12" points="853.41 361.02 868.72 332.75 856.98 335.79 846.24 356.01 853.41 361.02"/><polygon class="cls-12" points="821.31 402.95 801.26 440.71 802.98 441.64 808.21 444.45 828.2 407.56 828.2 407.56 821.31 402.95"/><polygon class="cls-12" points="801.26 440.71 802.98 441.64 801.26 440.71 801.26 440.71"/><polygon class="cls-12" points="879.88 379.53 885.79 383.66 907.44 341.18 908.47 325.32 908.57 323.81 879.88 379.53"/><polygon class="cls-12" points="865.72 424.7 877.2 401.24 871.18 397.03 862.79 413.89 833.81 397.2 828.2 407.56 865.72 424.7"/><polygon class="cls-12" points="826.58 393.03 768.58 359.62 766.84 366.5 821.31 402.95 826.58 393.03"/><polygon class="cls-12" points="766.21 358.25 763.29 364.13 766.84 366.5 768.58 359.62 766.21 358.25"/><polygon class="cls-12" points="828.2 407.56 828.2 407.56 833.81 397.2 826.58 393.03 821.31 402.95 828.2 407.56"/><polygon class="cls-12" points="727.15 400.85 751.39 325.23 739.29 328.09 718.48 396.19 727.15 400.85"/><polygon class="cls-12" points="726.72 402.19 727.15 400.85 718.48 396.19 716.9 401.34 726.72 402.19"/><polygon class="cls-8" points="698.63 448.16 686.17 481.05 710.29 491.56 710.77 491.77 718.31 489.04 722.37 464.03 698.63 448.16"/><polygon class="cls-10" points="775.99 330.49 837.1 373.21 846.24 356.01 789.38 316.26 778.99 318.71 775.99 330.49"/><polygon class="cls-10" points="772.72 320.19 764.16 322.22 770.99 326.99 772.72 320.19"/><path class="cls-10" d="M890.84,410.78q4.29-8.78,8.76-17.47l-13.8-9.65-8.6,17.58Z"/><polygon class="cls-10" points="871.18 397.03 879.88 379.53 853.41 361.02 844.14 378.13 871.18 397.03"/><path class="cls-10" d="M890.84,410.78l10.47,7.32,1.47-22.56-3.18-2.23Q895.13,402,890.84,410.78Z"/><polygon class="cls-10" points="775.99 330.49 778.99 318.71 772.72 320.19 770.99 326.99 775.99 330.49"/><polygon class="cls-10" points="853.41 361.02 846.24 356.01 837.1 373.21 844.14 378.13 853.41 361.02"/><polygon class="cls-10" points="877.2 401.24 885.79 383.66 879.88 379.53 871.18 397.03 877.2 401.24"/><g class="cls-26"><polygon points="840.18 339.45 791.41 314.66 775.05 467.59 830.21 499.54 840.18 339.45"/></g><path class="cls-27" d="M653.86,470.11l5.42,2.36,49.28,21.42c3.46,1.5,6.24-.35,9.7-1.6l12.18-4.4,24.13-8.72,10.61-3.83,6.52-2.36a17.31,17.31,0,0,0,2.86-1,3.58,3.58,0,0,1,.56-.23,2.51,2.51,0,0,1,.63.38c3.49,2.77,8.37,4.74,12.28,7l10.25,5.81,24.28,13.76,5.19,2.94c2,1.13,2.41,1.07,4.68.35l13.16-4.2,53.16-17a1.45,1.45,0,0,0,1.1-1.27L903.75,419l4.25-65.3L910.13,321a1.4,1.4,0,0,0-1.67-1.45l-49.94,12.87-12,3.09c-1.79.46-4,1.47-5.87,1.57l-.1,0a10.73,10.73,0,0,1-1.58-.78l-29-14.44-12-5.94c-2.32-1.15-4.56-2.94-7.15-2.59-8.21,1.1-16.53,3.89-24.61,5.79l-24.67,5.81-11.94,2.81c-1.17.28-2.4.49-3.56.84-.42.13-1.5.18-1.24.29-1.91-.39-4-1.6-5.79-2.26l-53.37-20.08a1.4,1.4,0,0,0-1.84,1.22l-4.23,62.52-4.31,63.7-2.36,34.78A1.43,1.43,0,0,0,653.86,470.11ZM775,471.66c-.34,0-.29-.08,0,0ZM719,329.51c1.68.63,3.67,1.82,5.46,2.05,1.35.17,2.88-.46,4.18-.76l8.72-2.05L761,323.17l23.9-5.63c1.81-.43,3.63-.82,5.43-1.28,1.61-.41,1.38-.32,1.89-.17a25.39,25.39,0,0,1,3.62,1.8l7.52,3.74L834.26,337c1.86.93,4.35,2.84,6.49,2.86,1.71,0,3.82-1,5.48-1.41l9.12-2.35,51.89-13.37-3.84,59.12-4.15,63.81-2.13,32.68-45,14.37-15.44,4.93L832,499.11c-2.13.68-1.69.75-3.56-.31l-22.88-13L783.15,473.1c-2.11-1.2-4.58-3.18-6.91-3.91-1.73-.55-3.06.31-4.81.94l-9.41,3.4L735.77,483l-11.26,4.07c-3.82,1.38-8.68,4-12.7,4.59-2.71.39-8.06-2.91-11.08-4.22l-14.39-6.26-26.15-11.37-4.43-1.92,4-58.4,4.69-69.34,2.06-30.41,44.47,16.73Z"/><path class="cls-28" d="M774.82,471.67l-.11,0h0s0,0,.08,0v0h0Z"/><path class="cls-28" d="M775,469.41l-.11,0h0v0s.08,0,.11,0v0h0Z"/><path class="cls-29" d="M367.06,179.06c9.37,40.88-38.49,165.39-38.49,165.39s-97.31-91.23-106.68-132.11,15.53-81.47,55.62-90.66S357.68,138.18,367.06,179.06Z"/><ellipse class="cls-12" cx="293.72" cy="192.44" rx="35" ry="35.7" transform="translate(-35.57 70.49) rotate(-12.91)"/><path class="cls-14" d="M611.34,194.79l48.07-.73-35.9,17.19c-9.17,4.39-20.68,7.25-33.25,8.27l-36.12.62Z"/><path class="cls-14" d="M863.6,158.41a165.37,165.37,0,0,0,13-11.29,10.05,10.05,0,0,0-3.18-16.59l-15.86-6.32c-20-8-40.92-9.56-60.1-4.95L650.84,159.51A123.23,123.23,0,0,0,606.6,182l-7.47,6a9.5,9.5,0,0,0,4.61,16.81l27.54,2.75c17.48-2.57,38.62-3.65,56.1-6.22l89.52-13.17c8.63-1.27,17.26-2.52,25.89-3.81,16.94-2.53,33.13-9.12,48-17.48A106.45,106.45,0,0,0,863.6,158.41Z"/><path class="cls-14" d="M767.23,195,749.79,197a4.87,4.87,0,0,0-4.29,5.17l.35,5.25A4.91,4.91,0,0,0,750.8,212l17.9-.17a4.8,4.8,0,0,0,4.29-2.63c2.27-4.64.63-9.13-.94-11.88A4.87,4.87,0,0,0,767.23,195Z"/><g class="cls-30"><path d="M760,196.16,751.5,212l18.56-.3s-11.42-.36-8.52-15.75Z"/></g><path class="cls-8" d="M767.63,200.31a29.54,29.54,0,0,1,0,11.09c0,.14-.07.27-.1.4h1.69a4.31,4.31,0,0,0,3.94-2.59c2.05-4.61.5-9.12-1-11.88a4.5,4.5,0,0,0-4.47-2.42l-1.36.16A40.13,40.13,0,0,1,767.63,200.31Z"/><path class="cls-14" d="M742.95,222.34l-17.56.61a4.86,4.86,0,0,0-4.7,4.79l-.08,5.26a4.92,4.92,0,0,0,4.55,5L743,239.29a4.79,4.79,0,0,0,4.49-2.26c2.64-4.43,1.38-9,0-11.92A4.88,4.88,0,0,0,742.95,222.34Z"/><path class="cls-8" d="M743.82,227.67a29.51,29.51,0,0,1-.95,11c0,.14-.09.26-.14.39l1.69.14a4.31,4.31,0,0,0,4.14-2.25c2.43-4.42,1.25-9,0-11.91a4.51,4.51,0,0,0-4.26-2.79l-1.37,0A40.2,40.2,0,0,1,743.82,227.67Z"/><g class="cls-30"><path d="M735.56,222.75l-9.76,15.1,18.53,1.26s-11.35-1.32-7.21-16.41Z"/></g><path class="cls-14" d="M793.18,167.19l-89.74,97.42a41.24,41.24,0,0,1-38.29,12.57l-5.31-1,52.25-102.61,82-9.37Z"/><g class="cls-31"><path class="cls-12" d="M856,123.59s-4.49,6.38-19.8,7.78l3.18,9.54s19-2.56,27.51-13Z"/></g><polygon class="cls-14" points="651.01 181.49 650.33 179.85 584.57 131.13 552.98 139.7 594.32 204.41 651.01 181.49"/><g class="cls-32"><path d="M776.47,164.85,772.15,166a1.19,1.19,0,0,1-1.44-.87l-2.39-9.38a1.2,1.2,0,0,1,.85-1.45l4.32-1.11a1.19,1.19,0,0,1,1.44.87l2.39,9.38A1.2,1.2,0,0,1,776.47,164.85Z"/><path d="M787.91,161.92,783.59,163a1.19,1.19,0,0,1-1.44-.87l-2.39-9.38a1.2,1.2,0,0,1,.85-1.45l4.32-1.11a1.19,1.19,0,0,1,1.44.87l2.39,9.38A1.2,1.2,0,0,1,787.91,161.92Z"/><path d="M800.06,158.8l-3.1.79a1.83,1.83,0,0,1-2.21-1.33l-2.07-8.14a1.83,1.83,0,0,1,1.3-2.23l3.09-.79a1.83,1.83,0,0,1,2.21,1.33l2.07,8.14A1.83,1.83,0,0,1,800.06,158.8Z"/></g><g class="cls-33"><path d="M676.86,199.09c20.48-3.32,41-6.64,61.27-11,34.73-7.5,72.88-12.26,105.74-25.8,4.09-1.69,30.7-13.82,34.28-17.5a.09.09,0,0,1,.15.1c-1,2.81-12.51,11.57-14.7,13.53-6.7,6-15.74,9.6-21.85,12.93A114.77,114.77,0,0,1,820.68,180c-35.1,9.32-72.57,11.3-108.47,16.86-14.55,2.25-29,5.38-43.58,7.12-5.4.64-10.83,1.09-16.25,1.45-3.29.22-10,1.89-12.62-.23C651.93,202.48,664.54,201.09,676.86,199.09Z"/></g><polygon class="cls-5" points="771.17 702.65 781.66 699.68 798.54 725.25 781.66 725.25 771.5 720.07 771.17 702.65"/><path class="cls-34" d="M584,651s-14.65,10.73-14.46,20.22c0,0-1.56,20,2.41,27.85l22,20.08,40.72-2.61,13.15-57.7Z"/><path class="cls-4" d="M628.71,663.81s-17.58-4.13-23.6,7.86l-12,22.12,21.11,28.12,159.91-.51-.32-19.1L722.1,687.7a32.09,32.09,0,0,0,10.63-12.81c4.1-8.82.9-15.34-2.4-23.63-1-2.54-5.83-16.62-10-15.52Z"/><polygon class="cls-35" points="534.48 445.25 527.1 432.09 532.59 428.69 539.64 436.58 541.49 433.77 546.43 445.8 541.2 450.1 534.48 445.25"/><polygon class="cls-29" points="641.69 475.7 590.98 489.32 546.12 441.17 536.19 450.24 577.5 529.87 639.45 517.31 641.69 475.7"/><path class="cls-29" d="M591.72,618.81c11-30.72,13.17-63.29,17.13-95.54,1.18-9.52,2.41-19.24,6.67-27.83,4.89-9.86,12.6-14.9,21.48-17.5,11.3-3.31,24.49-2.67,36.14-3,11,0,19.45,41.8,30,62.27,6.49,12.54,13.25,23.67,17.46,37.26,4,13,7.9,26.31,10.06,39.81,3.26,20.39,12.83,34.86,3,41.44-.89.26-1.74.52-2.55.78a235.72,235.72,0,0,1-48.92,10.4,194.07,194.07,0,0,1-44.38-.61c-20.12-2.65-39.59-6.14-57-17.24Z"/><polygon class="cls-35" points="678.2 625.98 668.58 637.6 663.44 633.7 668.26 624.28 664.97 623.57 674.42 614.63 680.31 617.96 678.2 625.98"/><polygon class="cls-29" points="671.76 502.84 698.89 555.22 670.2 616.59 682.24 622.59 732.17 557.64 690.5 489.75 671.76 502.84"/><path class="cls-36" d="M629,547.14H654.4a.52.52,0,0,1,.52.52v7.67a0,0,0,0,1,0,0H628.49a0,0,0,0,1,0,0v-7.67A.52.52,0,0,1,629,547.14Z" transform="translate(56.36 -59.51) rotate(5.55)"/><path class="cls-37" d="M660.68,699.59,461.19,680.2a1.93,1.93,0,0,1-1.73-2.11l13.47-138.51a1.93,1.93,0,0,1,2.11-1.73l199.49,19.4a1.93,1.93,0,0,1,1.73,2.11L662.79,697.86A1.93,1.93,0,0,1,660.68,699.59Z"/><rect class="cls-10" x="464.91" y="577.49" width="204.17" height="101.34" transform="translate(63.45 -51.92) rotate(5.55)"/><polygon class="cls-36" points="534.44 574.31 543.75 545.48 560.21 527.73 594.09 531.03 605.27 551.46 609.2 581.58 534.44 574.31"/><rect class="cls-36" x="482" y="551.01" width="32.52" height="12.26" rx="0.59" ry="0.59" transform="translate(56.25 -45.6) rotate(5.55)"/><g class="cls-38"><polygon points="534.44 574.31 534.03 592.24 607.36 600.43 609.2 581.58 534.44 574.31"/></g><g class="cls-39"><path d="M620,617.83a49.82,49.82,0,0,0-6.5-12.23q.57,1.31,1.06,2.66a48.3,48.3,0,0,1,.91,30,50.55,50.55,0,0,1-2.74,7.15,49.59,49.59,0,0,1-20.58,21.84,52.13,52.13,0,0,1-58.51-5.34,49.82,49.82,0,0,1-8.58-9.15,50.07,50.07,0,0,0,14,18.71,52.13,52.13,0,0,0,58.51,5.34,49.59,49.59,0,0,0,20.57-21.84,50.56,50.56,0,0,0,2.74-7.15A48.3,48.3,0,0,0,620,617.83Z"/></g><ellipse class="cls-40" cx="568.19" cy="626.16" rx="48.79" ry="50.25" transform="translate(-110.01 1131.09) rotate(-84.45)"/><path class="cls-41" d="M613.87,600.9a53.1,53.1,0,0,0-23-20.83,54.52,54.52,0,0,0-32.22-4.32,53,53,0,0,0-27.81,14.09,50.64,50.64,0,0,0-14.57,27.26,50.12,50.12,0,0,0,4.43,31A52.54,52.54,0,0,0,542,670.48a54.71,54.71,0,0,0,31.74,6.63,53.26,53.26,0,0,0,28.82-12,50.64,50.64,0,0,0,16.65-26.06,52,52,0,0,0,1.39-7.8A50.36,50.36,0,0,0,613.87,600.9Zm-7.53,57.4A50.38,50.38,0,0,1,581,673.55,52.26,52.26,0,0,1,550,671.67a50.88,50.88,0,0,1-23.43-18.25,48.16,48.16,0,0,1,1.19-56.58,50.41,50.41,0,0,1,24.05-17,51.92,51.92,0,0,1,31-.39c19.92,6,34.33,23.8,35.64,44a47.95,47.95,0,0,1-12.11,34.88Z"/><ellipse class="cls-5" cx="568.19" cy="626.16" rx="33.13" ry="34.13" transform="translate(-110.01 1131.09) rotate(-84.45)"/><g class="cls-26"><polygon points="722.91 331.24 666.3 309.51 655.57 468.2 709.06 491.94 722.91 331.24"/></g><path class="cls-35" d="M679.55,444.25c-5.67-19.18-33.14-26.69-40.3-4.85-2.15,6.56-3.54,13.56-2.45,20.37s5,13.46,11.25,16.44l.11,0-.91,5.25a1.2,1.2,0,0,0,1.21,1.67l6.27,1.14a6.93,6.93,0,0,0,3.13.09c2.22-.63,3.21-3.23,3.39-5.53,0-.55.05-1.11.06-1.66C673.87,473.38,683.25,456.78,679.55,444.25Z"/><path class="cls-5" d="M646.87,410.75c-5-.92-9.52,3.86-14.28,6.29-4,2-8.39,2.45-12.48,4.09s-8.18,5.23-8.41,9.88c-4-2.26-8.37-4.59-13-3.85s-9,6.06-7.36,10.63c1.5,4.09,6.74,5.21,8.36,9.24,2.57,6.38-5.24,15.89-.27,20.23,1.2,1,2.86,1.34,4,2.41,1.46,1.33,1.87,3.55,2.47,5.53,2.74,9,11.49,15.05,20.36,14.15a23.45,23.45,0,0,0,12.29-13.59c2.6-7.26-1.24-9.94-1.67-16.85a30,30,0,0,1,7.1-21.12c3.21-3.7,7.72-6.83,12.4-7.13,1.9-.12,1.25,1.44,3.43,0a9.5,9.5,0,0,0,2.56-4.07C657.44,422.37,653.51,412,646.87,410.75Z"/><path class="cls-5" d="M701.39,422.29c2.59.81,5.44.8,7.89,2,3.69,1.76,3.34,5.64,4.29,9,1.05,3.77,2.59,8.84,5,11.83,1.71,2.15,4.15,3.43,6.26,5.11s4,4.14,3.88,7c-.13,2.76-2.07,5.18-2.43,7.92-.46,4.1.18,6.22-1.23,10.38-.72,2.15-1.53,4.42-3.2,5.84-2.21,1.88-5.26,1.74-7.92,1.2s-5.41-1.37-8.09-.57c-5.8,1.74-4.91,7.58-6.6,12.39-2.56,7.32-11.28,11.36-17.75,8.51-5.49-2.41-8.5-9-8-15.34.23-3.19,1.6-6.12,1.79-9.31s-1.41-7.4,1.46-9.76a22.24,22.24,0,0,0,2.22-1.52,4.53,4.53,0,0,0,1-2,8.86,8.86,0,0,0-1.23-7.32c-1-1.44-2.55-2.51-3.15-4.22-.69-2,0-4.21.18-6.34.48-5.16-2.19-10.33-6.43-12.47-2.8-1.41-5.33-2.27-7.75-4.35-.37-.32-5.85-5.49-6-4.42a11.38,11.38,0,0,1,2.62-4.95,22.42,22.42,0,0,1,6.63-6.16c8.47-4.53,8.51,6.64,15.23,5.39,1.62-.3,2.88-1.74,4.36-2.57,2.79-1.57,6.13-.87,8.89.47S698.47,421.38,701.39,422.29Z"/></g></g></svg>