<?xml version="1.0" encoding="utf-8"?>
<!-- Generator: Adobe Illustrator 21.0.2, SVG Export Plug-In . SVG Version: 6.00 Build 0)  -->
<svg version="1.1" xmlns="http://www.w3.org/2000/svg" xmlns:xlink="http://www.w3.org/1999/xlink" x="0px" y="0px"
	 viewBox="0 0 1501.9 1122" style="enable-background:new 0 0 1501.9 1122;" xml:space="preserve">
<style type="text/css">
	.st0{display:none;}
	.st1{display:inline;}
	.st2{fill:#FFFFFF;}
	.st3{display:inline;opacity:6.000000e-02;}
	.st4{fill:#A5AFAF;}
	.st5{fill:#6E6358;}
	.st6{fill:#B1BABA;}
	.st7{fill:#C2CCCC;}
	.st8{fill:#3866A6;}
	.st9{fill:#275A91;}
	.st10{fill:#95B93F;}
	.st11{fill:#86AA1D;}
	.st12{fill:#066598;}
	.st13{fill:#4498C5;}
	.st14{opacity:6.000000e-02;}
	.st15{opacity:0.34;}
	.st16{opacity:0.11;}
	.st17{fill:#B22B48;}
	.st18{fill:#363636;}
	.st19{fill:#8C9498;}
	.st20{fill:#404F5A;}
	.st21{fill:#CCA062;}
	.st22{fill:#EACDB0;}
	.st23{fill:none;}
	.st24{fill:#3A3029;}
	.st25{fill:#F2D263;}
	.st26{fill:#FEFFF5;}
	.st27{fill:#CFE1E5;}
	.st28{opacity:0.1;}
	.st29{fill:#29ABE2;}
	.st30{fill:#41413F;}
	.st31{fill:#9AA2B5;}
	.st32{fill:#70706D;}
	.st33{fill:#A7B0C4;}
	.st34{fill:#737E99;}
	.st35{fill:#B3D6E4;}
	.st36{fill:#A8C9D6;}
</style>
<g id="background" class="st0">
	<g class="st1">
		<rect x="-0.1" class="st2" width="1502" height="1122"/>
	</g>
</g>
<g id="shadow" class="st0">
	<path class="st3" d="M344.1,911.8l109.6,95.5c17.7,15.4,41.2,24,65.7,24h581.1c56.2,0,100.3-52,54.7-82l-104-63.4l-699.1,7.1
		C341.5,893.3,336.4,905.2,344.1,911.8z"/>
</g>
<g id="object">
	<g>
		<g>
			<g>
				<path class="st4" d="M362.4,560.9c0.6,92.9,1.4,160.8,4,240.7c329.4-4.3,351.3-0.5,668.4-3.2c1.4-88.1-0.3-142.5-0.8-237.2
					C764.2,567.8,371.8,554.2,362.4,560.9z"/>
			</g>
			<g>
				<polygon class="st5" points="1081,841.4 362.3,841.4 362.3,868.8 405.4,868.8 405.4,935.8 432.3,935.8 432.3,868.8 993,868.8 
					993,926.9 1019.9,926.9 1019.9,868.8 1081,868.8 				"/>
			</g>
			<g>
				<path class="st6" d="M379.2,759c-15.1,12.4-30.1,20.2-39.4,31.1c333.4-3.3,386.1-4.8,706.9-7.7c-17.4-11.6-5.8-10.4-23.7-28.1
					C750.1,757.3,388.8,758,379.2,759z"/>
			</g>
			<g>
				<path class="st7" d="M366.6,786.6c-0.1,25.4,0.2,44,2.3,65.9c343-3.6,373.7-4.1,703.9-7.1c2.2-24.1,0.8-39,0.9-65
					C792.9,784.2,376.5,784.7,366.6,786.6z"/>
			</g>
			<g>
				<path class="st7" d="M343.3,874.1c-17.9,0-29.2-27.4-30-49.1c-1.6-44.3-3.3-88.7,0-132.8c0.4-5.5,0.9-11,2.7-16
					c11.8-32.3,52.6-16.3,52.6,18.5c0,0.1,0,144.7,0,144.7C368.6,858.6,357.3,874.1,343.3,874.1z"/>
			</g>
			<g>
				<path class="st7" d="M1063.4,874.1c-20.9,0-34.2-27.4-35.1-49.1c-1.9-44.3-3.8-88.7,0-132.8c0.5-5.5,1.1-11,3.2-16
					c13.7-32.3,61.4-16.3,61.4,18.5c0,0.1,0,144.7,0,144.7C1092.9,858.6,1079.7,874.1,1063.4,874.1z"/>
			</g>
			<g>
				<g>
					<g>
						
							<ellipse transform="matrix(0.8987 -0.4385 0.4385 0.8987 -231.2459 324.2697)" class="st8" cx="586.5" cy="662.8" rx="96" ry="96"/>
					</g>
				</g>
				<g>
					<g>
						<path class="st9" d="M595.7,567.2c15.1,9.2,27.9,22.7,36.2,39.8c23.2,47.6,3.5,105.1-44.2,128.4c-16.5,8.1-34.3,11-51.4,9.3
							c27,16.5,61.6,19.2,92.1,4.3c47.6-23.2,67.4-80.7,44.2-128.4C657.5,589.5,627.8,570.3,595.7,567.2z"/>
					</g>
				</g>
				<g>
					<g>
						<path class="st10" d="M566.2,569c1.7-0.4,3.4-0.7,5.2-1L566.2,569z"/>
					</g>
					<g>
						<path class="st10" d="M577.4,567.3c-2.4,0.8-4.8,2-7.3,3.7c0.7-1.3,1.1-2.2,1.2-2.9c-1.7,0.3-3.5,0.6-5.2,1
							c-0.1,0.1-0.2,0.2-0.3,0.3c-1.7,1.7-2,2-1,3.1c-1,0.1-1.9,0.1-2.9,0l-10,4.9c9.7,3.9-2.7,9.4-7.2,11.6
							c-0.8,0.4-1.8-1.1-1.6-1.8c0.1-0.3,5.6-2.7,4.2-2c4.2-2.1,3.5-2.1,1.5-6.3c-2.6,5-3.9,1.9-8.5,4.2c-4.3,2.1-6.3,3.4-9.3,6.9
							c1.7,0.4,3.5,0.9,5.2,1.3c-1.7,0.4-7.7,0.9-8.8,2.2c-0.5,0.6,0.2,2.4-0.6,2.8c-3.2,1.6-11.1,7.6-12.9,3.9c0,0-0.1,0-0.2,0
							c-6.3,7.3-11.4,15.4-15.2,24c3.8-2.7,8.3-4.6,9.2-5c0.4-0.2,6.4,5.3,6.6,5.9c1.6,2.9,0.1,5.1,0,8.6c-0.2,6.5,1.9,13.8,5,19.5
							c0.1,0.2,5.1,1.6,5.7,2.8c2.5,5.1,3.1,5,8.5,7l-3.1-6.3c4.8,4.5,8.4,5.4,12.9,9.8c5.1,5.1,11.4-3.8,16.2-1.2
							c2.1,1.2,4.1-0.8,6.1,0.4l5.4,3.2c3.2,1.9,5-0.2,8.3-1.8c3.2-1.6,2.5,12.4,2.9,13.4c1.9,3.8,11.3,10,12,11.5
							c2.1,4.6,8.1,2.5,12.5,3.7c3.6,1.1,4.9,8.3,6.2,11.2c3,6.7,9.6,9.4,13.7,15.1c1.5,2.1,1.9,5.1,3.5,7c1.6,2,4.3,2.5,5.5,5
							c1.9,3.9,13.2-0.7,15.3-1.7c0,0-10-0.2-9.8,0.3c-1.8-3.7,0.2-4.4-0.9-6.6c-1.3-2.7-4.8-3.7-5.2-8.2c-0.4-4.9-0.5-4.7,4-6.9
							c-1-1.8-2.2-3.6-3.6-5.1c1-8.1,7.3-18.6,8.9-21.5c2.2-3.9-2.6-9.1-2.8-13.1c-0.1-3.5,2.4-8,0.9-11.6c-1.2-2.8-3.9-2.3-5.8-1.2
							c-1.9,1-3.7-2.2-5.2-1.4c-4.1,2-8.8,3.4-13.6,2.5c-0.8-0.1-4-5.1-5.7-5.9c-2.4-1.2-5.4,4.4-8.4,2.7c-1.1-0.6-4.6-3.6-5.7-3.1
							c-1.5,0.7-10.5,3.1-11.5,5.6c0.1-0.4-3.4,0.2-3.8,0.4c0.2-0.1-7.9,10.8-9.3,7.9c-1.8-3.8-2.4-9.5-6.8-7.3
							c-7.2,3.5-2-1.3-3.6-4.6c-2.1-4.2-6.4,4.5-10,6.3c0.1,0-7.5-4.9-5.5-5.9c1.5-0.7,0.2-3.8,0.7-5.6c1.2-4.7,5.9-7.4,9.6-8.4
							c1.5-0.4,9.3,2.9,9.9,4.1c-0.1-0.3,1.3-2.6,1.3-3.1c0.2-2-0.6-2.4-1.1-4c-1.7-5.5-1.9-6.6,0.6-11.6c1.9-3.7,4.8-8.3,5.7-12.4
							c0.7-3.1,1.8-5.1,3.8-7.6c-0.2,0.3,3.3,0.5,3.8,0.2c2.3-1.1,1.9-3.4,2.4-5.8l-4.1,2c2.9-5.7-6.3-3.5,2.9-8
							c4.5-2.2,5-2.3,6.2-6.9c-4.4,2.1-3.3,1.6-5.5-2.9c-0.4-0.7-2.9-2.9-3.6-1.1c-1.7,4.8-3.4,0.9-5.9-0.5c-3.2-1.8-3.8,1.9-3.7,4
							c0.1,2.5-6.2,9.5-4.8,12.2c0.8,1.6-1.8,2.8-2.6,1c-1.2-2.7-11.6-0.7-12.2-1.7c-0.9-1.3,2.1-7.2,6.2-9.2
							c1.9-0.9-0.1-2.6,0.5-2.9c3.9-1.9,7.9-5.4,8.5-9.5c-0.5,0.3-5.5,2.7-5.6,2.7c-0.9-1.8-2.2-2.5-0.1-3.5
							c4.8-2.3,8.1,0.7,13.4-1.9c-1.2,2.3-2.4,4.6-3.7,6.9c2.7-1.3,8.8,1.2,10.1-1.2c2.5-4.4-1.1-5.4,1.7-7.5c0.5,0.2,1.1,0.3,2,0.2
							c1.1-0.1,5-1.2,6-0.6c1.2,0.7,6.2,6.2,5.1,7.4c-1.7,2-4.8,12,1,11.4c4.4-0.5,4.6-2.7,6.9-6.4c2.2-3.5,3.4-3.2,7.5-3.7
							c0,0,3.6-1.9,5.2-2.1c3.5-0.4,2.4-2.2,2.7-2.2c1.5-0.2,4-1,5.2-2.5C609.2,568.3,593.3,565.7,577.4,567.3z"/>
					</g>
					<g>
						<path class="st10" d="M570.9,644.8c-0.3,0.9-0.6,1.7-0.9,2.6c5.4-2.7,9.6-2.5,14.4-4.9C578.7,639,576.9,641.8,570.9,644.8z"/>
					</g>
					<g>
						<path class="st10" d="M591,640.4c-4.4,2-4.3,2.8-5.5,7c2.3-1.1,4.6-2.2,6.9-3.4C594.3,643.1,592.4,639.8,591,640.4z"/>
					</g>
					<g>
						<path class="st10" d="M599.4,641.9C596.4,635.8,593.1,645,599.4,641.9L599.4,641.9z"/>
					</g>
				</g>
				<g>
					<path class="st11" d="M630.3,728.9c1.6,2,4.3,2.5,5.5,5c1.9,3.9,13.2-0.7,15.3-1.7c0,0-10-0.2-9.8,0.3
						c-1.8-3.7,0.2-4.4-0.9-6.6c-1.3-2.7-4.8-3.7-5.2-8.2c-0.4-4.9-0.5-4.7,4-6.9c-1-1.8-2.2-3.6-3.6-5.1c1-8.1,7.3-18.6,8.9-21.5
						c2.2-3.9-2.6-9.1-2.8-13.1c-0.1-3.5,2.4-8,0.9-11.6c-0.3-0.8-0.8-1.3-1.4-1.7c-1.8,20.3-10.1,39.7-23.7,55.1
						c3.1,3,6.7,5.4,9.3,9C628.4,723.9,628.7,726.9,630.3,728.9z"/>
				</g>
			</g>
			<g>
				<g>
					<g>
						<g>
							<path class="st12" d="M479.4,499.4c-56.9,47.3-104.8,34.9-111.5,32.9c0,0-0.3-0.4-0.4-0.1c-0.3-0.1-0.1,0.4-0.1,0.4
								c-2.1,6.6-19.2,53.1-90.5,73c0,0,49.9,119.1,111.6,146.1c65.9,28.8,107.5,26.1,107.6,25.9c0.2,0,26.5-32.5,39.9-103.2
								C548.6,608.2,479.4,499.4,479.4,499.4z"/>
						</g>
						<g>
							<path class="st13" d="M476.2,516c-51.7,42.7-95,31.9-101,30.2c0,0-0.3-0.3-0.4-0.1c-0.2-0.1-0.1,0.4-0.1,0.4
								c-2,6-17.7,47.6-82.3,65.9c0,0,44.3,106.2,99.8,129.8c59.4,25.2,98.3,25.3,98.4,25.1c0.2,0,22.8-32,35.4-95.3
								C537.9,612.8,476.2,516,476.2,516z"/>
						</g>
						<g class="st14">
							<g>
								<path d="M379.9,556.5c0,0-0.1-0.4,0.1-0.4c0.1-0.2,0.4,0.1,0.4,0.1c6.2,1.8,49.8,12.7,102.6-29c-5.7-10.2-9.6-16.4-9.6-16.4
									c-51.7,42.7-95,31.9-101,30.2c0,0-0.3-0.3-0.4-0.1c-0.2-0.1-0.1,0.4-0.1,0.4c-2,6-17.7,47.6-82.3,65.9c0,0,2.8,6.8,7.9,17.3
									C362,604.7,377.9,562.6,379.9,556.5z"/>
							</g>
						</g>
					</g>
					<g class="st15">
						<path class="st2" d="M473.7,553.3c-39,32.4-77.7,25.6-82.2,24.2c0,0-0.2-0.3-0.3-0.1c-0.2-0.1-0.1,0.3-0.1,0.3
							c-1.4,4.6-17.6,40-66.5,53.6c0,0,38.6,78.1,81,96.6c45.2,19.7,73.7,17.9,73.7,17.8c0.2,0,18.2-22.3,27.4-70.8
							C515.4,629.5,473.7,553.3,473.7,553.3z"/>
					</g>
				</g>
				<g class="st16">
					<g>
						<path d="M479.4,499.4L395,754.3l0,0c62.2,25.8,101,23.4,101.1,23.2c0.2,0,26.5-32.5,39.9-103.2
							C548.5,608.4,479.9,500.1,479.4,499.4z"/>
					</g>
				</g>
			</g>
			<g>
				<g>
					<path class="st17" d="M488.2,659.3c-6,33.3,38.4,122.9,40.1,123.2c2.2,0.4,74.5-68.3,80.5-101.6s-16.2-65.1-49.5-71.1
						C526,603.9,494.2,626,488.2,659.3z M520.8,660.7c2.8-15.7,17.8-26.1,33.5-23.3c15.7,2.8,26.1,17.8,23.3,33.5
						c-2.8,15.7-17.8,26.1-33.5,23.3C528.4,691.4,518,676.4,520.8,660.7z"/>
				</g>
				<g>
					
						<ellipse transform="matrix(0.1769 -0.9842 0.9842 0.1769 -203.2535 1088.6355)" class="st2" cx="549.2" cy="665.8" rx="28.9" ry="28.9"/>
				</g>
			</g>
		</g>
		<g>
			<g>
				<g>
					<polygon class="st18" points="840.1,973.4 835.1,981 840.4,1009.9 850.5,1016.4 860.7,1010.4 859.7,987.5 850.3,967.3 					"/>
				</g>
				<g>
					<polygon class="st18" points="885,973.2 880,980.9 885.3,1009.8 895.4,1016.3 905.6,1010.2 904.5,987.4 895.2,967.1 					"/>
				</g>
				<g>
					<path class="st19" d="M760.6,749.9c6.3,8.4,17.5,11,27.9,12.4c11.6,1.7,23.3,2.6,35,2.9c8.3,0.2,16.6,0,24.8-1.7
						c12.9-2.7,24.6-9.2,37-13.8c10.9-4.1,22.4-6.6,34-7.7c3.3-0.3,6.7-0.5,9.5-2.3c6.1-3.8,6-12.6,5.2-19.8
						c-1.1-10.2-2.7-21.3-10.1-28.4c-5.3-5-12.6-7.1-19.7-8.7c-33.6-7.2-69.2-4.5-101.6,7.1c-13,4.7-33.5,11.4-42.6,22.6
						C752.6,721.6,753.8,740.9,760.6,749.9z"/>
				</g>
				<g>
					<path class="st20" d="M760.6,746.8c-1.3,3.4-1.5,7.5-1.6,13.8l39.2,29.1l35.3,195.2l27.1-0.2l15.2-186.9
						c-2.7-15.6-3.2-34-8.4-48.8c-6.3-17.6-35.1-25.3-52.3-25.6c-14.9-0.3-29.8,3.9-42.5,11.8C765.6,739.4,762.3,742.4,760.6,746.8z
						"/>
				</g>
				<g>
					<path class="st20" d="M926.5,723.7c1.7,3.2,3.2,6.7,5.2,9.9c4.6,7.2,9.2,14.3,13.5,21.9c6,10.6,12,21.3,17.8,32l-55,200.6
						l-26.2-1.7c0,0,5.9-195.5,5.9-195.5c0.1-5-11.1-11.7-14.4-14.3c-8.5-6.7-12.5-10.1-17.3-20c-3.7-7.7-4.3-16.9-1.5-25
						s9.1-14.9,17.1-18.3c6.1-2.6,12.9-3,19.6-3.4c9.6-0.6,20.1-0.9,27.9,4.7C922.5,717.1,924.6,720.3,926.5,723.7z"/>
				</g>
			</g>
			<g>
				<g>
					<path class="st21" d="M930.9,597l-14-66c0,0-24-14-39-19s-15-18-48-16l-14,6l-12,9c0,0-32,11-36,15s-21,53-21,53l-12,53
						c0,0,18.8,127.8,24.1,128.5c1,0.1,1.9-0.4,2.8-0.8c9.2-5,15.7-12.1,24.7-16.9c9.5-5.1,20.3-7.8,30.9-9.6
						c15.9-2.9,32.1-4.7,48.3-5c14-0.2,31-0.8,44.5,2.9c10.4,3.9,20.6,7.9,30.9,12.2C935.7,694.3,930.9,597,930.9,597z"/>
				</g>
				<g>
					<g>
						<path class="st22" d="M848.5,511.8c-6.3-0.3-12.5-0.5-18.8-0.8c-0.3-5-0.3-10,0.2-15c-0.1,0.6-10.1-4.7-11-5.9
							c-2.6-3.5-2.9-9.3-3.9-13.4c-2.3-8.8-4.4-18.6,0.2-26.4c4.8-8,15.2-10.8,24.5-11c11.8-0.3,24.9,3.1,30.9,13.2
							c5.5,9.1-1.4,22.5-3.4,32.2c-1,4.7-2.4,10.2-6.9,12.2c-2.3,1.1-5.2,0.9-7.3,2.4C849.5,502,850.3,507.7,848.5,511.8z"/>
					</g>
					<g>
						<g>
							<polygon class="st23" points="862.8,397.3 862.8,397.3 862.8,397.3 							"/>
						</g>
						<g>
							<path class="st24" d="M857.4,396.6c-1,0-1.9,0.2-2.9,0.4l8.3,0.2C861,396.8,859.3,396.5,857.4,396.6z"/>
						</g>
						<g>
							<path class="st24" d="M888.4,423.5l-5.4-9l-20.2-17.2l0,0l-8.3-0.2c-6.9,1.7-12.6,7.7-19.7,8.8c-11.2,1.8-21.5-3.3-28.2,9.8
								c-1.2,2.4-1.6,5.2-2.7,7.7c-1.4,3.2-4,5.8-6,8.6c-8.9,12.7-6,31.9,4.7,42.6c5.2,5.2,7.3,9.9,14.5,11.6
								c-3.3-6.7,1.1-33.3,10-36.2c2.4-0.8,9.5,2.1,12.2,2.5c5.8,0.9,11.5,1.8,17,4.1c7.2,3,14.9,5.2,22.7,6.1l0,0
								c0.2,0,0.9,0.1,2,0.2c0.4,0,0.8,0.1,1.1,0.1c0.7,0.1,1.5,0.1,2.1-0.1c2.9-0.2,6.3-0.9,8.7-3.3c4.7-4.7,3.1-10.1,13.2-10.9
								C914.7,448.1,901.3,432,888.4,423.5z"/>
						</g>
					</g>
				</g>
				<g>
					<g>
						<polygon class="st25" points="810.3,370.6 816.8,365.4 810.6,359.2 803.6,359.2 802,362.3 794.2,362.3 786.4,373.2 
							791.1,380.2 799.3,377.3 						"/>
					</g>
					<g>
						<path class="st25" d="M797.8,468.3c0,0-21.5-8.7-16-34.4c5.5-25.7,9.3-58.4,27.3-63.1c17.9-4.7,85.9,20.4,81.8,54.5
							c0.6-0.1-13.2-10.9-38.9-6.2C820.7,424.8,795.1,440.3,797.8,468.3z"/>
					</g>
				</g>
				<g>
					<path class="st26" d="M871.9,593c-6-29.2-1.4-69.4-19.8-82.3c-0.2-0.7-0.2-5.7,0.8-7.7s-8-2-15-3s-11-1.2-11,1c0,5-2,7-2,7
						l0.1,0.2c-0.1,0-0.1,0-0.2,0.1c0,0-10.9,3.7-11.9,34.7s-9,154-9,154l-3.6,40.1l56.6-0.1l48.8-7C905.7,730,879.9,632,871.9,593z
						"/>
				</g>
				<g>
					<polygon class="st21" points="808.9,512 804,511.2 776.9,521 740.9,604 731.9,647 765.9,651 					"/>
				</g>
				<g>
					<polygon class="st21" points="868.9,524 871.9,511 904.9,525 940.9,624 926,648 897.9,624 					"/>
				</g>
			</g>
			<g>
				<g>
					<g>
						<g>
							<polygon class="st27" points="971.5,557 901.6,579.9 846.8,557 774.6,579 711.5,559.8 711.1,729.3 770.9,750.9 839.8,720.7 
								902.1,750.9 971.5,723.6 							"/>
						</g>
						<g>
							<path class="st2" d="M972.9,555v169.6L902,752.4l-0.6-0.3l-61.6-29.9L771,752.4l-0.5-0.2l-60.8-21.9l0.5-172.4l64.5,19.6
								l72.3-22.1l54.8,23L972.9,555z M901.5,581.5l-54.8-23l-72.1,22l-0.4-0.1l-61.2-18.6l-0.4,166.5l58.4,21l69-30.2l62.3,30.2
								l67.9-26.7V558.9L901.5,581.5z"/>
						</g>
					</g>
					<g class="st28">
						<polygon points="774.6,579 711.5,559.8 711.1,729.3 770.9,750.9 						"/>
					</g>
					<g class="st28">
						<polygon points="901.8,579.9 847,556.9 840,720.6 902.2,750.8 						"/>
					</g>
				</g>
				<g>
					<g>
						<path class="st29" d="M817.4,687.8c0.1,0.2,0.2,0.4,0.3,0.5c0.1,0.1,0.3,0.2,0.5,0.2c1.2,0.4,1.4,1.9,1.5,3.1
							c0.1,1.1,0.2,2.1,0.2,3.2c0,0.2,0,0.3-0.1,0.5c-0.1,0.1-0.3,0.1-0.5,0.1c-0.9,0-1.9-0.1-2.3-0.9c-0.2-0.6,0-1.2,0-1.8
							c0-0.9-0.7-1.6-1.2-2.3C814.9,688.8,816.1,685.3,817.4,687.8z"/>
					</g>
					<g>
						<path class="st29" d="M811.1,622.5c-0.6-0.1-1.2-0.6-1-1.2c0.3-1.2,1.4-0.9,0.7-2.4c-0.4-1-1.9-1.8-2.8-2.4
							c-1.2-0.8-3-1.4-3.7-2.7c3-1.4,7.6,1.9,9.7,3.7c0.5,0.4,1,0.8,1.1,1.4c0.2,0.5,0,1.1-0.2,1.6
							C814.4,621.9,812.7,622.9,811.1,622.5z"/>
					</g>
					<g>
						<path class="st29" d="M751.6,616.5c-0.2,0.5-0.9,0.7-1.4,0.7c-0.5,0.1-1.3,0.1-1.7-0.3c-0.4-0.4-0.1-1,0.3-1.3
							c0.3-0.2,0.7-0.3,1.2-0.3c0.1,0,0.2-0.1,0.3-0.1c0.2,0,0.4,0,0.6,0.1c0.1,0,0.1,0,0.2,0c0.3,0.1,0.5,0.3,0.6,0.5
							C751.9,616,751.8,616.3,751.6,616.5C751.6,616.5,751.6,616.5,751.6,616.5z"/>
					</g>
					<g>
						<path class="st29" d="M795,671.2C795.1,671.2,795.1,671.3,795,671.2c0.3,0.1,0.5,0.2,0.7,0.4c0,0,0.1,0.1,0.1,0.1
							c0.3,0.4,0.4,0.8,0.3,1.2c0,0.2,0,0.3-0.1,0.5c-0.2,0.4-0.5,0.6-0.9,0.6c-0.2,0.1-0.5,0.1-0.8,0c-1.1-0.4-1.2-1.8-0.4-2.4
							C794,671,794.5,670.8,795,671.2z"/>
					</g>
					<g>
						<path class="st29" d="M758,652.7c0.2,0.1,0.4,0.3,0.7,0.5c0.1,0,0.2-0.1,0.2,0c0.6,0.2,1.2,0.4,1.8,0.5c0.1,0,0.2,0.1,0.2,0.2
							c0.2,0,0.4,0.1,0.6,0.2c0.4,0.2,0.5,0.5,0.6,0.7c0.1,0.1,0.1,0.1,0.2,0.2c0.4,0.1,0.7,0.4,0.6,0.9c0,0.1-0.1,0.2-0.2,0.3
							c0,0.2,0,0.4-0.1,0.5c-0.3,0.5-0.8,0.4-1.2,0c-0.2-0.2-0.2-0.5-0.2-0.7c-0.1-0.1-0.2-0.2-0.2-0.4c-0.1-0.2,0-0.4,0-0.6
							c-0.2-0.2-0.5-0.4-0.7-0.7c-0.2,0-0.4,0-0.6,0.1c-0.1,0.1-0.1,0.1-0.3,0.1l-0.6,0c-0.1,0-0.2-0.1-0.3-0.2
							c-0.3,0-0.6-0.1-0.9-0.1c-0.2,0-0.2-0.1-0.2-0.3c-0.9-0.1-1.8-0.4-2-1.3c-0.1-0.5,0.1-0.9-0.1-1.5c-0.2-0.4-0.4-0.6-0.5-1
							c0-0.4,0.1-0.8,0.4-1c0.1-0.1,0.3-0.1,0.4-0.1c0.5,0.2,0.5,0.9,0.7,1.3C756.7,651.5,757.2,652.2,758,652.7z"/>
					</g>
					<g>
						<path class="st29" d="M755.4,647.9c0.5,0.1,0.9,0.5,1,1c0.1,0.4-0.6,0.6-0.7,0.2c0-0.2-0.2-0.3-0.3-0.4
							c-0.5-0.1-1.2-0.2-1.4-0.7c-0.5,0.2-1.1,0.3-1.5-0.2c-0.2-0.1-0.1-0.4,0.1-0.5c0.3-0.1,1.1-0.6,1.8-0.7
							c0.2-0.2,0.3-0.4,0.6-0.5c0.3-0.2,0.6,0.2,0.5,0.5c0,0.1-0.1,0.2-0.2,0.3c0,0.1,0.1,0.2,0,0.3c0,0.2-0.2,0.3-0.2,0.5
							c0,0.1-0.2,0.1-0.1,0.2C755,647.9,755.4,647.9,755.4,647.9z"/>
					</g>
					<g>
						<path class="st29" d="M753.9,639.9c0-0.3,0-0.6,0.1-0.9c0.1-0.2,0.4-0.3,0.6-0.1c0.8,0.9,0.8,2,0.8,3.1c0,0.8,0.1,2.7-0.9,3.1
							c-0.4,0.2-0.7-0.4-0.3-0.6c0.1-0.1,0.2-0.2,0.3-0.3c0,0-0.1,0-0.1-0.1c-0.1-0.2-0.2-0.4-0.2-0.6c-0.1,0.1-0.2,0.2-0.4,0.2
							c-0.2,0.1-0.5,0-0.5-0.3c0-0.3,0.1-0.4,0.2-0.7c0.3-0.5,0.3-0.5,0.3-1.2C753.7,641,753.7,640.4,753.9,639.9z"/>
					</g>
					<g>
						<path class="st29" d="M737.4,707.7c-0.3-0.2-0.7-0.4-0.9-0.7c-0.5-0.6-0.5-1.4-0.5-2.2c1-0.2,2,0,2.8,0.6
							c0.9,0.7,1.9,1.2,2.6,2.1c0.8,0.8,2.1,3.5,0.7,4.3c-0.6,0.4-1.5,0.1-2-0.4c-0.5-0.5-0.8-1.2-1.2-1.9
							C738.6,708.8,738,708.2,737.4,707.7z"/>
					</g>
					<g>
						<path class="st29" d="M731.5,703.6c0.3-0.1,0.7-0.2,1.1-0.1c-0.1-0.8,0.5-1.6,1.3-1.8c0,0,0,0,0,0l0,0c0,0,0.1,0,0.1,0
							c0.4,0,0.5,0.6,0.1,0.7c-0.2,0-0.4,0.2-0.5,0.4c-0.1,0.2-0.2,0.2-0.4,0.2c-0.1,0.2-0.1,0.5,0,0.7c0,0,0,0,0,0
							c0.1-0.1,0.2-0.1,0.3-0.2c0.5-0.1,1.1,0,1.6-0.3c0.4-0.3,0.5-1,0.6-1.5c0.2-0.5,0.8-1.1,1.2-0.7c-0.2,0.9-0.4,1.7-0.6,2.6
							c-0.1,0.2-0.1,0.5-0.3,0.7c-0.2,0.3-0.6,0.4-0.9,0.6s-0.3,0.8,0.1,0.8l-0.5,0.3c0,0,0,0,0,0c0.2,0.1,0.3,0.4,0.1,0.6
							c0,0,0,0,0,0c0.4,0.2,0.7,0.8,1,1.2c0.5,0.7,1.1,1.2,1.7,1.7c0.3,0.2,0.7,0.4,0.9,0.8c0.4,0.5,0.2,0.9-0.2,1.2c0,0,0,0,0,0
							l0,0c-0.1,0.1-0.3,0.1-0.5,0.2c-1.2,0.3-1.5-0.6-2-1.4c-0.6-0.8-1.9-1.4-2.1-2.4c0,0,0-0.1,0-0.1c0,0,0,0,0,0
							c-0.4,0-0.4-0.5-0.1-0.7c0.1,0,0.1-0.1,0.2-0.1c0-0.1,0-0.2,0.1-0.3c0,0,0,0,0,0c0,0,0-0.1,0.1-0.1c0.1-0.2,0.3-0.3,0.4-0.4
							c-0.6,0.1-1.2-0.2-1.5-0.8c0-0.1,0-0.1-0.1-0.2c0,0-0.1,0.1-0.1,0.1c0,0.2,0,0.3,0,0.4c0,0.1,0,0.3,0,0.4c0,0,0.1,0.1,0.1,0.1
							c0.4,0.1,0.2,0.7-0.1,0.7c-0.1,0.3-0.6,0.3-0.6,0c-0.2-0.7-0.7-1.2-1.2-1.7c0,0,0,0,0,0c-0.2,0-0.3-0.1-0.4-0.2
							c-0.2-0.2-0.1-0.6,0.1-0.9C730.7,703.7,731.1,703.7,731.5,703.6z"/>
					</g>
					<g>
						<path class="st29" d="M749.7,706.2c1-0.3,2.1-0.4,3.1-0.2c0.5,0.1,0.9,0.3,1.1,0.7c0.2,0.4,0,0.8-0.3,1.2
							c-0.3,0.3-0.7,0.5-1.1,0.6c-0.7,0.3-1.5,0.5-2.2,0.6c-0.2,0-0.3,0-0.5,0c-0.2-0.1-0.3-0.3-0.4-0.5c-0.2-0.7-0.1-1.5,0.2-2.1
							L749.7,706.2z"/>
					</g>
					<g>
						<path class="st29" d="M778.3,680.6c0.1-0.2,0.2-0.4,0.4-0.6c0.8-0.8,1.9-1.3,2.5-2.2c0.5-0.7,2.9-4.3,3.9-2.1
							c0.3,0.8-3.1,2.9-3.7,4c-0.3,0.5-0.5,1-0.8,1.4s-0.9,0.7-1.4,0.7C778.6,681.7,778.2,681.1,778.3,680.6z"/>
					</g>
					<g>
						<path class="st29" d="M767.4,684.4c-0.4,0-0.5-0.6-0.1-0.7c1.6-0.4,3.1-0.1,4.7,0.1c0.2,0,0.3,0,0.5,0c0,0,0.1,0,0.1,0
							c-0.1-0.2,0.2-0.6,0.5-0.4c0.4,0.2,0.8,0.2,1.2,0c0,0,0,0,0,0c1.3-0.9,2.6-1.4,4.2-1.3c0.2,0,0.3,0.1,0.3,0.2
							c0.2,0.5,0,0.8-0.4,1.1c-0.1,0.1-0.2,0.1-0.4,0.1c-0.5,0.3-1.3,0.5-2.2,0.6c-0.1,0-0.2,0.1-0.3,0.1c-1.2,0.4-2.3,0.3-3.5,0.2
							C769.9,684.5,767.9,684.4,767.4,684.4z"/>
					</g>
					<g>
						<path class="st29" d="M772,673.8c0.4,0.3,0.6,0.8,0.9,1.1c0.6,0.6,1.5,0.7,2.1,1.2c0.2,0.1,0.3,0.3,0.4,0.4
							c0.6,0.1,1,0.6,1.1,1.3c0,0.8-0.5,1.4-1.2,1.8c-1.7,1-3.7,1.9-4.7-0.4c-0.5-1-0.8-2.1-0.8-3.2c0-0.7-0.5-1.9,0.1-2.4
							C770.5,673,771.5,673.4,772,673.8z"/>
					</g>
					<g>
						<path class="st29" d="M768.7,666c0.9,0.7,0.6,2.9,0.1,3.7c-0.3,0.5-0.7,0.9-1.1,1.3c-0.5,0.7-0.7,1.5-0.6,2.3
							c0.3-0.2,0.6,0.1,0.8,0.3c0.1,0.3,0.1,0.6,0,0.9c-0.7,0.2-1.5-0.5-2.1-0.2c-0.3,0.2-0.5,0.5-0.8,0.3c-0.1-0.1-0.1-0.2-0.1-0.4
							c-0.1-0.7-0.1-1.5,0.3-2.1c0.2-0.2,0.4-0.4,0.5-0.6c0.5-0.6,0.4-1.6,1-2.1c0.2-0.1,0.4-0.2,0.5-0.4c0.3-0.3,0.4-0.7,0.4-1
							C767.7,667.7,767.4,664.9,768.7,666z"/>
					</g>
					<g>
						<path class="st29" d="M763.4,677c0.6-0.4,1.5-0.4,1.7,0.3c0.1,0.2,0.1,0.4,0,0.7c-0.2,0.8-0.7,1.5-1.4,1.8
							c-0.9,0.4-2.2,0.5-2.5,1.5c-0.2,0.6,0,1.5-0.6,1.7c-0.4,0.1-0.7-0.2-0.9-0.5c-0.1-0.4-0.1-0.7,0-1.1c-0.5,0.5-1.2,0.9-1.9,1.1
							c-0.3,0.1-0.6,0.1-0.9,0.4c-0.3,0.3-0.3,0.7-0.6,1c-0.5,0.6-1.4,0.6-2.2,0.3c-0.7-0.3-1.5-0.7-2.3-0.4
							c-0.9,0.3-1.4,1.4-2.3,1.5l0.7-1.5c-0.4,0.3-0.7,0.6-1.2,0.7c-0.5,0-1-0.3-0.9-0.8c0-0.2,0.2-0.4,0.4-0.6
							c0.6-0.5,1.4-0.8,2.1-1.1c1.6-0.7,3-1.8,4.3-3c0.2-0.2,0.4-0.4,0.6-0.5c0.2-0.1,0.5,0,0.7,0c1,0.2,1.9,0.5,2.8,0.6
							c1,0.1,2,0,2.8-0.6C762.5,678,762.8,677.4,763.4,677z"/>
					</g>
					<g>
						<path class="st29" d="M742.1,684.7c-0.3-0.2-0.3-0.6-0.1-0.8c0.2-0.3,0.4-0.4,0.7-0.6c0.5-0.3,1-0.5,1.5-0.7
							c0.5-0.2,1-0.3,1.4-0.6c0.4-0.2,0.8-0.6,1.2-0.8c0.3-0.2,0.5-0.3,0.8-0.4c0.1-0.4,0.3-0.8,0.6-1.1c0.1-0.2,0.3-0.3,0.5-0.2
							c0.1,0,0.1,0.1,0.2,0.2c0.2,0.5-0.1,1-0.6,1.3l0,0l0.5,1c-0.1,0.1-0.2,0.1-0.4,0c-0.1,0.1-0.3,0.1-0.4,0.1
							c-0.2,0-0.5-0.1-0.5-0.3c0-0.1,0-0.3-0.1-0.3c-0.1,0-0.1,0-0.2,0c-0.7,0.3-1.2,1-1.9,1.2c-0.3,0.1-0.6,0.1-0.8,0.1
							c-0.7,0.2-1.3,0.7-1.8,1.2C742.5,684.3,742.3,684.5,742.1,684.7z"/>
					</g>
					<g>
						<path class="st29" d="M816.8,672.7c-0.3-0.4-0.7-0.9-0.7-1.5c-0.1-1,0.8-1.7,1.7-2.1s1.9-0.4,2.8-0.8c2-0.9,2.8-3.3,3.2-5.4
							c0.4-2.1,0.8-4.5,2.4-5.9c1.4-1.2,3.3-1.5,5.1-1.3c1.8,0.1,3.6,0.6,5.4,0.7c1,0.1,2.2,0,3-0.6c0.5-0.4,0.9-0.9,1.3-1.3
							c1.7-1.6,4.3-1.9,6.6-1.5c2.8,0.5,5.4,1.8,7.5,3.7c2.4,2.2,4.2,5.2,4.5,8.5c0.3,3.3-1.2,6.7-3.9,8.6c-0.6,0.4-1.4,0.8-2.1,0.8
							c-1.1,0.1-2.1-0.5-3.2-0.9c-1.5-0.6-3.2-0.7-4.8-0.4c-1.1,0.2-2.2,0.6-2.9,1.4c-1,1.1-0.6,2.6-1.1,4c-0.5,1.4-1.8,2.4-2.4,3.8
							c-1,2.6,1,5.3,1.2,8c0.2,2.4-1,4.7-2.2,6.8c-0.9,1.6-1.8,3.3-3.2,4.5c-1.4,1.2-3.4,1.9-5.1,1.3c-1.5-0.5-2.5-1.9-3.2-3.3
							c-0.7-1.4-1.1-2.9-1.8-4.3c-1.4-2.7-3.8-5-4-8c-0.1-1.6,0.5-3.1,0.6-4.7c0-1.6-0.5-3.1-1.2-4.6
							C819.2,676.3,818.1,674.5,816.8,672.7z"/>
					</g>
					<g>
						<path class="st29" d="M874.6,680.2c1.6-0.5,3.4-0.8,4.5-2.1c0.4-0.5,0.7-1.2,1.1-1.8c1.3-2,3.6-3,5.8-3.8
							c2.4-0.9,4.7-1.8,7.1-2.8c0.8-0.3,1.6-0.6,2.4-0.5c1.8,0.3,2.7,2.3,3.2,4.1c0.4,1.3,0.8,2.6,1.2,3.9c0.5,1.7,1,3.5,0.4,5.2
							c-1.4,3.7-5.8,4.5-6.4,8.8c-0.7,5.4,0,11.1,1.5,16.3c0.5,1.6,1,3.1,1,4.7c0,2-1.9,6.5-4.5,5.9c-2.7-0.6,0.2-5.5-0.3-7.3
							c-0.3-1.2-1.2-2.2-2.1-3.1c-2.3-2.3-5.5-4-7.5-6.4c-1.7-1.9-2-4.8-4-6.7c-1.4-1.4-3.6-2.3-4-4.2c-0.2-0.7,0-1.5-0.2-2.2
							c-0.4-1.7-2.4-2.9-2.4-4.7C871.2,681.8,873,680.7,874.6,680.2z"/>
					</g>
					<g>
						<path class="st29" d="M862.5,622.5c-0.8-1.2-0.3-2.7-0.1-4.2c0.1-1.3,0-2.5-0.2-3.8c-0.2-1.8-0.5-3.7-1.9-4.8
							c-0.7-0.6-1.6-0.9-2.4-1.4c-0.8-0.5-1.5-1.4-1.4-2.3c1.8,0,3.5,0,5.3,0c0.4,0,0.7,0,1-0.2c0.4-0.4,0.3-1.1,0.6-1.6
							c0.4-0.8,1.4-0.9,2.3-0.9c6.8-0.1,13.7,0.9,20.3,2.9c2,0.6,4.2,1.4,5.3,3.2c0.3,0.6,0.6,1.2,1.2,1.5c0.4,0.2,0.8,0.1,1.2,0.2
							c1.2,0.3,1.7,2,0.9,2.9c-0.9,1-2.5,0.7-3.9,0.6c-3.5-0.2-7,2.2-8.1,5.6c-0.7,2.3-0.4,4.9-0.8,7.3c-0.5,2.7-2.7,5.7-5.3,3.4
							c-1.2-1.1-1.9-2-3.5-2.7c-1.2-0.6-2.5-0.8-3.5-1.8c-0.5-0.5-0.9-1.1-1.5-1.5C866.4,623.5,863.6,624.2,862.5,622.5z"/>
					</g>
					<g>
						<path class="st29" d="M899.8,673.2c-0.2-0.3-0.1-0.7,0.1-1c0.2-0.3,0.5-0.5,0.8-0.7c1.5-1.2,0.6-2.5,1.2-3.7
							c0.8-1.6,2.6-1,4-0.7c0.1-1-0.2-2.1-0.6-3.1c0.6-0.5,1.5-0.1,2,0.4c0.6,0.5,1.1,1.2,1.9,1.2c1.2,0.1,1.8-1.4,2.1-2.6
							c0.3-1.6,0.6-3.6-0.6-4.7c-0.7-0.6-1.6-0.8-2.6-0.9c-2.4-0.1-4.8,0.7-6.7,2.2c-0.3,0.3-0.6,0.5-1.1,0.6
							c-1.1,0.1-1.4-1.5-1.4-2.7c-0.1-3.2-2.2-6-4.8-7.9s-5.7-2.9-8.7-3.9c-1.4-0.4-3-1.2-3.2-2.6c0-0.4,0.1-0.8,0.2-1.2
							c1.7-5,6.9-7.9,11.6-10.2c1-0.5,2.2-1,3.2-0.4c1.1,0.7,1,2.4,0.8,3.7s-0.1,3.1,1.2,3.5c0.7,0.2,1.5-0.1,2.2-0.5
							c2.6-1.3,5.6-3.2,5.4-6.1c-0.1-2-1.6-3.5-3.1-4.8c-1.4-1.2-1.9-1.5-3.2-0.3c-1.4,1.3-3.3,1.9-4.9,2.8c-1.7,1-4.1,1.4-5.5,0
							c-1.3-1.3-1.1-3.5-0.1-5c1-1.5,2.5-2.5,4-3.5c1.5-1,2.9-2.2,3.6-3.9c0.8-2.2,0-4.7-1.5-6.4c-1.5-1.7-3.7-2.8-5.9-3.5
							c-0.8-0.3-1.8-0.7-1.9-1.5c-0.1-0.8,0.6-1.4,1.3-1.8c4.1-2.5,9.3-1.7,13.8-0.2s8.8,3.8,13.6,4.3c1.4,0.1,2.9,0.1,4.3,0.5
							c3,0.8,5.1,3.4,6.6,6.2c0.6,1.1,1.1,2.2,1.9,3.1c0.7,0.8,1.6,1.3,2.6,1.7c3.8,1.6,8.1,0.9,12.3,0.7c4.1-0.1,8.8,0.7,11.1,4.1
							c0.8,1.1,1.2,2.6,0.8,3.9c-0.2,0.6-0.5,1.2-0.5,1.8c0,0.8,0.4,1.5,0.6,2.2c0.6,1.8,0,3.8-1.4,5c-0.3,0.3-0.7,0.6-1.2,0.6
							c-1.8,0.2-2.4-2.4-3.9-3.4c-0.6-0.4-1.4-0.5-2.2-0.5c-3.7-0.3-7.4-0.4-10.9,0.7c-3.5,1.2-6.7,3.9-7.3,7.5
							c-0.4,2.1,0.1,4.3-0.4,6.4c-0.3,1.2-1,2.3-1.7,3.4c-1.2,1.9-2.4,3.8-4,5.2c-1.9,1.7-4.5,2.9-5.6,5.3c-0.4,0.9-0.5,2-1.1,2.8
							c-1.2,2-3.9,2.4-6.3,2.4c-2.8,0-5.7,0.1-7.2,2.9c-0.3,0.6-0.6,1.4-1.1,1.9c-0.4,0.3-0.9,0.5-1.4,0.7
							C900.7,673.5,900.1,673.6,899.8,673.2z"/>
					</g>
					<g>
						<path class="st29" d="M750.6,691.4c0.5-0.9,0.6-1.9,0.8-2.8c0.2-1,0.7-2,1.6-2.4c0.9-0.4,2.2,0.3,2.1,1.3
							c-0.1,0.6-0.6,1.1-0.5,1.7c0.2,0.9,1.7,0.8,2.2,0c0.6-0.8,0.8-1.8,1.5-2.4c1.1-0.9,2.8-0.3,4,0.4c2.9,1.5,5.7,2.9,8.6,4.4
							c0.6,0.3,1.2,0.6,1.5,1.2c0.3,0.6,0.2,1.3,0,1.9c-0.4,1.9-0.8,3.8-1.2,5.7c-0.1,0.6-0.3,1.2-0.7,1.5c-0.4,0.3-0.9,0.3-1.4,0.3
							c-2.2-0.2-4.2-1.9-6.4-1.8c-2.1,0.1-3.8,1.5-5.4,2.8s-3.9,2.3-5.7,1.4c-0.1,0-0.2-0.1-0.2-0.1l1.2,0.1
							c-0.4-0.5-1.1-0.4-1.8-0.3c-0.4-0.1-0.7-0.2-1-0.2c0,0-0.1,0-0.1-0.1c-0.2-0.2-0.4-0.5-0.4-0.8c-0.4-1.3-0.8-2.5-1.2-3.8
							c-0.5-1.5-0.9-3.1-0.3-4.5C748.4,693.5,749.9,692.7,750.6,691.4z"/>
					</g>
					<g>
						<path class="st29" d="M750.8,704.2c0.2,0.1,0.4,0.2,0.6,0.3l-2.2-0.1c0.1-0.2,0.3-0.3,0.5-0.4
							C750.1,704.2,750.4,704.2,750.8,704.2z"/>
					</g>
					<g>
						<path class="st29" d="M856.6,628.3c0.1-0.7,0.7-1.3,1.3-1.8l1.4,0.2c0.6-0.3,1.3-0.5,1.9-0.6c0.6-0.1,1.2-0.1,1.7,0.1
							c0.5,0.2,1,0.7,0.9,1.3c0,0.5-0.4,0.9-0.5,1.5c-0.1,0.5,0.2,1.1-0.1,1.5c-0.1,0.2-0.3,0.3-0.5,0.4c-1.4,0.7-3.2,0.4-4.6-0.4
							C857.3,630,856.5,629.2,856.6,628.3z"/>
					</g>
					<g>
						<path class="st29" d="M840.1,612.2c-0.6,0.4-1.1,1.3-1.6,1.6c-0.7,0.3-0.7,0-1.5,0.2c-1.5,0.3-2.9,0.6-4.3,0.1
							c-0.3-0.1-0.5-0.2-0.7-0.5c-0.3-0.6,0.6-1.3,0.3-2c-0.7-0.1-1.4-0.3-2.1-0.4c-0.1,0-0.2,0-0.3-0.1c-0.1-0.1-0.2-0.2-0.2-0.3
							c-0.3-0.8,0-1.9,0.8-2.3c0.9-0.5,1.9-0.3,2.9,0.1s1.9,0.7,2.9,0.5c0.6-0.1,1.1-0.5,1.7-0.6c1-0.2,2,0.3,2.9,0.9
							c0.3,0.2,0.6,0.4,0.7,0.6c0.2,0.4,0.1,1-0.2,1.4S840.5,612,840.1,612.2z"/>
					</g>
					<g>
						<path class="st29" d="M728.1,624.2c1.8-1.2,4-1.6,6.2-2c4.6-0.8,9.2-1.6,13.9-2c9.1-0.8,18.7-0.3,27.1-3.9
							c-0.7-0.6-1.5-1.2-2.2-1.9c3.7-2.3,8.6-0.9,12.7,0.6l7.3,2.6c0.8,0.3,1.6,0.6,2.1,1.2c0.6,0.8,0.7,1.9,1.1,2.8
							c0.5,0.9,1.9,1.5,2.4,0.6c-0.7-0.8,0.6-2.1,1.7-1.9s1.8,1.2,2.7,1.9c1.9,1.6,4.7,1.9,7.2,1.9c2.6,0,5.4-0.2,7.7,1.2
							c0.9,0.6,1.7,1.4,2.6,1.9c0.9,0.5,2.2,0.6,3-0.2c0.2-0.3,0.4-0.5,0.4-0.8c-0.1,0.1-0.3,0.2-0.4,0.3c-0.2,0.3-0.5,0.4-0.8,0.4
							c-0.7,0.2-1.4,0.1-1.8-0.7c-0.8-1.8,2.2-2.1,2.9-3.3c0-0.2,0.1-0.5,0.2-0.7c0.7-1.8,3.2-1.9,5.1-1.5c5.3,1.2,10.2,4,13.9,8.1
							c0.8,0.9,1.6,2,1.9,3.2c0.2,1.2-0.3,2.7-1.5,3.2c-0.6,0.3-1.5,0.2-1.9,0.7c-0.5,0.5-0.4,1.5-1,1.9c-0.4,0.3-1,0.1-1.5,0
							c-2-0.7-4.5-2.2-3.8-4.2c0.3-1,1.3-2.4,0.3-2.9c-0.3-0.1-0.7,0-1,0.2c-2.6,1.5-2.2,6.1,0.6,7.1c0.9,0.3,1.9,0.3,2.8,0.3
							c3.1,0.2,6,1.5,8.9,2.9c0.1-0.3,0.2-0.6,0-0.9c-0.1-0.1,0-0.4,0.1-0.5c0.3-0.2,0.5-0.3,0.7-0.6c0-0.1,0-0.2,0-0.2
							c0-0.1,0.1-0.2,0.3-0.2c0.1-0.2,0.3-0.4,0.4-0.7c0.3-0.4,0.9-1.1,0.9-1.5c0-0.5-0.3-0.5-0.1-1.1c0.3-0.7,1.7-1.6,2.2-0.6
							c0.3,0.6-0.1,0.9-0.1,1.4c0,0.6,0.5,0.8,0.1,1.4c-0.1,0.1-0.3,0.2-0.4,0.3c0,0,0,0,0,0c-0.2,0.2-0.4,0.3-0.7,0.3
							c0,0-0.1,0-0.1,0c-0.1,0.1-0.1,0.1-0.2,0.2c0,0.2-0.1,0.3-0.1,0.5c0,0,0,0,0,0c0,0,0,0.1,0,0.1c0,0.4,0.1,0.8,0.2,1.1
							c0,0.1,0.1,0.2,0.2,0.4c0.1,0,0.2,0.1,0.3,0.2c0.2,0.3,0.2,0.2,0.3,0.5c0.4,0.1,0.7,0.4,0.7,0.7c0,0.5-0.4,0.7-0.8,0.7
							c-0.7-0.1-1.4-0.5-2.2-0.5c1.5,1,2.7,2.4,2,3.9c2-1,4.5,1.2,4.2,3.4c-0.3,2.2-2.6,3.7-4.8,3.5c-2.2-0.1-4.1-1.6-5.5-3.3
							c-0.5,1.4-1.9,2.3-3.4,2.2s-2.7-1.3-2.9-2.8c-0.8,2.3-2.8,4.1-5.1,4.8c0.9-0.6,0.4-2.1-0.5-2.7c-0.8-0.7-1.9-1-2.6-1.9
							c-0.3-0.5-0.5-1-0.8-1.5c-0.8-1.2-2.4-1.7-3.8-1.5c-1.4,0.2-2.7,0.9-4,1.7c-0.1,1.4,1.6,2.2,3,2.2c1.4-0.1,2.7-0.6,4.1-0.3
							s2.5,2,1.6,3c-1.1,1.2-3.9,0-4.5,1.5c-0.1,0.3-0.1,0.7-0.1,1c0,1.8-0.9,3.5-1.7,5.1c-1.3,2.3-2.5,4.7-3.8,7
							c-0.2,0.4-0.5,0.8-0.9,1c-0.6,0.3-1.3,0-2-0.3c-2-0.9-4.1-1.9-6.1-2.8c-0.8-0.4-1.6-0.8-1.8-1.6c0-2.8,3.6-1.8,4.9-3.2
							c-1.9-1.5-6.7,1.3-8.6,2c-0.8,0.3-1.7,0.6-2.3,1.3c-2.2,2.2-0.7,7.3-3.7,8.3c-1.6,0.5-3.3-0.8-4.2-2.2
							c-0.9-1.4-1.5-3.1-2.9-4.2c-1.9-1.4-4.6-0.9-6.1,0.8c-1.1,1.2-1.9,2.8-2,4.4c-0.1,0.5-0.1,0.9-0.2,1.4c-0.3,1.2-1.4,1.9-2,3
							c-0.4,0.8-0.5,1.8-1,2.6c-0.2,0.3-0.7,0.7-1,0.4c-0.1-0.1-0.1-0.2-0.2-0.3c-0.3-0.8-0.5-1.1,0-1.8c0.4-0.6,0.8-1.3,1.1-1.9
							c0.5-1.2,1.1-2.7,1.1-4c-0.1-0.4-0.8-0.4-1.2,0c-0.3,0.3-0.4,0.8-0.7,1.2c-1,1.4-3.4,0.4-3.8-1.3c-0.3-1.7,0.8-3.3,2.1-4.3
							c-3.1-1.3-6.2-2.7-9.2-4c-0.5-0.2-1-0.5-1.2-0.9c-0.1-0.3-0.1-0.7,0-1c0.5-3,1-6,1.5-9c-0.6-0.8-1.9-0.3-2.4,0.6
							c-0.5,0.8-0.5,1.8-0.8,2.7s-1.4,1.7-2.2,1.2c-0.9-0.5-0.7-1.7-0.7-2.7c-0.1-2.1-1.7-3.8-3.3-5.2c-1.6-1.4-3.4-2.7-4.2-4.7
							c-0.8-2-0.1-4.7,2-5.2c-4-2.9-9.2-4-14-3.1c1,0.8,2.1,1.5,2.7,2.6c0.6,1.1,0.8,2.6,0,3.6c-1.2,0.6-2.6-0.1-3.5-1.1
							s-1.4-2.3-2.1-3.3c-1.5-2.1-3.9-3.2-6.3-4.1c-3-1.1-6-1.9-9.2-2.3C725,627.7,726.3,625.4,728.1,624.2z"/>
					</g>
					<g>
						<path class="st29" d="M758,616.8c-0.1,0-0.2,0.1-0.3,0.1c-0.1,0.1-0.2,0.2-0.3,0.2c0,0,0,0.1,0,0.1c-0.1,0.2-0.3,0.4-0.5,0.5
							c0,0.1-0.1,0.2-0.2,0.3c-0.5,0.3-0.9,0.3-1.5,0.1c-0.2-0.1-0.3-0.3-0.2-0.4c0,0-0.1,0-0.1,0.1c-0.4,0.2-0.7-0.3-0.3-0.6
							c0.2-0.2,0.5-0.3,0.7-0.3c0,0,0,0,0-0.1c0,0-0.1,0-0.1,0c-0.3,0-0.6,0-0.8-0.1c0,0,0,0,0,0c-0.2,0-0.3,0-0.5,0
							c-0.5-0.1-1.5-0.6-1-1.3c0.2-0.2,0.4-0.3,0.7-0.3c0.5-0.2,1.1-0.3,1.5,0.1c0.3-0.1,0.7-0.1,1,0c0.6-0.2,1.6-0.5,2-0.1
							c0.1,0,0.3,0.1,0.4,0.2C759.1,615.7,758.7,616.6,758,616.8z"/>
					</g>
					<g>
						<path class="st29" d="M854.6,639.9c0,0,0.1,0.1,0.1,0.1c0.1,0.3,0,0.7-0.3,0.8c-0.3,0.1-0.6,0-0.8-0.3c-0.1,0-0.2,0-0.3,0
							c-0.1,0.1-0.3,0.1-0.4,0c-0.2,0-0.4,0-0.6-0.1c-0.4-0.2-0.5-0.6-0.4-1c0.1-0.1,0.1-0.2,0.2-0.3c-0.2-0.1-0.4-0.2-0.5-0.4
							c-0.1-0.3,0.1-0.7,0.4-0.8c0.2-0.1,0.4,0,0.6,0c0.2,0,0.3,0.1,0.4,0.2c0.1,0.1,0.2,0.1,0.4,0.1c0.4,0,1-0.1,1.3,0.3
							c0.2,0.3,0.1,0.6-0.1,0.8C854.6,639.6,854.6,639.7,854.6,639.9z"/>
					</g>
					<g>
						<path class="st29" d="M787.9,609.4L787.9,609.4c-0.1,0.2-0.2,0.4-0.3,0.5c-0.1,0.5-0.9,0.6-1.4,0.5c0,0,0,0-0.1,0
							c-0.1,0-0.2,0.1-0.3,0.1c0,0.1,0,0.1-0.1,0.2c-0.3,0.3-0.6,0.3-0.9,0.1c-0.1,0-0.1,0-0.2,0c-0.1,0-0.2,0-0.3,0
							c0,0-0.1,0-0.1,0c0,0,0,0-0.1,0c0,0,0,0,0,0c0,0,0,0,0,0c-0.1,0.1-0.2,0.1-0.4,0.2c-0.2,0.3-0.6,0.4-0.9,0.1
							c-0.4-0.4-0.4-1.5,0-1.9c0-0.2,0-0.3,0.1-0.5c0.2-0.4,0.5-0.4,0.8-0.2c0.2-0.1,0.5-0.1,0.8,0c0,0,0,0,0,0c0,0,0-0.1,0-0.1
							c0-0.5,0.3-0.9,0.8-1.2c0.8-0.4,2.1-0.3,2.8,0.3C789,608.3,788.6,609,787.9,609.4z"/>
					</g>
					<g>
						<path class="st29" d="M768.6,682c-0.8-0.1-0.7-0.6-0.7-1.3c0-0.8-0.4-2.1-0.2-2.8c0.2-0.8,1.2-0.7,1.5,0.2
							c0.2,0.5-0.1,1.1,0.1,1.7c0.2,0.5,0.5,1,0.4,1.6C769.6,682,769.1,682.1,768.6,682z"/>
					</g>
					<g>
						<path class="st29" d="M781.4,612.3c-0.3,0-0.7-0.1-1-0.3c-0.1,0-0.1,0-0.2-0.1c-0.5,0.2-1.1-0.3-1.5-0.7
							c-0.2-0.2-0.1-0.5,0.1-0.6c0.3-0.1,0.6-0.1,0.9,0c0.1-0.1,0.2-0.2,0.3-0.3c0.1-0.2,0.3-0.4,0.6-0.4c0.6-0.1,1.4,0.4,1.5,1
							c0,0.1,0,0.2,0,0.3c0,0,0,0,0,0C782.4,611.9,781.9,612.3,781.4,612.3z"/>
					</g>
				</g>
			</g>
			<g>
				<polygon class="st22" points="709.6,671.8 699.9,654 704.9,638 722.9,633 725.9,643 709.6,658.8 				"/>
			</g>
			<g>
				<polygon class="st22" points="972.9,659.2 981.9,646 976.9,627 962.9,618 956.9,631 972.9,648 				"/>
			</g>
		</g>
		<g>
			<g>
				<polygon class="st30" points="1026.2,724.2 1035.3,724.2 1035.3,539.6 1113.2,539.6 1113.2,724.2 1122.3,724.2 1122.3,530.5 
					1026.2,530.5 				"/>
			</g>
			<g>
				<path class="st31" d="M1008.6,970.8h128.4c16.6,0,30-13.4,30-30V735.3c0-16.6-13.4-30-30-30h-128.4c-16.6,0-30,13.4-30,30v205.5
					C978.6,957.4,992,970.8,1008.6,970.8z"/>
			</g>
			<g>
				
					<rect x="1116.3" y="970.8" transform="matrix(-1 -4.476565e-11 4.476565e-11 -1 2258.2393 1946.188)" class="st30" width="25.7" height="4.5"/>
			</g>
			<g>
				
					<rect x="1104.9" y="700.8" transform="matrix(-1 -4.469504e-11 4.469504e-11 -1 2235.5442 1406.0439)" class="st32" width="25.7" height="4.5"/>
			</g>
			<g>
				
					<rect x="1061.8" y="526" transform="matrix(-1 -4.511914e-11 4.511914e-11 -1 2149.3027 1056.5391)" class="st30" width="25.7" height="4.5"/>
			</g>
			<g>
				<g>
					<polygon class="st32" points="1137.9,975.4 1135.2,992 1129.1,992 1121.7,992 1118.9,975.4 					"/>
				</g>
			</g>
			<g>
				<rect x="1007.3" y="970.8" class="st30" width="25.7" height="4.5"/>
			</g>
			<g>
				<rect x="1017.2" y="700.8" class="st32" width="25.7" height="4.5"/>
			</g>
			<g>
				<g>
					<polygon class="st32" points="1011.4,975.4 1014.1,992 1020.2,992 1026.2,992 1029,975.4 					"/>
				</g>
			</g>
			<g>
				
					<rect x="1022.5" y="530.5" transform="matrix(-1 -4.486024e-11 4.486024e-11 -1 2148.5461 1076.9646)" class="st32" width="103.6" height="15.9"/>
			</g>
			<g>
				<g>
					<polygon class="st32" points="1100.4,689.4 1100.4,705.3 1092.8,705.3 1092.8,697 1055.8,697 1055.8,705.3 1048.2,705.3 
						1048.2,689.4 					"/>
				</g>
			</g>
			<g>
				<path class="st33" d="M1007.3,712.1h49.2c-41.1,9.3-71.9,46.1-71.9,90v-67.3C984.6,722.3,994.8,712.1,1007.3,712.1z"/>
			</g>
			<g>
				<path class="st34" d="M1135.2,721.9c0.4-2.1,2.2-3.8,4.5-3.8c2.2,0,4.1,1.6,4.5,3.8h0.1v233.8c0,2.5-2,4.5-4.5,4.5
					s-4.5-2-4.5-4.5L1135.2,721.9L1135.2,721.9z"/>
			</g>
			<g>
				<path class="st34" d="M1113.3,721.9c0.4-2.1,2.2-3.8,4.5-3.8s4.1,1.6,4.5,3.8h0.1v233.8c0,2.5-2,4.5-4.5,4.5s-4.5-2-4.5-4.5
					L1113.3,721.9L1113.3,721.9z"/>
			</g>
			<g>
				<path class="st34" d="M1091.4,721.9c0.4-2.1,2.2-3.8,4.5-3.8s4.1,1.6,4.5,3.8h0.1v233.8c0,2.5-2,4.5-4.5,4.5s-4.5-2-4.5-4.5
					L1091.4,721.9L1091.4,721.9z"/>
			</g>
			<g>
				<path class="st34" d="M1069.4,721.9c0.4-2.1,2.2-3.8,4.5-3.8c2.2,0,4.1,1.6,4.5,3.8h0.1v233.8c0,2.5-2,4.5-4.5,4.5
					s-4.5-2-4.5-4.5L1069.4,721.9L1069.4,721.9z"/>
			</g>
			<g>
				<path class="st34" d="M1047.5,721.9c0.4-2.1,2.2-3.8,4.5-3.8c2.2,0,4.1,1.6,4.5,3.8h0.1v233.8c0,2.5-2,4.5-4.5,4.5
					s-4.5-2-4.5-4.5L1047.5,721.9L1047.5,721.9z"/>
			</g>
			<g>
				<path class="st34" d="M1025.5,721.9c0.4-2.1,2.2-3.8,4.5-3.8c2.2,0,4.1,1.6,4.5,3.8h0.1v233.8c0,2.5-2,4.5-4.5,4.5
					s-4.5-2-4.5-4.5L1025.5,721.9L1025.5,721.9z"/>
			</g>
			<g>
				<path class="st34" d="M1003.6,721.9c0.4-2.1,2.2-3.8,4.5-3.8c2.2,0,4.1,1.6,4.5,3.8h0.1v233.8c0,2.5-2,4.5-4.5,4.5
					c-2.5,0-4.5-2-4.5-4.5L1003.6,721.9L1003.6,721.9z"/>
			</g>
		</g>
		<g>
			<g>
				<g>
					<g>
						<path class="st35" d="M663.3,408.3c-2.8,13.5,5.9,26.7,19.4,29.5c5.5,1.1,11,0.4,15.8-1.9c1.7,7.1,7.4,13,15.1,14.6
							c10.6,2.2,20.9-4.6,23.1-15.2c0.3-1.6,0.4-3.1,0.4-4.6c9.3,1.3,18.2-4.8,20.1-14.1c2-9.7-4.2-19.2-13.9-21.2
							c-2-0.4-4-0.5-5.9-0.2c-1.5-10.1-9.1-18.6-19.6-20.8c-11.6-2.4-23,3.7-27.7,14.1C677.4,387.4,665.9,395.8,663.3,408.3z"/>
					</g>
				</g>
			</g>
			<g>
				<path class="st35" d="M694.9,161c-5.8-0.3-11.5,0.2-17,1.3c-4.5-36.6-36.1-65.9-75.8-67.7c-26.8-1.2-51.2,10.3-66.7,29
					C528,106.3,510.1,94,489.2,94c-23.1,0-42.5,15-48.2,35.5c-7.8-8.1-18.8-13.4-31.3-14c-25.2-1.2-46.5,17.5-47.7,41.6
					c0,0.5,0,0.9,0,1.4c-4.4-1.1-9-1.8-13.8-2c-36.5-1.7-67.5,25.3-69.2,60.3c-1.4,28.6,17.2,53.8,44.1,62.8
					c-1.4,5.2-2.3,10.5-2.6,16.1c-2.1,42.4,32,78.5,76.3,80.5c22.3,1,42.8-6.8,58-20.1c2.1,24.5,23.5,43.8,49.7,43.8
					c25.3,0,46.2-18.1,49.4-41.5c11.4,14.5,29.2,24.2,49.6,25.1c29.7,1.4,55.7-16.2,65.3-41.6c6.3,3.6,13.5,5.8,21.3,6.2
					c25.2,1.2,46.5-17.5,47.7-41.6c0.5-10.9-3.1-21.1-9.7-29.1c17-10.8,28.6-28.9,29.6-49.9C759.6,192.4,731.4,162.7,694.9,161z
					 M656,277.8c-0.1-0.1-0.2-0.2-0.3-0.3C655.8,277.6,655.9,277.7,656,277.8C656,277.8,656,277.8,656,277.8z"/>
			</g>
			<g>
				<path class="st36" d="M725.5,169.9c5.5,9.8,8.4,21.1,7.8,33.1c-1.1,21-12.7,39.1-29.6,49.9c6.5,8,10.2,18.1,9.7,29.1
					c-1.2,24.1-22.6,42.7-47.7,41.6c-7.8-0.4-15.1-2.6-21.3-6.2c-9.6,25.4-35.7,43-65.3,41.6c-20.4-0.9-38.2-10.6-49.6-25.1
					c-3.2,23.4-24.1,41.5-49.4,41.5c-7.7,0-14.9-1.7-21.4-4.6c7.6,17.1,25.3,29.1,45.9,29.1c25.3,0,46.2-18.1,49.4-41.5
					c11.4,14.5,29.2,24.2,49.6,25.1c29.7,1.4,55.7-16.2,65.3-41.6c6.3,3.6,13.5,5.8,21.3,6.2c25.2,1.2,46.5-17.4,47.7-41.6
					c0.5-10.9-3.1-21.1-9.7-29.1c17-10.8,28.6-28.9,29.6-49.9C759,203.2,745.9,181.5,725.5,169.9z"/>
			</g>
			<g>
				<path class="st36" d="M745.8,396.1c0.7,2.7,0.9,5.5,0.3,8.4c-1.9,9.3-10.8,15.5-20.1,14.1c0.1,1.5-0.1,3.1-0.4,4.6
					c-2.2,10.6-12.5,17.4-23.1,15.2c-1.3-0.3-2.5-0.7-3.7-1.1c2.1,6.5,7.5,11.7,14.7,13.1c10.6,2.2,20.9-4.6,23.1-15.2
					c0.3-1.6,0.4-3.1,0.4-4.6c9.3,1.3,18.2-4.8,20.1-14.1C758.9,407.7,753.9,399.2,745.8,396.1z"/>
			</g>
		</g>
	</g>
	<g>
		<path class="st17" d="M349.5,192.2c5.4,0,8.1,4,8.1,11.8c0,3.2-0.7,9.5-2.2,18.9c-1.4,9.5-2.2,17.5-2.2,24
			c-0.4,5.7-2.2,8.7-5.3,8.8l-0.6-8.7c-0.1-6.5-1-14.4-2.6-24c-2-9.3-3-15.8-3-19.2C341.6,196.1,344.2,192.2,349.5,192.2z
			 M355.2,260.1c1.4,1.4,2.2,3.2,2.2,5.2c0,2-0.7,3.7-2.1,5.1c-1.4,1.4-3.2,2.1-5.2,2.1s-3.7-0.7-5.1-2.1c-1.4-1.4-2.1-3.1-2.1-5.1
			s0.7-3.7,2.1-5.2c1.4-1.4,3.1-2.1,5.1-2.1C352.1,258,353.8,258.7,355.2,260.1z"/>
		<path class="st17" d="M454.1,231.7c-0.1,0.1-0.2,0.1-0.2,0.1c-1.6,0.2-3,0.5-4.2,0.8c-4.4,1.3-7.9,3.5-10.1,6.5
			c-2.3,3-3.5,6.2-3.5,9.5c0,1.5,0.4,2.8,1.3,4c0.9,1.2,2,2,3.5,2.5c0.2,0.1,0.3,0.1,0.6,0.1c0.2,0.1,0.4,0.1,0.6,0.1
			c0.2,0.1,0.4,0.1,0.6,0.1c0.1,0.1,0.1,0.1,0.1,0.1h0.1c3.9,0,7,1.3,9.4,3.8c2.4,2.6,3.6,5.6,3.8,9c0.2,3.5-1.1,6.6-3.8,9.5
			c-6.2,6.2-14.2,9.3-23.6,9.2c-8.3-0.5-15.2-3.5-20.8-9.1c-5.6-5.6-8.8-12.4-9.4-20.7c-0.2-10.9,3.7-19.7,11.6-26.2l1.7,2.1
			c2.9,4.1,3.2,8.4,0.9,12.9c-1.8,3.2-2.6,6.8-2.3,10.8c0.4,4.9,2.3,9.1,5.6,12.4c3.3,3.4,7.4,5.3,12.3,5.9
			c6.2,0.4,11.5-1.5,15.6-5.6c0.4-0.5,0.5-1,0.3-1.5c-0.2-0.5-0.6-0.8-1.3-0.9c-0.6,0-1.2,0-1.8-0.1c-0.5,0-0.9,0-1.2-0.1
			c-4.5-0.8-8.3-2.9-11.2-6.4s-4.4-7.4-4.4-12c0-7.5,2.9-14.2,8.9-19.9c5.9-5.7,14.7-8.9,26.3-9.5h6.5v29.4c0,1.9,0.7,3.5,2,4.9
			c1.3,1.3,3,2,4.9,2h1.6v11.8h-1.6c-5.2,0-9.6-1.8-13.2-5.5c-3.7-3.6-5.5-8-5.5-13.2V231.7z M428.8,297.7c0-1.9-0.7-3.5-2-4.9
			c-1.3-1.3-3-2-4.9-2s-3.5,0.7-4.9,2c-1.3,1.3-2,3-2,4.9s0.7,3.5,2,4.9c1.3,1.3,3,2,4.9,2s3.5-0.7,4.9-2
			C428.1,301.2,428.8,299.6,428.8,297.7z M444.2,297.7c0-1.9-0.6-3.5-2-4.9s-3-2-4.9-2c-1.9,0-3.5,0.7-4.9,2s-2,3-2,4.9
			s0.7,3.5,2,4.9s3,2,4.9,2c1.9,0,3.6-0.7,4.9-2S444.2,299.6,444.2,297.7z"/>
		<path class="st17" d="M489.1,231c0-3.3,1.2-6.1,3.5-8.4c2.3-2.3,5.1-3.5,8.3-3.5v29.4c0,1.9,0.7,3.5,2,4.9s3,2,4.9,2h1.9v11.8
			h-1.9c-5,0-9.2-1.7-12.8-5.1c-3.6,3.4-7.8,5.1-12.8,5.1h-9.9v-11.8h9.9c1.9,0,3.5-0.7,4.9-2s2-3,2-4.9V231z M489.8,206.9
			c0,1.9-0.7,3.5-2,4.9c-1.3,1.3-3,2-4.9,2s-3.5-0.7-4.9-2c-1.3-1.3-2-3-2-4.9s0.7-3.5,2-4.9c1.3-1.3,3-2,4.9-2s3.5,0.7,4.9,2
			C489.1,203.4,489.8,205,489.8,206.9z"/>
		<path class="st17" d="M518.6,281.7c0,1.9-0.7,3.5-2,4.9s-3,2-4.9,2s-3.5-0.7-4.9-2s-2-3-2-4.9s0.7-3.5,2-4.9s3-2,4.9-2
			s3.5,0.7,4.9,2S518.6,279.8,518.6,281.7z M528.1,231c0-3.3,1.2-6.1,3.5-8.4c2.3-2.3,5.1-3.5,8.3-3.5v29.4c0,1.9,0.7,3.5,2,4.9
			s3,2,4.9,2h1.9v11.8h-1.9c-5,0-9.2-1.7-12.8-5.1c-3.6,3.4-7.8,5.1-12.8,5.1h-13.7v-11.8h13.7c1.9,0,3.5-0.7,4.9-2s2-3,2-4.9V231z
			 M534.1,281.7c0,1.9-0.6,3.5-2,4.9c-1.3,1.3-3,2-4.9,2c-1.9,0-3.5-0.7-4.9-2c-1.3-1.3-2-3-2-4.9s0.7-3.5,2-4.9c1.3-1.3,3-2,4.9-2
			c1.9,0,3.6,0.7,4.9,2C533.4,278.2,534.1,279.8,534.1,281.7z"/>
		<path class="st17" d="M564.2,238.4c0-3.3,1.2-6.1,3.5-8.4c2.3-2.3,5.1-3.5,8.3-3.5v22.9c0,1.7,0.6,3,1.8,4.2
			c1.1,1.2,2.5,1.8,4.2,1.8c1.7,0,3-0.6,4.2-1.8c1.1-1.1,1.7-2.5,1.7-4.2v-14.8c0-3.3,1.2-6,3.5-8.3c2.3-2.3,5.1-3.5,8.3-3.5v26.6
			c0,1.7,0.6,3,1.7,4.2c1.1,1.2,2.5,1.8,4.2,1.8c1.7,0,3-0.6,4.2-1.8c1.1-1.1,1.7-2.5,1.7-4.2V231c0-3.3,1.2-6.1,3.5-8.4
			c2.3-2.3,5.1-3.5,8.3-3.5v29.4c0,1.9,0.7,3.5,2,4.9c1.3,1.3,3,2,4.9,2h5.4v11.8h-5.4c-4.5,0-8.5-1.4-11.9-4.3
			c-3,2.8-6.6,4.3-10.7,4.3h-4c-3.7,0-7-1.1-9.8-3.4c-2.8,2.3-6.1,3.4-9.8,3.4h-4c-4.2,0-7.7-1.4-10.7-4.3
			c-3.4,2.8-7.4,4.3-11.9,4.3h-10.7v-11.8h10.7c1.9,0,3.6-0.7,4.9-2c1.3-1.3,2-3,2-4.9V238.4z M592.6,208.5c0,1.9-0.7,3.5-2,4.9
			s-3,2-4.9,2c-1.9,0-3.5-0.7-4.9-2s-2-3-2-4.9c0-1.9,0.7-3.5,2-4.9s2.9-2,4.9-2c1.9,0,3.5,0.7,4.9,2S592.6,206.6,592.6,208.5z
			 M600.2,194.4c0,1.9-0.6,3.5-2,4.9c-1.3,1.3-3,2-4.9,2c-1.9,0-3.5-0.7-4.9-2c-1.3-1.3-2-3-2-4.9c0-1.9,0.7-3.6,2-4.9s3-2,4.9-2
			c1.9,0,3.6,0.6,4.9,2S600.2,192.5,600.2,194.4z M608,208.5c0,1.9-0.6,3.5-2,4.9c-1.3,1.3-3,2-4.9,2c-1.9,0-3.5-0.7-4.9-2
			c-1.3-1.3-2-3-2-4.9c0-1.9,0.7-3.5,2-4.9c1.3-1.3,3-2,4.9-2c1.9,0,3.6,0.7,4.9,2C607.3,205,608,206.6,608,208.5z"/>
		<path class="st17" d="M647,248.5v-29.4c8.2,0,15.1,1.4,20.6,4.1c5.5,2.8,9.7,6.4,12.4,10.8c2.8,4.5,4.2,9.3,4.2,14.5
			c0,5.1-1.8,9.5-5.4,13.1c-3.6,3.7-8,5.5-13.1,5.5c-5,0-9.2-1.7-12.8-5c-3.6,3.4-7.8,5-12.8,5h-6.7v-11.8h6.7c1.9,0,3.6-0.7,4.9-2
			S647,250.4,647,248.5z M658.8,248.6c0,1.9,0.7,3.5,2,4.8c1.3,1.3,2.9,2,4.8,2c1.9,0,3.5-0.7,4.8-2c1.3-1.3,2-2.9,2-4.8
			c0-3.3-1.2-6.5-3.5-9.7c-2.4-3.2-5.8-5.3-10.1-6.3V248.6z"/>
	</g>
</g>
</svg>
