<?xml version="1.0" encoding="utf-8"?>
<!-- Generator: Adobe Illustrator 19.2.0, SVG Export Plug-In . SVG Version: 6.00 Build 0)  -->
<svg version="1.1" xmlns="http://www.w3.org/2000/svg" xmlns:xlink="http://www.w3.org/1999/xlink" x="0px" y="0px"
	 viewBox="0 0 1100 800" enable-background="new 0 0 1100 800" xml:space="preserve">
<g id="background" display="none">
	<rect x="0" y="0" display="inline" fill="#8EC3CB" width="1100" height="800"/>
</g>
<g id="shadow">
	<g opacity="0.4">
		<path fill="#F7F7F7" d="M475.1,669.8c-27.1,0.1-54.2,0.8-81.3,3.9c-10.2,1.2-20.2,3.8-30.4,4.8c-20.4,2.1-40.5,6-61,7.8
			c-16.5,1.4-33.1,2.3-49.5,4.1c-15.4,1.7-32.5,1.3-47.8-1.5c-11.3-2.1-22.7-3.3-33.9-6.7c-12.5-3.8-26-6.5-39-6.4
			c-18.5,0.1-36.6,0.2-54.3,6.8c-6.2,2.3-13.8,6.2-18.6,11.1C48.4,705.1,47,733.3,57.8,745c18.2,19.7,57,27.4,82.5,27.8
			c27.9,0.4,55.1-1.8,83.1-3c26-1.2,51.9-2.9,78-2.8c53.2,0.1,106.4,0,159.5-3.7c49.9-3.5,99.9-2.3,149.9-2.3
			c51.3,0,102.2,0.4,153.1,7.5c22.2,3.1,44.8,4.2,67.1,6.3c20,1.9,39.1,0,59-1.8c16.7-1.5,33.3-6,48.5-13.5
			c12-6,33.4-24.5,37.1-38.8c10.3-39.9-145.5-39-169.4-38.9c-26.8,0.1-53.7,1-80.5,0c-11.2-0.4-22.3-2.7-33.3-5.2
			c-10.9-2.5-22-1.9-33-2.9c-46.2-4.4-92.6-3.7-139-3.7C505.3,669.9,490.2,669.7,475.1,669.8z"/>
	</g>
</g>
<g id="object">
	<g>
		<g>
			<g>
				<g id="XMLID_152_">
					<path id="XMLID_153_" fill="#EAC1A4" d="M639.4,571.4l0.8,46.8c-0.3,13,0.9,25.9,1.6,38.9c0.7,12-1.7,24.4,4,35.6
						c1.8,3.5,5.6,5.9,8.5,1.9c2.2-3.1,1.2-8.5,1.8-12.1c4.1-27.2,11.9-53.6,15.7-80.8C675.8,573.1,664.8,573.9,639.4,571.4z"/>
				</g>
				<polygon fill="#3B455A" points="642,684.7 639,692.5 653.8,705.5 667.4,706.1 671.8,698.9 653.5,683 				"/>
			</g>
			<g>
				<g id="XMLID_150_">
					<path id="XMLID_151_" fill="#EAC1A4" d="M606.2,571.8l-8.5,46.1c-3,20.6-9.7,40.7-12.7,61.3c-0.7,4.7-0.3,9.9-2.3,14.4
						c-1.9,4.4-5.7,4.5-9.1,1.6c-4.5-4-2.4-11.1-2.3-16.5c0.5-36.2-2.3-71.8-3-108c0-0.5,0-1,0.4-1.3c0.3-0.2,0.7-0.2,1.1-0.2
						C573.3,569.3,606,572.8,606.2,571.8z"/>
				</g>
				<polygon fill="#3B455A" points="571.1,686.6 566.4,693.5 577.9,709.6 591,713.2 596.9,707.2 582.7,687.6 				"/>
			</g>
			<g>
				<defs>
					<polygon id="SVGID_1_" points="687.6,601.2 681.2,534.2 678.2,490.7 667.8,455.2 611.8,446.5 542.7,458.3 539.4,471.8 
						552.7,596.2 619.4,601.2 618.5,523.7 628.8,571.7 628.3,601.2 					"/>
				</defs>
				<use xlink:href="#SVGID_1_"  overflow="visible" fill="#3B455A"/>
				<clipPath id="SVGID_2_">
					<use xlink:href="#SVGID_1_"  overflow="visible"/>
				</clipPath>
				<g clip-path="url(#SVGID_2_)">
					<g>
						<path fill="#EBB044" d="M575.1,551.7c-0.1-0.2-0.2-0.5-0.3-0.7c-0.5-1.1-1.8-1.1-2.7-0.7c-5.2,2.4-7.8,13.2-9.2,18.2
							c-1.9,6.6-4.4,16.1-2.6,22.9c0.5,1.8,3.1,1.8,3.6,0c1.8-6.1,1.2-12.9,2.7-19.1c0.7-2.9,1.5-5.7,2.5-8.5
							c0.8-2.3,2.6-9.2,5.1-10.1C575.2,553.3,575.5,552.5,575.1,551.7z"/>
						<g>
							<path fill="#CCD2D9" d="M571.1,512.5c-0.6-3.1-4.2-4.6-7.1-3.7c-3,0.9-5,4.3-4.3,7.4c0.7,2.6,3.1,4.4,5.7,4.4
								c0.1,0,0.3,0,0.4,0c0,0,0,0,0,0c2.1-0.1,4.1-1.4,4.9-3.6c0.3-0.7,0.3-1.5,0.3-2.2C571.2,514.1,571.3,513.3,571.1,512.5z"/>
							<path fill="#8EC3CB" d="M613.4,586.2c-4-6.5-12.1-6.5-16-0.7c-1.5-1.3-2.5-3.1-4.6-3.8c-2.3-0.7-4.7,0-6.8,1
								c-3.1,1.4-6.1,4-4.3,7.5c0.3,0.5,1,0.3,1.2-0.2c1.2-3.6,6.9-6.8,10.3-4.1c1.5,1.2,2.1,2.8,3.9,3.7c0.8,0.4,2.1,0.3,2.5-0.7
								c2-4.6,7.6-5.4,10.4-0.8C611.3,590.3,614.7,588.3,613.4,586.2z"/>
							<path fill="#8EC3CB" d="M623.8,573.5c-1.1-8.9-12.4-10.4-17.9-4.6c-3.6-2.6-9.2-3.4-10,2.3c-0.2,1.2,1.5,1.3,2.1,0.6
								c2.2,0.3,4.3,0.6,6.5,0.9c0.9,1.1,2.5,1.3,3.3,0c2.2-3.5,10.8-5,11.4,0.9C619.4,576.4,624.1,576.4,623.8,573.5z"/>
							<path fill="#7FC5A3" d="M599.4,552.2c-6.3-5.1-15.5-5-22.9-2.3c0.4-0.8,0.6-1.6,0.9-2.4c2.2-1.6,4.6-2.9,7.3-3.7
								c3.6-1,7.8,0,11.2-1.3c0.5-0.2,0.7-0.8,0.3-1.2c-3.3-3.1-9.8-1.7-13.7-0.4c-1.6,0.5-3,1.2-4.4,2c0.3-4.7-0.7-9.6-2.5-13.3
								c-0.6-1.4-2.7-0.4-2.4,1c0.9,3.4,1.6,6.8,1.4,10.4c-0.1,1.8-0.4,3.4-0.8,5c-0.7,0.6-1.3,1.2-1.9,1.8c-1.3-3.5-2-7.1-4.9-10.1
								c-2.8-2.9-7.6-5.5-11.7-4c-0.6,0.2-0.7,1.1,0,1.3c5,1.7,8.9,3.1,11.5,8.1c0.8,1.5,1.1,3.3,1.5,5c-1.9-0.3-3.9-0.3-6,0
								c-3.3,0.4-8.6,1-9.3,5c-0.1,0.6,0.4,1.1,1,0.8c3.8-2.1,11.2-4.6,15.6-2.1c-2,1.1-3.9,2.2-5.7,3.5c-2.1,1.6-5,3.3-5.8,6
								c-0.2,0.7,0.5,1.3,1.2,1.2c2.7-0.5,5-3.1,7.3-4.6c1.1-0.7,2.3-1.4,3.4-2.1c0.8,2.2,1.6,4.2,1.5,6.8c-0.1,3-1.1,5.9-1.4,8.9
								c-0.1,1.2,1.5,1.3,2,0.5c2.9-4.2,4.6-12.4,1.6-17.3c0.3,0,0.7,0,1.1-0.2c0.3-0.2,0.6-0.3,0.9-0.4c2.6,0.8,5.3,3.2,6.8,4.9
								c2.3,2.5,2.2,5,2.7,8.2c0.1,0.7,1.2,1,1.7,0.4c2.8-3.3,0.6-8.3-1.9-11.2c-1.2-1.4-2.7-2.8-4.4-4c5.8-1.2,11.3-0.1,17.5,1.6
								C599.3,554.3,600.3,552.9,599.4,552.2z"/>
						</g>
					</g>
					<g>
						<path fill="#EBB044" d="M677.8,488.4c-0.1-0.2-0.2-0.5-0.3-0.7c-0.5-1.1-1.8-1.1-2.7-0.7c-5.2,2.4-7.8,13.2-9.2,18.2
							c-1.9,6.6-4.4,16.1-2.6,22.9c0.5,1.8,3.1,1.8,3.6,0c1.8-6.1,1.2-12.9,2.7-19.1c0.7-2.9,1.5-5.7,2.5-8.5
							c0.8-2.3,2.6-9.2,5.1-10.1C677.8,490,678.1,489.2,677.8,488.4z"/>
						<g>
							<path fill="#CCD2D9" d="M637.1,567c-0.6-3.1-4.2-4.6-7.1-3.7c-3,0.9-5,4.3-4.3,7.4c0.7,2.6,3.1,4.4,5.7,4.4
								c0.1,0,0.3,0,0.4,0l0,0c2.1-0.1,4.1-1.4,4.9-3.6c0.3-0.7,0.3-1.5,0.3-2.2C637.2,568.6,637.3,567.8,637.1,567z"/>
							<path fill="#8EC3CB" d="M688.8,561.1c-4-6.5-12.1-6.5-16-0.7c-1.5-1.3-2.5-3.1-4.6-3.8c-2.3-0.7-4.7,0-6.8,1
								c-3.1,1.4-6.1,4-4.3,7.5c0.3,0.5,1,0.3,1.2-0.2c1.2-3.6,6.9-6.8,10.3-4.1c1.5,1.2,2.1,2.8,3.9,3.7c0.8,0.4,2.1,0.3,2.5-0.7
								c2-4.6,7.6-5.4,10.4-0.8C686.8,565.3,690.2,563.3,688.8,561.1z"/>
							<path fill="#8EC3CB" d="M699.2,548.4c-1.1-8.9-12.4-10.4-17.9-4.6c-3.6-2.6-9.2-3.4-10,2.3c-0.2,1.2,1.5,1.3,2.1,0.6
								c2.2,0.3,4.3,0.6,6.5,0.9c0.9,1.1,2.5,1.3,3.3,0c2.2-3.5,10.8-5,11.4,0.9C694.9,551.4,699.5,551.3,699.2,548.4z"/>
							<path fill="#7FC5A3" d="M702.1,489c-6.3-5.1-15.5-5-22.9-2.3c0.4-0.8,0.6-1.6,0.9-2.4c2.2-1.6,4.6-2.9,7.3-3.7
								c3.6-1,7.8,0,11.2-1.3c0.5-0.2,0.7-0.8,0.3-1.2c-3.3-3.1-9.8-1.7-13.7-0.4c-1.6,0.5-3,1.2-4.4,2c0.3-4.7-0.7-9.6-2.5-13.3
								c-0.6-1.4-2.7-0.4-2.4,1c0.9,3.4,1.6,6.8,1.4,10.4c-0.1,1.8-0.4,3.4-0.8,5c-0.7,0.6-1.3,1.2-1.9,1.8c-1.3-3.5-2-7.1-4.9-10.1
								c-2.8-2.9-7.6-5.5-11.7-4c-0.6,0.2-0.7,1.1,0,1.3c5,1.7,8.9,3.1,11.5,8.1c0.8,1.5,1.1,3.3,1.5,5c-1.9-0.3-3.9-0.3-6,0
								c-3.3,0.4-8.6,1-9.3,5c-0.1,0.6,0.4,1.1,1,0.8c3.8-2.1,11.2-4.6,15.6-2.1c-2,1.1-3.9,2.2-5.7,3.5c-2.1,1.6-5,3.3-5.8,6
								c-0.2,0.7,0.5,1.3,1.2,1.2c2.7-0.5,5-3.1,7.3-4.6c1.1-0.7,2.3-1.4,3.4-2.1c0.8,2.2,1.6,4.2,1.5,6.8c-0.1,3-1.1,5.9-1.4,8.9
								c-0.1,1.2,1.5,1.3,2,0.5c2.9-4.2,4.6-12.4,1.6-17.3c0.3,0,0.7,0,1.1-0.2c0.3-0.2,0.6-0.3,0.9-0.4c2.6,0.8,5.3,3.2,6.8,4.9
								c2.3,2.5,2.2,5,2.7,8.2c0.1,0.7,1.2,1,1.7,0.4c2.8-3.3,0.6-8.3-1.9-11.2c-1.2-1.4-2.7-2.8-4.4-4c5.8-1.2,11.3-0.1,17.5,1.6
								C702,491,702.9,489.7,702.1,489z"/>
						</g>
					</g>
					<g>
						<path fill="#EBB044" d="M557.3,460.2c-0.1-0.2-0.2-0.5-0.3-0.7c-0.5-1.1-1.8-1.1-2.7-0.7c-5.2,2.4-7.8,13.2-9.2,18.2
							c-1.9,6.6-4.4,16.1-2.6,22.9c0.5,1.8,3.1,1.8,3.6,0c1.8-6.1,1.2-12.9,2.7-19.1c0.7-2.9,1.5-5.7,2.5-8.5
							c0.8-2.3,2.6-9.2,5.1-10.1C557.4,461.9,557.7,461.1,557.3,460.2z"/>
						<g>
							<path fill="#8EC3CB" d="M595.7,494.8c-4-6.5-12.1-6.5-16-0.7c-1.5-1.3-2.5-3.1-4.6-3.8c-2.3-0.7-4.7,0-6.8,1
								c-3.1,1.4-6.1,4-4.3,7.5c0.3,0.5,1,0.3,1.2-0.2c1.2-3.6,6.9-6.8,10.3-4.1c1.5,1.2,2.1,2.8,3.9,3.7c0.8,0.4,2.1,0.3,2.5-0.7
								c2-4.6,7.6-5.4,10.4-0.8C593.6,498.9,597,496.9,595.7,494.8z"/>
							<path fill="#8EC3CB" d="M606,482.1c-1.1-8.9-12.4-10.4-17.9-4.6c-3.6-2.6-9.2-3.4-10,2.3c-0.2,1.2,1.5,1.3,2.1,0.6
								c2.2,0.3,4.3,0.6,6.5,0.9c0.9,1.1,2.5,1.3,3.3,0c2.2-3.5,10.8-5,11.4,0.9C601.7,485,606.4,485,606,482.1z"/>
							<path fill="#7FC5A3" d="M581.6,460.8c-6.3-5.1-15.5-5-22.9-2.3c0.4-0.8,0.6-1.6,0.9-2.4c2.2-1.6,4.6-2.9,7.3-3.7
								c3.6-1,7.8,0,11.2-1.3c0.5-0.2,0.7-0.8,0.3-1.2c-3.3-3.1-9.8-1.7-13.7-0.4c-1.6,0.5-3,1.2-4.4,2c0.3-4.7-0.7-9.6-2.5-13.3
								c-0.6-1.4-2.7-0.4-2.4,1c0.9,3.4,1.6,6.8,1.4,10.4c-0.1,1.8-0.4,3.4-0.8,5c-0.7,0.6-1.3,1.2-1.9,1.8c-1.3-3.5-2-7.1-4.9-10.1
								c-2.8-2.9-7.6-5.5-11.7-4c-0.6,0.2-0.7,1.1,0,1.3c5,1.7,8.9,3.1,11.5,8.1c0.8,1.5,1.1,3.3,1.5,5c-1.9-0.3-3.9-0.3-6,0
								c-3.3,0.4-8.6,1-9.3,5c-0.1,0.6,0.4,1.1,1,0.8c3.8-2.1,11.2-4.6,15.6-2.1c-2,1.1-3.9,2.2-5.7,3.5c-2.1,1.6-5,3.3-5.8,6
								c-0.2,0.7,0.5,1.3,1.2,1.2c2.7-0.5,5-3.1,7.3-4.6c1.1-0.7,2.3-1.4,3.4-2.1c0.8,2.2,1.6,4.2,1.5,6.8c-0.1,3-1.1,5.9-1.4,8.9
								c-0.1,1.2,1.5,1.3,2,0.5c2.9-4.2,4.6-12.4,1.6-17.3c0.3,0,0.7,0,1.1-0.2c0.3-0.2,0.6-0.3,0.9-0.4c2.6,0.8,5.3,3.2,6.8,4.9
								c2.3,2.5,2.2,5,2.7,8.2c0.1,0.7,1.2,1,1.7,0.4c2.8-3.3,0.6-8.3-1.9-11.2c-1.2-1.4-2.7-2.8-4.4-4c5.8-1.2,11.3-0.1,17.5,1.6
								C581.6,462.9,582.5,461.5,581.6,460.8z"/>
						</g>
					</g>
					<path fill="#CCD2D9" d="M635.1,453.1c-0.6-0.5-1.3-0.9-2.1-1.2c-1.5-0.9-3.4-1.1-5.1-0.4c-2.3,0.4-4.3,1.5-4.9,3.5
						c-0.5,1.5,0,2.6,0.9,3.5c0,0.1,0.1,0.2,0.1,0.3c0,0.3,0.1,0.7,0.2,1c0.6,2.3,3,3.1,5.1,3c1.9-0.1,3.8-0.9,5-2.2
						c0.6-0.4,1.2-0.9,1.6-1.5C637.2,457.1,636.9,454.7,635.1,453.1z"/>
				</g>
			</g>
		</g>
		<g>
			<g>
				<g>
					<path fill="#EAC1A4" d="M776.7,695c-3.1,0.2-6-0.9-9-1.2c0.1-10.7,1.3-20.9,3.6-31.4c4.7,5.2,8.7,2.2,8.5,12
						C779.8,677.5,776.1,690.2,776.7,695z"/>
					<path fill="#3B455A" d="M767.1,688.5c-3.5-1.3-4.3,7.2-4.4,9.2c0,1.2,0.1,2.4-0.2,3.6c-0.3,1.3-1.2,2.3-2,3.4
						c-1.7,2.2-3.4,4.3-5.1,6.5c-0.8,1-1.6,2-2,3.1c-1,2.9,0.7,6.3,3.4,7.7c9.5,4.8,18.2-6.8,20.3-14.5c0.3-1.2,0.5-2.4,0.8-3.6
						c0.5-2.5,2.4-7.9,1.4-10.3c-1.1-2.8-4.6-0.8-6.9-1.8C770.2,690.8,768.5,689,767.1,688.5z"/>
				</g>
				<path fill="#3B455A" d="M834.6,519.2c-8.9,24.1-19.1,47.8-24.9,73c-7.2,31.2-18.8,61.7-24.8,93c-3.9,0.1-7.7,0-11.5-0.5
					c-4.4-0.5-11.4-1.7-12.9-6.5c-0.8-2.5,0-6.4,0.2-9c0.4-8.2,1-16.3,1.6-24.4c1.7-23,2.9-46.4,7.1-69.1
					c4.5-23.9,8.7-47.9,12.6-71.8c2-12.3,4.5-24.6,7.6-36.7c0.8-3.1,9-35.3,10.6-35.1c19.2,3.1,37.2,9.4,53.9,19.3
					c1.6,1,3.2,2.1,3.8,3.8c0.6,1.7,0.1,3.2-0.5,4.8c-5,14.8-11.7,28.8-17,43.6C838.5,508.8,836.6,513.9,834.6,519.2z"/>
			</g>
			<g>
				<g>
					<path fill="#EAC1A4" d="M839.8,689.6c2.9,1.1,6,0.9,8.9,1.5c3-10.2,5-20.3,5.9-31.1c-6,3.6-8.9-0.5-11.7,8.9
						C842.1,671.9,841.8,685.1,839.8,689.6z"/>
					<path fill="#3B455A" d="M851.8,688c0,5.8,4.6,12,7.1,17.2c0.3,0.6,0.6,1.2,0.6,1.9c0,1-0.6,1.9-1.2,2.7c-0.8,1.1-1.7,2.3-3,2.8
						c-1.3,0.5-2.7,0.3-4.1,0c-2.3-0.5-4.5-1.1-6.7-1.8c-0.5-0.2-1.1-0.4-1.6-0.7c-0.5-0.4-0.8-1.1-1.2-1.7
						c-1.6-3.1-2.9-5.3-2.8-8.8c0.1-3.6,0.5-7.3-0.1-10.9c-0.3-1.7-0.8-3.9,0.7-4.9c1.1-0.7,3.2,0.3,4.5,0.5
						c2.2,0.4,4.2,0.2,6.3,1.4c0.4,0.2,0.8,0.5,1.1,0.9C851.7,687,851.8,687.5,851.8,688z"/>
				</g>
				<path fill="#3B455A" d="M836.8,504.5c1.3,25.7,4,51.3,2.1,77.2c-2.4,32-0.4,64.5-4,96.1c3.6,1.3,7.4,2.3,11.2,3
					c4.3,0.8,11.4,1.8,14.3-2.4c1.5-2.1,1.9-6.2,2.5-8.6c2-7.9,3.9-15.9,5.8-23.8c5.2-22.5,11.1-45.1,13.8-68.1
					c2.8-24.1,5.9-48.3,9.3-72.3c1.7-12.4,3-24.8,3.7-37.3c0.2-3.2,1.9-36.4,0.3-36.7c-19.2-2.8-38.3-2.1-57.2,2.4
					c-1.8,0.4-3.7,1.1-4.7,2.5c-1,1.5-1,3-1,4.7c0.4,15.7,2.6,30.9,3.3,46.6C836.3,493.4,836.5,498.8,836.8,504.5z"/>
			</g>
			<path fill="#F7F7F7" d="M826,298.3c-0.3,0.1-0.6,0.2-0.9,0.3c-5.2,2-9.6,5.5-13.9,9c-6.5,5.2-9.6,7.5-12.1,15.2
				c-2.3,7.2-3.8,14.8-5.2,22.2c-7.3,38.1-8.7,76-14,114.4c-1.4,10.4-2.5,22.7,5.2,29.9c13.7-10.7,30.9-11.3,47.6-11.3
				c11.7,0,23.1-3.8,34.8-2.5c11.2,1.2,21-1.6,32.3-0.8c2.7,0.2,6.2,0.1,7.3-2.4c-3.9-11.8-3.9-24.4-4.8-36.8
				c-2.3-32-12.9-62.8-17.2-94.6c-1.5-10.8-2.2-28.8-10.6-36.9c-9.1-8.9-29.9-9.1-41.6-7.3C830.6,297,828.3,297.5,826,298.3z"/>
			<g>
				<path fill="#EAC1A4" d="M774.1,208.1c1.1,0.2,2.2,1.3,2.3,2.4c0.2,1.7-0.8,3.2-1.7,4.7c-3.7,5.7-7.9,11-9.9,17.4
					c-1.1,3.5-1.5,10-6.6,9.9c-1.2,0-2.5,0-3.6-0.5c-0.9-0.4-1.7-1-2.5-1.6c-0.6-0.5-1.7-1.2-1.7-1.9c-0.3-4.3,2.6-11,3.2-15.4
					c0.3-2.7,5-35.4,6.4-35.1c2.2,0.4,4.4,0.8,6.7,1.2c0.4,0.1,0.9,0.2,1.2,0.5c0.4,0.4,0.5,0.9,0.6,1.5c0.7,4.7,0.5,9.6-0.5,14.3
					c-0.3,1.2-0.6,2.5-0.2,3.8c0.4,1.2,1.8,2.2,2.9,1.6c0.9-0.5,1.1-1.7,2-2.3C773.2,208.2,773.6,208.1,774.1,208.1z"/>
				<path fill="#F7F7F7" d="M734.4,285.9c4.7-20.7,13.5-56.8,17.8-56.2c6.8,1,13.3,3.4,19.1,7c-3.4,14.6-8.5,30-7.1,45.1
					c1.2,12.4,13.4,14.8,23.7,16.3c14.3,2,27.9,3.9,42.5,4.7c1,0.1,2,0.1,2.8,0.8c0.8,0.7,1,1.9,1.1,2.9c0.2,2.3,0.1,4.5-0.2,6.8
					c-0.8,8.4-3.3,16.9-8.5,23.5c-5.2,6.6-13.5,11.2-22,10.5c-4.8-0.4-9.4-2.3-13.9-4.3c-9.6-4.2-17.7-10.6-26.6-16.1
					c-10.5-6.5-20.4-13.9-29.8-21.9c-0.8-0.7-1.7-1.5-2-2.6c-0.2-0.8-0.1-1.8,0.1-2.6C731.6,298.6,732.8,293.2,734.4,285.9z"/>
			</g>
			<g>
				<g>
					<g>
						<g>
							<path fill="#EAC1A4" d="M834.7,297.7c0.2,0.4,0.4,0.7,0.8,1.1c1.4,1.3,3.2,2.1,5.1,2.4c2.5,0.4,5-0.1,7.4-0.5
								c3.3-0.6,3.2-2.6,3.7-5.6c0.3-1.6,0.4-3.3,0.5-4.9c0.1-0.9-0.3-4.2,0.3-4.8c0.4-0.4,2-0.3,2.7-0.7c1.1-0.6,2-1.6,2.7-2.7
								c1.1-1.7,1.7-3.6,2.2-5.5c1-3.3,2-6.6,3-9.9c1-3.4,2.1-6.8,2.4-10.3c0.5-5.3-0.4-12.8-4.4-16.6c-3.6-3.5-9-4.8-13.8-5.4
								c-6.5-0.8-13.2,0.4-18.7,3.8c-2.3,1.4-4.4,3.2-5.7,5.7c-2.1,3.8-1.9,8.6-1.7,13c0.2,4.1,0.4,8.2,0.6,12.3
								c0.2,4.7,0.8,10.2,4.4,12.7c1.9,1.4,4.3,1.6,5.9,3.4c2,2.2,1.9,5.5,2,8.2C834.1,294.9,834,296.4,834.7,297.7z"/>
						</g>
						<path fill="#3B455A" d="M855.1,244.7c0.2,0.4,0.4,0.8,0.6,1.2c0.8,2.2,0.2,4.6,1,6.8c1.2,3.5,5.2,5.5,5.8,9.1
							c0.5,2.9-1.5,5.7-1.7,8.7c-0.2,3.3,1.9,6.3,1.6,9.5c-0.3,2.8-2.1,6.7-3.7,8.9c0.5-0.7,5.2-0.4,6.4-1.2
							c1.9-1.1,2.1-1.8,2.6-3.8c0.5-1.9,0.1-3.8,1-5.8c1-2.4,3.2-4.2,4-6.8c1-3.5-0.8-7.2-0.7-10.9c0.2-5.5,5-10.8,3.3-16
							c-1-3.1-4-5.1-5.7-7.8c-1.3-2.1-1.8-4.6-2.6-6.9c-0.9-2.3-2.4-4.6-4.8-5.3c-1.3-0.4-2.7-0.2-4.1-0.5c-2.3-0.4-4.3-2-6.5-2.8
							c-3.2-1.1-8.9,2.2-10.8,4.9c-1.9,2.7-0.9,5,1,7.4C844.9,237.6,852.5,240.2,855.1,244.7z"/>
					</g>
					<path fill="#3B455A" d="M811.9,228.4c-1.9,1.4-4.3,2.4-6.1,4.1c-3.4,3.2-4.1,8.4-4.2,13.1c-0.1,4.2-1.9,7.9-1.5,12.3
						c0.3,2.9,1.5,5.9,3.9,7.6c3,2.2,7.6,2.5,9,5.9c1.4,3.7-2.4,8.4-0.1,11.6c1.3,1.8,3.8,2,5.7,3.2c2.1,1.3,3.1,3.7,4.4,5.8
						c1.3,2.1,3.1,4.2,5.6,4.3c0.1-3.7,0.2-6.7-1.4-10.1c-0.9-2-3.7-5.7-1.6-7.8c1.3-1.8,4.4-2.4,4.5-4.6c0-1-0.7-1.9-1.3-2.8
						c-2.2-3.4-2.5-7.9-0.9-11.6c1.5-3.8,4.6-6.7,8.3-8.5c4.3-2.1,3.6-3.1,4.8-7.2c1.1-3.8,3.3-4.6,6.7-6c3-1.2,4-2,5.1-4.8
						c0.8-2.1,1.8-4.6,0.6-6.9c-0.9-1.8-2.6-3.2-4.3-4.4c-3.4-2.6-7.3-5.4-11.6-5.1c-2.4,0.2-4.7,1.3-7.1,1.4
						c-1.6,0.1-3.2-0.3-4.8-0.3c-2.7-0.1-5.6,0.7-7.8,2.4c-2.2,1.6-2.2,3.4-3.4,5.7C813.8,226.7,812.9,227.6,811.9,228.4z"/>
					<path fill="#3B455A" d="M821.5,213c0.4-2.6,0.2-6-2.3-6.9c-1.4-0.5-2.9,0-4.3-0.2c-3-0.6-4-4.3-5.6-6.9c-0.2-0.4-0.5-0.8-0.9-1
						c-0.6-0.3-1.3,0-1.9,0c-3,0.4-5.3-2.6-8.1-3.7c-3.5-1.3-7.9,0.9-8.9,4.4c-0.4,1.5-0.4,3.1-0.8,4.5c-1.6,6-10.4,8.6-10.7,14.8
						c-0.2,4.2,4,8.2,2.4,12.1c-1,2.5-4.2,4.2-3.9,6.8c0.2,1.7,2.1,2.9,3.8,2.9c1.7,0,3.3-1,4.6-2.1c2.1-1.8,3.6-4.1,5.6-6
						c2-1.9,4.6-3.5,7.3-3.1c2.6,0.3,5,2.4,7.6,1.9c2.1-0.4,3.7-2.2,5.7-2.7c1.9-0.5,3.9,0.3,5.9,0.4c2,0.1,4.4-0.9,4.5-2.9
						c0-0.5-0.1-1,0-1.4c0.4-1.3,2.6-1.2,3-2.5c-1-1.6-2.5-1-3.2-3.1C820.8,216.8,821.3,214.7,821.5,213z"/>
				</g>
			</g>
			<g>
				<g>
					<g>
						<path fill="#CCD2D9" d="M849.5,167.1l-8.4,2.1l-1.3-5.2c0-0.1,0-0.2,0.1-0.2l8-2c0.1,0,0.2,0,0.2,0.1L849.5,167.1z"/>
						<path fill="#CCD2D9" d="M872.1,161l-20.7,5.2l-1.6-6.2c0-0.1,0-0.2,0.1-0.2l20.4-5.1c0.1,0,0.2,0,0.2,0.1L872.1,161z"/>
						<path fill="#CCD2D9" d="M970.2,137.2l-20.7,5.2l-1.6-6.2c0-0.1,0-0.2,0.1-0.2l20.4-5.1c0.1,0,0.2,0,0.2,0.1L970.2,137.2z"/>
					</g>
					<g>
						<path fill="#B3B8BC" d="M1014.6,244.3l-159,39.8c-0.4,0.1-0.7-0.1-0.8-0.5L827,172.7c-0.1-0.4,0.1-0.7,0.5-0.8l159-39.8
							c0.4-0.1,0.7,0.1,0.8,0.5l27.8,110.9C1015.2,243.8,1015,244.2,1014.6,244.3z"/>
						
							<rect x="840.3" y="174.5" transform="matrix(0.97 -0.2431 0.2431 0.97 -24.6982 230.8065)" fill="#3B455A" width="165.2" height="82"/>
					</g>
					<polygon fill="#CCD2D9" points="883.5,183.3 882.8,158.8 890.5,140.8 917.2,134.1 931.3,146.6 942.5,168.5 					"/>
					<path fill="#FFFFFF" d="M865,181.7l-25.1,6.3c-0.1,0-0.2,0-0.3-0.2l-2.3-9.2c0-0.1,0-0.2,0.2-0.3l25.1-6.3c0.1,0,0.2,0,0.3,0.2
						l2.3,9.2C865.2,181.6,865.1,181.7,865,181.7z"/>
					
						<ellipse transform="matrix(0.97 -0.2431 0.2431 0.97 -16.0693 217.6428)" fill="#3B455A" cx="874" cy="173.9" rx="4.7" ry="4.6"/>
					<path fill="#FFFFFF" d="M976.6,200.1c-0.4-0.2-0.8-0.4-1.2-0.5l-1.9-7.7c-0.3-1.2-1.5-1.9-2.8-1.6c-1.2,0.3-2,1.5-1.7,2.7
						l1.9,7.7c-0.3,0.3-0.6,0.6-0.8,1c-1.3,2.2-0.6,5,1.6,6.3c2.2,1.3,5.1,0.6,6.5-1.6C979.5,204.1,978.8,201.3,976.6,200.1z"/>
					<polygon opacity="9.000000e-002" fill="#000100" points="883.5,183.3 888.1,197.1 946.2,183.4 942.5,168.5 					"/>
					<path opacity="0.15" fill="#000100" d="M960.5,193.2c-2.4-2.9-5.2-5.4-8.3-7.6c0.5,0.6,1,1.1,1.5,1.7
						c5.3,6.4,8.3,14.4,8.8,22.6c0.1,2.1,0.1,4.1-0.1,6.2c-0.8,8.1-4.3,16-9.7,22.2c-5.4,6.2-12.8,10.8-20.8,12.9
						c-8.3,2.2-17.2,1.8-25.3-1.1c-3.2-1.2-6.2-2.7-9-4.6c4.3,4.6,9.7,8.3,15.8,10.5c8,2.9,16.9,3.3,25.3,1.1
						c8-2.1,15.4-6.7,20.8-12.9c5.5-6.3,8.9-14.1,9.7-22.2c0.2-2.1,0.3-4.1,0.1-6.2C968.9,207.6,965.8,199.6,960.5,193.2z"/>
					<g>
						<g>
							<g>
								
									<ellipse transform="matrix(0.97 -0.2431 0.2431 0.97 -24.2367 230.8396)" fill="#3B455A" cx="923.3" cy="213.6" rx="40.7" ry="39.5"/>
								
									<ellipse transform="matrix(0.97 -0.2431 0.2431 0.97 -24.2367 230.8391)" fill="#FFFFFF" cx="923.3" cy="213.6" rx="35" ry="34"/>
							</g>
							<path fill="#CCD2D9" d="M951.3,182c-6.5-5.4-14.6-8.8-23.2-9.6c-8.8-0.9-18,1.1-25.7,5.5c-7.5,4.2-13.6,10.7-17.4,18.3
								c-3.8,7.7-5.1,16.4-3.7,24.7c1.4,8.5,5.6,16.4,11.8,22.4c6,5.8,13.9,9.8,22.4,11.3c8.8,1.5,17.9,0.2,26-3.6
								c7.8-3.7,14.4-9.7,18.7-17c4.4-7.4,6.4-16,5.6-24.4c-0.2-2.1-0.5-4.2-1.1-6.3C962.6,195,957.9,187.5,951.3,182z M961.1,227.8
								c-3,7.4-8.4,14-15.2,18.5c-7.1,4.7-15.6,7.2-24.2,7c-8.2-0.2-16.2-2.9-22.8-7.5c-13.7-9.7-19.6-27.5-14.5-43.5
								c2.5-7.6,7.3-14.5,13.7-19.5c6.7-5.2,15.1-8.3,23.6-8.7c16.8-0.8,32.6,8.8,39.1,23.8c0.8,1.9,1.5,3.9,2,5.8
								C964.8,211.7,964.2,220.1,961.1,227.8z"/>
						</g>
						
							<ellipse transform="matrix(0.97 -0.2431 0.2431 0.97 -24.2367 230.8395)" fill="#3B455A" cx="923.3" cy="213.6" rx="22.6" ry="22"/>
					</g>
				</g>
			</g>
			<g>
				<path fill="#EAC1A4" d="M931.3,241.8c-0.5,0-1,0-1.5,0.1c-0.3,0-0.6,0-0.9,0.2c-0.3,0.1-0.5,0.4-0.7,0.6
					c-2.2,2.5-3.7,5.3-5.2,8.3c-0.6,1.1-0.7,1.2-0.1,2.4c0.6,1.3,1.3,2.6,2,3.8c0.3,1.9,0.8,3.8,1,5.8c0.5,4.9-3.8,15.9,1.9,18.4
					c1.1,0.5,2.3,1,3.4,1c1,0,1.9-0.3,2.8-0.6c0.7-0.3,1.9-0.5,2.2-1.2c0.3-0.8-0.1-2.9-0.1-3.8c-0.1-2.5-0.1-5-0.2-7.6
					c-0.1-2.5,0.1-5.4,1.9-6.7c0.4-0.3,0.9-0.5,1.2-0.8c0.4-0.4,0.7-1,0.9-1.5c0.8-2,1.5-4.2,1.9-6.4c0.3-2-0.8-3-1.8-4.6
					c-1-1.6-1.1-3.6-1.9-5.3c-0.9-1.7-2.5-2-4.3-2.1C933,241.8,932.1,241.8,931.3,241.8z"/>
				<path fill="#F7F7F7" d="M935.7,335.4c0.8-5.2,1.6-10.6,2.7-16c3.1-15.2,4.1-31,2.9-46.6c-6.5-1.7-13.3-2.1-19.8-0.9
					c0.1,0-8.1,36.3-9.8,40c-4.5,9.4-4.2,8.3-12.5,4.3c-7.3-3.5-14-8.8-21.1-12.7c-6.9-3.7-14.5-7.2-22.3-6.2c-0.7,9-1.1,18-1.1,27
					c0,3.2,0,6.5,1.2,9.5c1.1,2.9,3.2,5.3,5.3,7.6c12.8,14.5,26.2,29.5,43.7,37.6c0.9,0.4,1.8,0.8,2.7,0.9c1.5,0.1,2.9-0.7,4.2-1.4
					C928.3,369.4,932.8,353.3,935.7,335.4z"/>
			</g>
		</g>
		<path fill="#CCD2D9" d="M265.8,489.9c-0.1-6.2-0.3-12.5-0.8-18.7c-3.2-48-17.3-96.9-37.2-140.6c-7.2-15.7-20.4-46.2-38-52.2
			c-12.2-4.1-27.9-2.2-39.4,3.3c-0.2,0.1-0.5,0.2-0.7,0.3c-10.9,5.4-18.1,25.8-22.2,37.8c-7.7,22.4-11.5,45.9-12.2,69.5
			c-0.8,24.5-3,49.4-4.1,73.6c-0.5,10.1-0.8,20.2-0.8,30.3c0.1,37.2,0.2,74.3,0.3,111.5c3.5,0.4,7.1,0.8,10.6,1.2
			c0.5,0.3,1.1,0.6,1.7,0.9c8.2,3.6,17.5,2.7,26.4,2.2c36.1,4,65.9-2.2,102,1.8c5.6-19.5,8.5-26.6,9-46.9
			C261,540.2,266.2,513.4,265.8,489.9z"/>
		<g>
			<path fill="#EAC1A4" d="M287.3,248.5c4-8.3,7.5-15.8,7.1-15.8l-6.8-2.8l-6.4,10.4l-2.6-2.8c-3.1,14.2-9.6,21-19.9,31.4
				c-1.1,1.1-2.2,2.7-1.3,4c0.3,0.4,0.8,0.7,1.3,0.9c2.2,0.9,4.4,1.9,6.5,2.8c1.2,0.5,2.5,1.1,3.9,1.1c3.8,0,6-4,7.7-7.4
				C276.7,270.1,282.4,258.7,287.3,248.5z"/>
			<polygon fill="#CCD2D9" points="190.2,277.5 228.8,288.1 253.8,257.2 294.2,278.3 234.5,355.2 197.4,312.1 			"/>
		</g>
		<g>
			<g>
				<polygon fill="#EAC1A4" points="136.1,478.7 142.3,590.5 139.7,675 152.5,679.6 167.1,604.1 197.4,466.4 				"/>
			</g>
			<polygon fill="#3B455A" points="152.4,681.9 153.5,690.5 149.6,706.5 138.9,705.2 137.9,681.1 139.6,677.4 			"/>
		</g>
		<g>
			<polygon fill="#EAC1A4" points="240.9,479.5 231.4,575.8 201.8,709.6 188.7,708.9 199.5,584.2 187.1,468.2 			"/>
			<polygon fill="#3B455A" points="201.7,707.3 218,718.9 215.6,726.9 185.2,719.2 188.2,707.5 			"/>
		</g>
		<polygon fill="#3B455A" points="245.3,572.7 244.2,489.5 233.3,450.4 195,447.1 195.5,442.5 144.7,430.6 136.6,464.6 131.2,541.8 
			126.6,562.5 181.9,570.1 187.4,518.9 188.7,575.8 		"/>
		<path fill="#F7F7F7" d="M234.6,448.3c-38.8,1.8-68.7-4-97,5.9c0.6-0.2-1.9-33.8-1.9-37.2c0.1-12,1-23.9,2.3-35.9
			c1.4-11.9,3.2-21.4,7.4-32.7c4.6-12.3,7.6-24.9,9.1-37.7c0.7-5.8,1-11.7,2.7-17.4c2.1-7.4,5.5-13.5,13.7-15
			c7.1-1.3,16.8-0.8,21,5.2c9.5,13.6,12.9,36.5,17.8,52.3C221,371.4,226.5,411.8,234.6,448.3z"/>
		<g>
			<path fill="#EAC1A4" d="M144.2,239.7c6.5-21.3,36.8-29.3,44.3-4.8c2.3,7.3,3.7,15.2,2.4,22.8c-1.3,7.6-5.7,14.9-12.6,18.2
				c0,0-0.1,0-0.1,0c-0.8,0.3,4.9,12.4,5.3,13.4c1.6,4.3,2.8,8.8,2.6,13.4c-0.4,7.3-4.5,13.8-8.4,20c-4.3-5.4-8.4-11.1-12.2-16.8
				c-1.2-1.9-2.5-3.8-3-6c-0.5-2.5,0-5.1,0.3-7.7c0.5-3.4,0.6-6.9,0.4-10.4c-0.2-3.8-0.1-4.4-2.8-6.4c-3.8-2.9-7.3-5-10.3-9
				C144.6,259,141.4,248.8,144.2,239.7z"/>
			<g>
				<path fill="#3B455A" d="M187.9,241.6c3.2,5.6,2.7,12.3,1.6,18.4c-1.1,6-0.6,11.9-2.3,17.8c0.6,1,2.1,0.4,3-0.3
					c5.4-3.8,10.7-7.7,16-11.6c0.5-0.4,1.1-0.8,1.4-1.4c0.4-0.7,0.4-1.6,0.4-2.5c-0.5-16.8-6.6-29.2-15.4-42.8
					c-4.3-6.6-16.2-14.2-23.4-6.8c-1.6,1.7-2.3,4.1-2.8,6.4c-0.3,1.4-0.6,2.8-0.3,4.2c1,5.5,6.2,5.4,10.1,7.3
					C181,232.7,185.2,236.8,187.9,241.6z"/>
				<path fill="#3B455A" d="M149.3,251.1c-0.2,4.8,0.7,10.3,2,15c0.4,1.6,3.3,5.4,3.4,6.5c0.1,3.1-6.5,10.1-8.3,12.8
					c-9.7-5.9-19.5-11.8-29.2-17.8c-0.7-0.5-1.5-0.9-1.9-1.7c-0.4-0.7-0.4-1.5-0.4-2.3c0.1-15.8,4.7-29.8,11.3-43.8
					c6.6-14,20.5-25,36.3-23.4c12.8,1.3,21.4,11.1,16.2,24.1c-3.9,9.8-16.4,11.4-23.4,18C150.7,242.4,149.4,246.6,149.3,251.1z"/>
			</g>
		</g>
		<path fill="#EAC1A4" d="M554.8,312.8c-0.1,2.3-0.2,4.5-0.2,6.8c-0.8,45.9,1.7,92.4,2,138.8c23.7-3.7,47.7-5.8,71.7-6.1
			c5.6-0.1,30.8,3.8,34.3,0.5c4.8-4.5-0.5-3.7-0.1-9.5c0.5-7.6-3.2-13.8-1.8-22.8c1.6-10.6,4.8-21,6.7-31.6
			c3.7-21.2,6-42.6,6.7-64.1c0.6-19.1,0-38.8-8.2-56.1c-20.2-42.5-85.4-41.7-103.3,2.6C557.2,284.3,555.4,298.6,554.8,312.8z"/>
		<path fill="#EAC1A4" d="M689.3,220c6.8-9.1,9.7-18.9,12.5-31.2c2.1-9.2,3.8-18.4,5.5-27.7c1.1-6.1,2.1-11.5,2.2-17.6
			c0-5.1,2.8-12.3-1.7-16.3c0.9-2.1,3.9-2.8,5.7-1.4c0.3,0.2,0.5,0.5,0.9,0.6c0.6,0.1,1.2-0.3,1.5-0.8c1-1.5,1.1-3.3,1.5-5.1
			c0.6-2.8,1.5-7.4,3.6-9.4c1.7-1.6,3.9-2.6,6.1-3.5c0.4-0.2,0.8-0.3,1.3-0.2c0.4,0.1,0.6,0.4,0.9,0.7c2.3,2.5,4.8,5,6.8,7.7
			c-3,2.6-3.5,6.4-5.2,9.8c-2.2,4.5-5,8-5.3,13.2c-0.5,8.1-0.3,16.2-0.9,24.4c-1.2,15.9-3.3,31.6-5.3,47.4
			c-1.4,10.4-2.8,21.1-6.9,30.9c-4.1,9.6-10,15.4-17.9,22.3c-1.8,1.6-3.7,3.2-6,3.9c-3.5,1.1-7.3-0.1-10.4-2.1
			c-8-5.4-11-17-6.6-25.6c2.4-4.6,6.5-8,10.3-11.5C684.6,225.6,687.1,222.8,689.3,220z"/>
		<path fill="#D34E4E" d="M628.4,253.2l-17.7,32.3c0.9,32.6,1.9,65.2,2.8,97.8c0.4,15,0.9,30,1.3,45.1c0.1,5.2,0.3,10.4,0.4,15.7
			c0.1,2.3-0.6,6.3,0.8,8.2c2.9,4.1,13.5,2.9,18.1,3.2c7.2,0.6,14.5,1.2,21.3,3.6c4.5,1.7,8.8,4.2,13.6,4.8c1.1,0.2,2.3,0.2,3.1-0.5
			c0.9-0.8,1.1-2.1,1.2-3.3c1.7-22.4,1.7-45.5,2.9-68.1c1-18.5,3.6-38.1,2-56.6c0-0.3-0.1-0.6-0.1-0.9c-1.6-8.9,0-38.4,0-38.4
			c0.1-1.2,4.3-4.4,5.1-5.3c4.2-4.4,8.4-8.7,12.6-13.1c8.4-8.7,24.6-19.4,18.1-33.4c-0.8-1.7-2-3.2-3.3-4.6
			c-9.5-10.2-21.7-15.9-28.5-28.5c-11.9,5.9-21.7,17.5-34.3,22.4c-6.6,2.5-13.6,3.4-20.5,1.7c-4.1-1-12.8-4.2-10.6,3.9
			C617.9,243.7,625.3,249.5,628.4,253.2z"/>
		<path fill="#D34E4E" d="M589.9,256.2l17.7,32.3c-0.4,0-2.2,79.1-2.4,84.4c-0.6,20.3-1.2,40.6-1.7,60.9c-0.2,5.6,0.6,12.3-0.5,17.8
			c-1.5,7.7-9.7,6.2-16.6,6.8c-15.2,1.4-31.2,4-46.4,3.2c-4.4-0.2,1.4-92,1.4-100.5c0-30.8-6.4-65,9.3-92.9
			c4.6-8.1,12.6-21.1,21.4-25.2c8.3-3.7,20.1-4.4,29-6.5l0.5,5.8L589.9,256.2z"/>
		<g>
			<g>
				<g>
					<path fill="#D34E4E" d="M178.7,173.3c-1-1.2-2-2.4-3.1-3.4c-13.5-13.1-34.7-15.4-51-4.5c-16.3,10.9-22.2,31.4-15.2,48.8
						c0.6,1.5,1.3,2.9,2,4.3c0.6,1.1,1.2,2.2,1.9,3.2l5.6,8.4c0.1,0,0.1-0.1,0.2-0.1c10.8-4.9,23.1-11.8,35.5-20.1
						c12.4-8.3,23.3-16.9,31.9-25l0-0.1l-5.6-8.4C180.3,175.3,179.5,174.3,178.7,173.3z"/>
					<g>
						<g opacity="0.1">
							<path fill="#3B455A" d="M178.7,173.3c-1-1.2-2-2.4-3.1-3.4c-6.8-6.6-15.7-10.5-24.8-11.3c0,0,35.3,29-17.2,64.1
								c6.8-3.7,13.9-8.1,21.1-12.9c12.4-8.3,23.3-16.9,31.9-25l0-0.1l-5.6-8.4C180.3,175.3,179.5,174.3,178.7,173.3z"/>
						</g>
					</g>
					<path fill="#D34E4E" d="M213,173.4c-12.6,1.3-22.8,4.7-29,7.3l2.7,4l0,0l0,0l0,0.1c-8.6,8.1-19.6,16.7-31.9,25
						c-12.5,8.4-24.7,15.2-35.5,20.1c-0.1,0-0.1,0.1-0.2,0.1l0,0l-2.6-3.9l0,0c-4.7,4.8-11.7,12.7-17.7,23.8c-1.1,2,0.4,4.4,2.7,4.2
						c13.5-0.8,38.1-11.6,63.8-28.8c25.4-17.1,44.7-35.6,50.8-47.8C216.9,175.5,215.2,173.2,213,173.4z"/>
					<path fill="#FFFFFF" d="M116.4,226.2l2.6,3.9c0.1,0,0.1-0.1,0.2-0.1c10.8-4.9,23.1-11.8,35.5-20.1c12.4-8.3,23.3-16.9,31.9-25
						l0-0.1l-2.6-3.9c-8.6,8.1-19.6,16.7-31.9,25C139.6,214.4,127.2,221.2,116.4,226.2z"/>
				</g>
				<polygon fill="#FFFFFF" points="175.5,188.5 157.1,185.4 156.7,193.3 172.8,190.7 				"/>
				<polygon fill="#FFFFFF" points="175.6,188.7 173.5,169.9 182,171.5 177.4,186.9 				"/>
			</g>
			<g>
				<g>
					<g opacity="0.1">
						<path fill="#000100" d="M213,173.4c-12.6,1.3-22.8,4.7-29,7.3l2.6,4l0,0c0,0,20.7,12-29.8,45.9c2.7-1.7,5.5-3.5,8.3-5.3
							c25.4-17.1,44.7-35.6,50.8-47.8C216.9,175.5,215.2,173.2,213,173.4z"/>
					</g>
				</g>
			</g>
			<path opacity="0.2" fill="#000100" d="M133.1,164.4c-1,0.4-2,0.9-3,1.4c-17.9,9.3-25.3,31-16.8,49.1
				C110.6,196,118,176.6,133.1,164.4z"/>
		</g>
		<g>
			<g>
				<g>
					
						<rect x="327.5" y="89.5" transform="matrix(0.9013 0.4332 -0.4332 0.9013 82.3957 -131.0693)" fill="#3B455A" width="2.6" height="51.6"/>
					<g>
						<polygon fill="#3B455A" points="347,78.2 305,78.4 311.6,83.1 318.8,88.1 327.9,93.3 337.8,98.4 347.9,102.9 357.9,106.9 
							366.3,109.4 373.2,111.2 						"/>
						<polygon fill="#CCD2D9" points="347,78.2 311.6,83.1 305,78.4 						"/>
						<polygon fill="#CCD2D9" points="318.8,88.1 347,78.2 327.9,93.3 						"/>
						<polygon fill="#CCD2D9" points="337.8,98.4 347,78.2 347.9,102.9 						"/>
						<polygon fill="#CCD2D9" points="357.9,106.9 347,78.2 366.3,109.4 						"/>
					</g>
				</g>
				<g>
					<path fill="#EFEFEF" d="M268.2,134.9l-9.5-2.8c-3.6-1.1-5.7-4.9-4.6-8.5l2.8-9.5c1.1-3.6,4.8-5.7,8.4-4.6l9.5,2.8
						c3.6,1.1,5.7,4.9,4.6,8.5l-2.8,9.5C275.5,133.9,271.8,136,268.2,134.9z"/>
					<g>
						<g opacity="0.6">
							<path fill="#FFFFFF" d="M272.3,113.4c-0.1,0-0.2-0.2-0.2-0.2l-6.4-1.8c-3.1-0.9-6.4,0.9-7.3,4l-1.9,6.5c0,0.1,0,0.1,0,0.2
								C258.5,115.4,265.5,111.6,272.3,113.4z"/>
						</g>
					</g>
				</g>
				<g>
					<path fill="#EFEFEF" d="M302.1,118.8l6.4-7.5c2.4-2.9,6.7-3.2,9.6-0.8l7.5,6.4c2.9,2.4,3.2,6.7,0.8,9.6l-6.4,7.5
						c-2.4,2.9-6.7,3.2-9.6,0.8l-7.5-6.4C300,126,299.6,121.7,302.1,118.8z"/>
					<g>
						<g opacity="0.6">
							<path fill="#FFFFFF" d="M320,131.3c0,0,0.1-0.1,0.1-0.1l4.4-5.1c2.1-2.5,1.8-6.2-0.7-8.3l-5.1-4.4c-0.1,0-0.1-0.1-0.2-0.1
								C323.7,117.9,324.4,125.8,320,131.3z"/>
						</g>
					</g>
				</g>
				<g>
					<path fill="#EFEFEF" d="M300.6,120.1l-8.6,5c-3.3,1.9-7.4,0.8-9.3-2.5l-5-8.6c-1.9-3.3-0.8-7.4,2.5-9.3l8.6-5
						c3.3-1.9,7.4-0.8,9.3,2.5l5,8.6C305,114,303.9,118.2,300.6,120.1z"/>
					<g>
						<g opacity="0.6">
							<path fill="#FFFFFF" d="M287.5,102.4c-0.1,0-0.1,0.1-0.2,0.1l-5.7,3.6c-2.7,1.7-3.5,5.4-1.8,8.1l3.6,5.7
								c0,0.1,0.1,0.1,0.1,0.2C280,114.1,281.7,106.3,287.5,102.4z"/>
						</g>
					</g>
				</g>
				<g>
					<path fill="#EACA42" d="M249.3,118.9c-4.7,6.7-7.5,14.9-7.5,23.8l0.1,53.7c0,22.8,18.5,41.3,41.3,41.3l15.8,0
						c22.8,0,41.3-18.5,41.2-41.4l-0.1-53.7c0-8.8-2.8-17-7.5-23.7C310.9,118.8,267,118.9,249.3,118.9z"/>
				</g>
				<g>
					<path fill="#EACA42" d="M245.1,88.1l-0.2,6.1l-2.7-5.5c-5.7,1.3-10.9,4-15.2,7.6l2.9,5.4l-5.1-3.4c-3.9,3.8-6.9,8.5-8.8,13.8
						l5.6,3.5l-6.5-0.4c-0.8,3-1.2,6.2-1.2,9.5c0,0.4,0,0.9,0,1.3l27.7,0l4.5,0c1.9-7.1,9-7.1,9-7.1l0-31
						C248.6,87.7,246.9,87.8,245.1,88.1z"/>
					<polygon fill="#EBB044" points="222.8,121.4 222.8,122.6 241.3,121.4 222.8,120.3 					"/>
					<polygon fill="#EBB044" points="226.4,108.6 225.8,109.6 242.4,118 227,107.6 					"/>
					<polygon fill="#EBB044" points="237,98.1 235.9,98.6 245.6,114.5 238,97.5 					"/>
					<polygon fill="#EBB044" points="250.1,94.4 248.9,94.4 250.5,113 251.3,94.4 					"/>
				</g>
				<g>
					<path fill="#EBB044" d="M291.3,118.8c-0.9,0-1.9,0-2.8,0l1.4,1.4L291.3,118.8z"/>
					
						<rect x="259.3" y="128.8" transform="matrix(0.7066 -0.7076 0.7076 0.7066 -17.7344 227.7457)" fill="#EBB044" width="12.9" height="12.9"/>
					<path fill="#EBB044" d="M277.8,132.3l9.1-9.1l-4.3-4.3c-3.3,0-6.5,0-9.6,0l-4.3,4.3L277.8,132.3z"/>
					
						<rect x="307.5" y="128.8" transform="matrix(0.7066 -0.7076 0.7076 0.7066 -3.5685 261.8097)" fill="#EBB044" width="12.9" height="12.9"/>
					
						<rect x="319.5" y="140.8" transform="matrix(0.7061 -0.7081 0.7081 0.7061 -8.453 274.1248)" fill="#EBB044" width="12.9" height="12.9"/>
					<path fill="#EBB044" d="M301.9,132.3l9.1-9.1l-4.3-4.3c-3.1,0-6.3,0-9.6,0l-4.3,4.3L301.9,132.3z"/>
					
						<rect x="247.3" y="140.9" transform="matrix(0.7066 -0.7076 0.7076 0.7066 -29.7984 222.7738)" fill="#EBB044" width="12.9" height="12.9"/>
					
						<rect x="247.4" y="189.1" transform="matrix(0.7061 -0.7081 0.7081 0.7061 -63.8567 237.1924)" fill="#EBB044" width="12.9" height="12.9"/>
					
						<rect x="259.4" y="201.1" transform="matrix(0.7061 -0.7081 0.7081 0.7061 -68.8377 249.2655)" fill="#EBB044" width="12.9" height="12.9"/>
					<polygon fill="#EBB044" points="241.8,150.3 241.8,168.5 250.8,159.4 					"/>
					<polygon fill="#EBB044" points="290,222.5 280.8,231.6 286.8,237.6 293.1,237.6 299.1,231.6 					"/>
					
						<rect x="295.5" y="213.1" transform="matrix(0.7066 -0.7076 0.7076 0.7066 -66.7668 278.1069)" fill="#EBB044" width="12.9" height="12.9"/>
					
						<rect x="271.5" y="213.1" transform="matrix(0.7066 -0.7076 0.7076 0.7066 -73.8504 261.0708)" fill="#EBB044" width="12.9" height="12.9"/>
					
						<rect x="307.6" y="201.1" transform="matrix(0.7066 -0.7076 0.7076 0.7066 -54.7035 283.0747)" fill="#EBB044" width="12.9" height="12.9"/>
					<polygon fill="#EBB044" points="328.9,159.3 338.1,168.4 340.2,166.3 340.2,152.3 338,150.2 					"/>
					<polygon fill="#EBB044" points="241.8,174.4 241.8,192.5 250.9,183.5 					"/>
					
						<rect x="307.5" y="152.9" transform="matrix(0.7066 -0.7076 0.7076 0.7066 -20.6129 268.8999)" fill="#EBB044" width="12.9" height="12.9"/>
					
						<rect x="295.5" y="140.8" transform="matrix(0.7061 -0.7081 0.7081 0.7061 -15.549 257.0797)" fill="#EBB044" width="12.9" height="12.9"/>
					
						<rect x="295.5" y="164.9" transform="matrix(0.7066 -0.7076 0.7076 0.7066 -32.6765 263.9298)" fill="#EBB044" width="12.9" height="12.9"/>
					
						<rect x="283.4" y="128.8" transform="matrix(0.7066 -0.7076 0.7076 0.7066 -10.652 244.7761)" fill="#EBB044" width="12.9" height="12.9"/>
					
						<rect x="283.5" y="177" transform="matrix(0.7066 -0.7076 0.7076 0.7066 -44.741 258.9562)" fill="#EBB044" width="12.9" height="12.9"/>
					
						<rect x="283.4" y="152.9" transform="matrix(0.7066 -0.7076 0.7076 0.7066 -27.6954 251.8695)" fill="#EBB044" width="12.9" height="12.9"/>
					
						<rect x="271.4" y="164.9" transform="matrix(0.7066 -0.7076 0.7076 0.7066 -39.7609 246.8924)" fill="#EBB044" width="12.9" height="12.9"/>
					
						<rect x="295.5" y="189" transform="matrix(0.7066 -0.7076 0.7076 0.7066 -49.7225 271.0145)" fill="#EBB044" width="12.9" height="12.9"/>
					
						<rect x="319.6" y="164.9" transform="matrix(0.7066 -0.7076 0.7076 0.7066 -25.5945 280.9582)" fill="#EBB044" width="12.9" height="12.9"/>
					
						<rect x="307.5" y="177" transform="matrix(0.7066 -0.7076 0.7076 0.7066 -37.6591 275.9841)" fill="#EBB044" width="12.9" height="12.9"/>
					
						<rect x="271.4" y="189" transform="matrix(0.7066 -0.7076 0.7076 0.7066 -56.8048 253.9861)" fill="#EBB044" width="12.9" height="12.9"/>
					
						<rect x="259.4" y="177" transform="matrix(0.7061 -0.7081 0.7081 0.7061 -51.7791 242.1678)" fill="#EBB044" width="12.9" height="12.9"/>
					
						<rect x="271.4" y="140.8" transform="matrix(0.7061 -0.7081 0.7081 0.7061 -22.644 240.0378)" fill="#EBB044" width="12.9" height="12.9"/>
					
						<rect x="259.4" y="152.9" transform="matrix(0.7066 -0.7076 0.7076 0.7066 -34.7786 234.8373)" fill="#EBB044" width="12.9" height="12.9"/>
					
						<rect x="247.3" y="165" transform="matrix(0.7066 -0.7076 0.7076 0.7066 -46.8428 229.8654)" fill="#EBB044" width="12.9" height="12.9"/>
					
						<rect x="283.5" y="201.1" transform="matrix(0.7061 -0.7081 0.7081 0.7061 -61.7411 266.3144)" fill="#EBB044" width="12.9" height="12.9"/>
					<path fill="#EBB044" d="M265.9,222.5l-7.1,7.1c3.6,2.7,7.7,4.8,12.1,6.1l4.1-4.1L265.9,222.5z"/>
					<path fill="#EBB044" d="M299,237.6L299,237.6c2,0,3.9-0.1,5.7-0.4l-2.7-2.7L299,237.6z"/>
					<path fill="#EBB044" d="M253.8,210.5l-6.5,6.5c2.2,3.8,4.9,7.2,8.2,10.1l7.4-7.4L253.8,210.5z"/>
					<path fill="#EBB044" d="M241.9,198.6c0.3,5.1,1.5,10,3.5,14.5l5.5-5.5L241.9,198.6z"/>
					<path fill="#EBB044" d="M275.6,236.9c1.7,0.3,3.5,0.5,5.3,0.6l-3-3L275.6,236.9z"/>
					<path fill="#EBB044" d="M304.9,231.6l4.6,4.6c4.5-1.2,8.8-3.1,12.5-5.7l-8-8L304.9,231.6z"/>
					<path fill="#EBB044" d="M317,219.6l8.5,8.4c3.3-2.8,6.2-6.1,8.5-9.7l-7.8-7.8L317,219.6z"/>
					<path fill="#EBB044" d="M338.1,198.4l-9.1,9.1l7,7c2.1-4.4,3.5-9.2,4-14.2L338.1,198.4z"/>
					<path fill="#EBB044" d="M338,144.3l2.1-2.1c-0.1-5.4-1.1-10.5-3.1-15.2l-8.2,8.2L338,144.3z"/>
					<path fill="#EBB044" d="M326,132.3l9.1-9.1l-4.3-4.3c-2.9,0-6.1,0-9.6,0l-4.3,4.3L326,132.3z"/>
					<polygon fill="#EBB044" points="329,183.4 338.1,192.5 340.2,190.4 340.2,176.4 338.1,174.3 					"/>
					
						<rect x="319.6" y="189" transform="matrix(0.7061 -0.7081 0.7081 0.7061 -42.5673 288.3334)" fill="#EBB044" width="12.9" height="12.9"/>
					<path fill="#EBB044" d="M315.3,118.8c-0.9,0-1.9,0-2.8,0l1.4,1.4L315.3,118.8z"/>
					<path fill="#EBB044" d="M262.9,123.2l-4.3-4.3c-3.5,0-6.7,0-9.2,0c-1.3,1.8-2.4,3.7-3.3,5.7l7.8,7.8L262.9,123.2z"/>
					<path fill="#EBB044" d="M244.2,128.7c-1.6,4.4-2.4,9.1-2.4,14l0,1.7l9-9.1L244.2,128.7z"/>
					<path fill="#EBB044" d="M267.2,118.9c-1,0-1.9,0-2.8,0l1.4,1.4L267.2,118.9z"/>
				</g>
			</g>
			<g>
				<g opacity="0.1">
					<path fill="#000100" d="M255.4,226.9c7.3,6.6,17.1,10.7,27.7,10.7l15.8,0c22.8,0,41.3-18.5,41.2-41.4l-0.1-53.4
						C339.6,150.9,332.4,226.8,255.4,226.9z"/>
				</g>
			</g>
		</g>
		<g>
			<g>
				<path fill="#3B455A" d="M575.4,314.7l135.4-10c9-0.7,16.9,6,17.5,15l6.8,92.2c0.7,9-6.1,16.8-15.1,17.4l-135.4,10
					c-9,0.7-16.9-6-17.5-15l-6.8-92.2C559.6,323.2,566.3,315.4,575.4,314.7z"/>
				<g>
					<path fill="#FFFFFF" d="M681.7,373.8l32.3-2.4c2.4-0.2,4.3-2.3,4.1-4.7l-2.4-32.1c-0.2-2.4-2.3-4.2-4.7-4l-32.3,2.4
						c-2.4,0.2-4.3,2.3-4.1,4.7l2.4,32.1C677.2,372.2,679.3,374,681.7,373.8z"/>
					<path fill="#FFFFFF" d="M685.6,422.3l32.3-2.4c2.4-0.2,4.3-2.3,4.1-4.7l-2.4-32.1c-0.2-2.4-2.3-4.2-4.7-4l-32.3,2.4
						c-2.4,0.2-4.3,2.3-4.1,4.7l2.4,32.1C681,420.6,683.2,422.5,685.6,422.3z"/>
					<path fill="#FFFFFF" d="M631.3,377.5l32.3-2.4c2.4-0.2,4.3-2.3,4.1-4.7l-2.4-32.1c-0.2-2.4-2.3-4.2-4.7-4l-32.3,2.4
						c-2.4,0.2-4.3,2.3-4.1,4.7l2.4,32.1C626.8,375.9,628.9,377.7,631.3,377.5z"/>
					<path fill="#FFFFFF" d="M635.2,426l32.3-2.4c2.4-0.2,4.3-2.3,4.1-4.7l-2.4-32.1c-0.2-2.4-2.3-4.2-4.7-4l-32.3,2.4
						c-2.4,0.2-4.3,2.3-4.1,4.7l2.4,32.1C630.7,424.4,632.8,426.2,635.2,426z"/>
					<path fill="#FFFFFF" d="M580.9,381.3l32.3-2.4c2.4-0.2,4.3-2.3,4.1-4.7l-2.4-32.1c-0.2-2.4-2.3-4.2-4.7-4l-32.3,2.4
						c-2.4,0.2-4.3,2.3-4.1,4.7l2.4,32.1C576.4,379.7,578.5,381.5,580.9,381.3z"/>
					<path fill="#FFFFFF" d="M584.8,429.7l32.3-2.4c2.4-0.2,4.3-2.3,4.1-4.7l-2.4-32.1c-0.2-2.4-2.3-4.2-4.7-4l-32.3,2.4
						c-2.4,0.2-4.3,2.3-4.1,4.7l2.4,32.1C580.3,428.1,582.4,429.9,584.8,429.7z"/>
				</g>
				<g>
					<path fill="#CCD2D9" d="M691.9,292.8l4.7-0.3c2.6-0.2,4.8,1.7,5,4.3l1.3,17.3c0.2,2.6-1.7,4.8-4.3,5l-4.7,0.3
						c-2.6,0.2-4.8-1.7-5-4.3l-1.3-17.3C687.4,295.2,689.3,293,691.9,292.8z"/>
					<path fill="#CCD2D9" d="M586.4,300.6l4.7-0.3c2.6-0.2,4.8,1.7,5,4.3l1.3,17.3c0.2,2.6-1.7,4.8-4.3,5l-4.7,0.3
						c-2.6,0.2-4.8-1.7-5-4.3l-1.3-17.3C581.9,303,583.8,300.8,586.4,300.6z"/>
				</g>
			</g>
		</g>
		<g>
			<path fill="#D34E4E" d="M557.2,252.5c-4.9,2.8-9.8,5.7-13.6,9.7c-4,4.2-6.6,9.5-9,14.8c-5.4,12.3-9.6,25.2-12.3,38.4
				c13.8,3.2,27.5,6.7,41.1,10.3c5.4-13.1,12.4-25.5,20.7-36.9c1.7-2.3,3.5-4.6,4.2-7.3c0.7-2.6,0.5-5.3,0.2-7.9
				c-0.6-5.5-1.5-11-2.6-16.4c-0.7-3.5-1.3-12.1-4-14.5C576.6,237.8,562.1,249.6,557.2,252.5z"/>
			<path fill="#EAC1A4" d="M524.3,323.7c2.6-11.9,4.3-25.5,19.9-26.6c8.3-0.6,17,6.4,16.6,14.7c-0.2,3.8-2,7.2-3.8,10.6
				c-4.6,8.6-9.3,17.2-13.9,25.9c-0.6,1.1-1.2,2.3-1.3,3.6c-0.1,1.5,0.6,2.9,1.3,4.3c5.6,10.7,12.9,20.6,21.5,29
				c3.5,3.4,5.6,5.1,10.3,6.1c2,0.4,11.7,2.2,5.9,6.2c-1.4,1-3.6,0.5-4.5-1c4.2,2.4,7.9,5.4,11.2,9c0.5,0.5,1,1.1,1,1.8
				c0.1,0.6-0.2,1.1-0.4,1.6c-0.8,2-1.6,4-2.4,6c-0.1,0.3-0.2,0.6-0.5,0.7c-0.3,0.2-0.7,0.1-1,0.1c-3.9-0.8-7.8-1.5-11.6-2.3
				c-7.3-1.4-9.8-11.1-14.9-16.4c-10.5-10.8-21-21.6-31.5-32.3c-2.6-2.7-5.3-5.4-6.9-8.8c-2.5-5.3-0.2-8.7,0.9-13.7
				C521.6,336,523,329.8,524.3,323.7z"/>
		</g>
		<g>
			<g>
				<path fill="#3B455A" d="M628.3,178c2.8,4.9,4.1,10.5,4.4,16.1c0.1,1.5,0.2,3.2,1.4,4.1c1.3,0.9,0.2,3,1.1,1.8
					c1-1.3,4.3-5.7,4.5-7.2c0.4-3.7,0.3-7.5,0-11.2c-0.3-3.2-1-6.6-3.1-9.1c-1.3-1.5-2.9-2.5-4.6-3.5c-2.4-1.5-4.9-2.9-7.6-3.4
					c-4.8-0.9-7.7,0.8-3.5,4.1C623.8,172,626.4,174.7,628.3,178z"/>
				<g>
					<path fill="#EAC1A4" d="M598.6,241.8c0,2.3-0.4,4.7,1.6,6.5c1,0.9,2.3,1.2,3.6,1.4c3.3,0.5,6.8,0.3,10-0.7
						c1.3-0.4,2.6-1,3.6-1.9c1.2-1.1,1.2-2.2,1.3-3.7c0.1-1.7,0.4-3.5,0.6-5.3c0.5-3.8,0.7-7.7,0.8-11.6c5.7-1,12.4-2.8,14.3-8.8
						c0.6-1.9,0.6-3.9,0.6-5.9c0.1-8.3,0.1-16.5,0.2-24.8c0-2.9,0-5.8-1-8.5c-1.7-4.7-6.1-7.4-10.4-9.2c-10.9-4.5-23.7-4.3-33.7,2.1
						c-2.7,1.7-5.2,3.9-6.8,6.8c-2.4,4.5-2.1,10.1-1.7,15.4c0.3,4.8,0.7,9.7,1,14.5c0.4,5.6,1.2,12,5.5,14.9
						c2.3,1.6,5.3,1.8,7.2,3.9c3.5,3.5,1.8,8.8,2.8,13.1C598.5,240.5,598.6,241.2,598.6,241.8z"/>
				</g>
				<path fill="#3B455A" d="M637.1,208.5c-0.1-1.5-0.8-6-3.1-3.2c-0.6,0.7-0.8,1.8-0.8,2.8c0,1,0,2-0.3,2.9
					c-0.7,2.1-3.1,3.1-5.2,3.1c-0.8,0-1.7-0.2-2.4-0.6c-0.7-0.4-1.3-1.1-1.8-1.7c-1.3-1.5-2.7-3.1-4-4.6c-2.3-2.7-6.9-1.5-10-1.1
					c-3.6,0.5-7.2,1.6-10.1,3.9c-0.3,0.2-0.6,0.5-0.9,0.7c-0.7,0.6-1.4,1.2-2.2,1.6c-2.8,1.3-6.2-0.1-8.1-2.6
					c-0.9-1.2-1.7-2.6-3.1-2.8c-1.1-0.2-2.1,0.6-2.7,1.6c-0.6,1-0.7,2.2-0.8,3.4c-0.3,4.3,0.3,8.7,2.2,12.5c4,8.2,11.8,9.2,19.6,9
					c3.1-0.1,6.2-0.1,9.2-0.2c5.6-0.1,11.6-0.4,16.3-3.6c4.2-2.9,6.7-7.8,7.7-12.9C637.1,213.9,637.3,211.2,637.1,208.5z
					 M616.5,220.1c-3,2-6.2,2.1-9.5,1.1c-1.4-0.4-0.8-2.8,0.6-2.4c2.7,0.8,5.3,0.8,7.8-0.9C616.6,217.2,617.7,219.3,616.5,220.1z"/>
				<path fill="#3B455A" d="M638.3,163.7c0.5-2,0.9-4,1.2-6.1c-1.9,0.7-4,0.8-6,0.5c0-1.2,0-2.4,0-3.6c0-1-13.4-1.7-14.5-1.8
					c-10.2-0.8-19.5-1.6-28.7,3.8c-7.9,4.7-12.9,11.6-14.1,20.7c-1.2,8.7,1.7,20,6.7,27.2c0-2.3-1.4-7.7-0.8-9.9
					c0.3-2.2,1.1-4.3,2.1-6.3c2.1-3.9,5.3-7.2,9.1-9.5c6-3.7,12.9-5.7,19.8-6.7c6.3-0.9,14.1-1.7,20.3,0c3,0.8,3.5,1.6,5.3-1.5
					c0.3-0.5,2.9-6.8,2.6-6.8C640.4,163.7,639.3,163.7,638.3,163.7z"/>
			</g>
		</g>
		<g>
			<g>
				<polygon fill="#EAC1A4" points="456.4,261.3 466.9,260.4 467.4,242.8 457.6,237.6 449.4,242.4 454,249.4 452,249.6 449.9,247.7 
					448.1,249.9 				"/>
			</g>
			<g>
				<g>
					<path fill="#F7F7F7" d="M442.7,365.7c-15.7-22.5-25.3-49.3-27.2-76.6c-0.2-3.4,0.6-8.1,4.1-8.3c1.4-0.1,2.6,0.7,3.7,1.5
						c9.1,6.6,13.3,18,20.5,26.7c1.4,1.7,3.9,3.4,5.7,2.1c0.9-0.7,1.1-1.9,1.3-2.9c1-7.6-0.4-15.8,0.1-23.6
						c0.4-5.8-1.1-23.1,3.4-25.9c0.9-0.6,14.1-1.6,14.1-1.8c2.6,14,5.1,28,7.7,42c1.9,10.5,3.8,20.9,5.8,31.4
						c2.9,15.7,1.3,40.5-8.3,53.8c-1.7,2.4-4.1,4.7-7,4.9c-3.5,0.3-6.4-2.3-8.9-4.8C452.1,378.2,447.2,372.1,442.7,365.7z"/>
				</g>
			</g>
		</g>
		<g>
			<g id="XMLID_147_">
				<polygon id="XMLID_149_" fill="#3B455A" points="390.6,706.7 389,715.3 372.3,721.1 366.2,711.1 375.4,703.9 392.1,698.1 				
					"/>
				<polygon id="XMLID_148_" fill="#3B455A" points="426.5,492.5 391.9,704.1 376.2,704.7 366.9,557.6 362.5,484.5 				"/>
			</g>
			<g id="XMLID_145_">
				<polygon id="XMLID_146_" fill="#3B455A" points="474,490.2 451.7,697.7 437.3,699 422.1,540.1 410,493.2 				"/>
				<polygon fill="#3B455A" points="452.8,695.6 437.2,697.1 437.9,706 454.2,713.4 461.3,703.8 				"/>
			</g>
			<polygon fill="#484F5B" points="366.2,496.3 359.2,471.8 366.2,444.1 474,448.2 474,490.2 			"/>
		</g>
		<g>
			<g>
				<path fill="#EAC1A4" d="M418.7,207.3c-10.9,7.3-26.3,3.1-36.2,12c-6.5,5.7-8.9,16-7.3,25.2c0.7,4.3,2.3,8.5,5,11.6
					c1.8,2,4,3.5,6.3,4.6c3.1,1.5,6.4,2.3,9.8,2.5c-0.2,3.3-0.7,6.6-1.5,9.8c6.3-0.8,12.5-1.5,18.8-2.3c-0.4-3.9-0.8-7.9-1.2-11.8
					c1.5-1,3-2.1,4.3-3.4c8-7.9,11.5-21.1,8.6-32.8C423.9,217.2,421.3,212.2,418.7,207.3z"/>
			</g>
			<path fill="#3B455A" d="M390.1,217c0.4-0.2,0.9-0.3,1.4-0.5c6.6-2.3,13.6-3,20.4-2.1c2.5,0.3,5.1,0.9,7.3,2.2
				c3.3,2,5.5,5.7,6.6,9.5c1.1,3.9,1.3,8,1.3,12c1.5-0.4,2.7-1.8,3.6-3.1c2.8-3.9,5.7-8.8,6.7-13.8c0.9-5-0.8-10.9,1.2-15.7
				c0.9-2.2,2.7-3.8,4.1-5.6c3-4,4.1-9.7,2.6-14.7c-0.9-3.2-2.9-6.1-5.7-7.5c-4.6-2.4-10.2-0.3-15.2-1.5c-2.5-0.6-4.9-2-7.4-2.5
				c-5.4-1-10.7,2.4-14.8,6.3c-4.1,3.9-7.8,8.5-12.9,10.9c-4,1.9-8.6,2.1-12.7,3.7c-6.9,2.6-12.5,8.9-14.9,16.4
				c-2.7,8.4-2.1,18.9,3.7,25.4c2.9,3.3,5.2,7,7.6,10.7c0.8,1.3,5.6,6,5.3,1c-0.3-3.9-1.7-7.5-2-11.4
				C375.8,227.2,382.4,220.1,390.1,217z"/>
		</g>
		<path fill="#F7F7F7" d="M436.3,273.3l-52.1-4.7c0,0-17.2,24.1-36.1,93.4c-18.9,69.3-4.9,130.6-4.9,130.6s58.8-11.4,141.7-1.1
			l-24.2-171.9L436.3,273.3z"/>
		<g>
			<path fill="#3B455A" d="M452.7,436.4h-0.6v-11c0-6.7-5.4-12.1-12.1-12.1h-62c-6.7,0-12.1,5.4-12.1,12.1v11h-0.6
				c-2,0-3.7,1.6-3.7,3.7v6.9h18.7v-6.9c0-2-1.6-3.7-3.7-3.7h-1.6v-8.9c0-2.9,2.3-5.2,5.2-5.2h57.6c2.9,0,5.2,2.3,5.2,5.2v8.9h-1.6
				c-2,0-3.7,1.6-3.7,3.7v6.9h18.7v-6.9C456.4,438,454.8,436.4,452.7,436.4z"/>
			<g>
				<path fill="#EBB044" d="M515.7,625.3H302.3c-6.5,0-11.7-5.2-11.7-11.7V456c0-6.5,5.2-11.7,11.7-11.7h213.4
					c6.5,0,11.7,5.2,11.7,11.7v157.5C527.4,620,522.2,625.3,515.7,625.3z"/>
				<path fill="#3B455A" d="M339.1,627.6h-9.5c-0.7,0-1.2-0.5-1.2-1.2V444.1c0-0.7,0.5-1.2,1.2-1.2h9.5c0.7,0,1.2,0.5,1.2,1.2v182.4
					C340.2,627.1,339.7,627.6,339.1,627.6z"/>
				<g>
					<path fill="#3B455A" d="M486.7,627.6h-8.3c-1,0-1.8-0.8-1.8-1.8V444.7c0-1,0.8-1.8,1.8-1.8h8.3c1,0,1.8,0.8,1.8,1.8v181.1
						C488.5,626.8,487.7,627.6,486.7,627.6z"/>
					<g>
						<circle fill="#474EBB" cx="459.6" cy="599.2" r="12.2"/>
						<polygon fill="#D34E4E" points="468.5,549 445.4,540.3 445.1,573.1 468,563.1 451,556.7 						"/>
						<rect x="423" y="583.1" fill="#7FC5A3" width="17.8" height="14.9"/>
					</g>
				</g>
			</g>
		</g>
		<g>
			<g>
				<path fill="#F7F7F7" d="M406.8,315.5c-2.2,5.3-5.3,10.3-8.1,15.3c-9.7,17.9-15.3,37.7-20.9,57.3c-1.3,4.5-2.3,8.8-1,13.5
					c1,3.8,2.9,5.1,1.6,9.1c-3,9.4-9.4,10.1-15.7,4.5c-9.1-7.9-17.4-16.7-24.7-26.3c-1.6-2.1-3.3-4.4-3.9-7
					c-0.7-2.9-0.1-5.9,0.6-8.8c7.6-32.4,21.7-63.2,41.2-90.1c2.6-3.5,5.5-7.2,9.8-8.3c4.2-1,8.7,0.9,12.1,3.5
					c8.6,6.5,13.2,17.9,11.5,28.5C408.9,309.9,408,312.7,406.8,315.5z"/>
			</g>
			<polygon fill="#EAC1A4" points="375.5,409.5 369.6,417.4 382.4,429.6 392.3,426.4 393.9,417.5 385.8,415.9 386.9,414.4 
				389.6,414.2 389.1,411.5 			"/>
		</g>
		<g>
			<g>
				<g>
					<path fill="#3B455A" d="M744.3,108.9c-16.2-8.7-33.7-12.4-39.2-13.4c-3.9-0.9-7.1-2.6-8.4-3.4c-4.7-3.1-19.9-12.5-37.6-17.3
						c-2.4-0.7-4.9-1.3-7.4-1.7c-1.2,2.9-2,5.1-2,5.1s5,2.2,2.9,7.5c0,0-1.2,3-1.2,3c-1.6,4.1-1.5,8.8,0.3,12.8
						c2,4.6,5.8,7.2,10.2,9.2c3.7,1.7,7.7,3.1,11.8,3.2c3.3,0.1,6.7-0.5,9.7-1.9c3.1-1.4,5.9-3.4,8.1-6c0.8-0.9,1.5-1.9,2.1-2.9
						c0.3-0.5,0.6-1,0.8-1.5c0.3-0.6,0.6-1.2,1.2-1.6c1.1-0.8,2.6-0.9,3.7-0.1c0.6,0.4,1.1,1.1,1.3,1.8c0.2,0.7,0.1,1.4-0.1,2
						c0,0,0,0,0,0c-0.2,0.7-0.4,1.4-0.5,2c-0.3,1.2-0.4,2.4-0.5,3.6c-0.2,3.4,0.4,6.8,1.7,9.9c1.3,3.1,3.3,5.8,5.8,8.1
						c4.9,4.3,12.6,7.9,19.2,7.5c6.3-0.4,12-4.5,14.3-10.4l1.2-3c2.1-5.3,7.3-3.5,7.3-3.5s0.9-2.2,2-5.1
						C748.7,111.4,746.5,110.1,744.3,108.9z"/>
					<path fill="#EBB044" d="M690.8,94c-3.7-2.3-15.8-9.6-29.8-13.6c-0.5-0.2-1.1-0.3-1.6-0.4l-3.3,8.2c0,0-0.1,0.3-0.2,0.6
						c-0.3,0.6-0.6,1.6-0.6,1.6c-1.2,2.9-1,6.4,0.5,9.3c1.7,3.4,4.7,5.4,8.2,7c2.9,1.3,6.1,2.5,9.3,2.6c2.6,0.2,5.2-0.2,7.5-1.1
						c2.4-0.9,4.5-2.3,6.2-4.2c0.6-0.6,1.1-1.3,1.6-2.1c0.2-0.4,0.4-0.7,0.6-1.1c0,0,0,0,0,0l2.5-6.4
						C691.4,94.3,691.1,94.1,690.8,94z"/>
					<path fill="#EBB044" d="M707.8,100.7c4.3,0.9,18.1,4,30.9,10.7c0.5,0.3,1,0.5,1.5,0.8l-3.3,8.2c0,0-0.1,0.3-0.2,0.6
						c-0.3,0.6-0.6,1.6-0.6,1.6c-1.2,2.9-3.7,5.3-6.8,6.4c-3.6,1.3-7.1,0.7-10.7-0.6c-3-1.1-6.1-2.4-8.5-4.5c-2-1.7-3.6-3.7-4.7-6
						c-1.1-2.3-1.7-4.8-1.6-7.3c0-0.9,0.1-1.7,0.3-2.6c0.1-0.4,0.2-0.8,0.3-1.2c0,0,0,0,0-0.1l2.5-6.4
						C707.2,100.6,707.5,100.7,707.8,100.7z"/>
					<g>
						<g opacity="0.1">
							<path fill="#000100" d="M656.3,89.8c0.1-0.4,0.2-0.6,0.2-0.6l3.3-8.2c0.5,0.1,1.1,0.3,1.6,0.4c13.9,4,26.1,11.2,29.8,13.6
								c0.1,0,0.2,0.1,0.3,0.1l0.2-0.6c-0.4-0.2-0.7-0.4-0.9-0.5c-3.7-2.3-15.8-9.6-29.8-13.6c-0.5-0.2-1.1-0.3-1.6-0.4l-3.3,8.2
								c0,0-0.1,0.3-0.2,0.6c-0.3,0.6-0.6,1.6-0.6,1.6c-1.1,2.8-1,6.2,0.4,9.1c-1-2.7-1-5.6,0-8.1C655.7,91.4,656.1,90.5,656.3,89.8
								z"/>
						</g>
					</g>
					<g>
						<g opacity="0.1">
							<path fill="#FFD559" d="M704.3,109c0.1-0.4,0.2-0.8,0.3-1.2c0,0,0,0,0-0.1l2.5-6.4c0.4,0.1,0.7,0.2,1,0.3
								c4.3,0.9,18.1,4,30.9,10.7c0.3,0.2,0.6,0.3,0.9,0.5l0.2-0.6c-0.5-0.3-1-0.5-1.5-0.8c-12.8-6.7-26.6-9.8-30.9-10.7
								c-0.3-0.1-0.6-0.2-1-0.3l-2.5,6.4c0,0,0,0,0,0.1c-0.1,0.4-0.2,0.8-0.3,1.2c-0.2,0.9-0.3,1.7-0.3,2.6c-0.1,2.4,0.5,4.8,1.5,7
								c-0.8-2-1.2-4.1-1.1-6.2C704,110.7,704.1,109.8,704.3,109z"/>
						</g>
					</g>
					<g>
						<g opacity="0.1">
							<path fill="#000100" d="M655.7,99.5c0,0.1,0.1,0.2,0.1,0.3c1.7,3.4,4.7,5.4,8.2,7c2.9,1.3,6.1,2.5,9.3,2.6
								c2.6,0.2,5.2-0.2,7.5-1.1c2.4-0.9,4.5-2.2,6.3-4.3c0.6-0.6,1-1.2,1.4-1.9c0.2-0.4,0.4-0.7,0.6-1.1c0,0,0,0,0,0l2.3-5.7
								C691.5,95.1,680.2,109.2,655.7,99.5z"/>
						</g>
					</g>
					<g>
						<g opacity="0.1">
							<path fill="#000100" d="M706.1,119.6c1,1.6,2.3,3.1,3.8,4.3c2.4,2.1,5.5,3.4,8.5,4.5c3.6,1.3,7.1,1.9,10.7,0.6
								c3.1-1.1,5.6-3.5,6.8-6.4c0,0,0.4-0.9,0.6-1.6c0.1-0.4,0.2-0.6,0.2-0.6l0.6-1.5C732.1,122.3,721.8,125.9,706.1,119.6z"/>
						</g>
					</g>
					<path fill="#FFFFFF" d="M667.7,83.9c-2-0.7-4-1.4-6.1-2c0,0,0,0,0,0c-0.7-0.2-1.5,0.2-1.8,1l-2.3,5.7c0,0-0.1,0.2-0.2,0.5
						c-0.1,0.3-0.3,0.7-0.4,1C658.9,85.7,663.4,83.2,667.7,83.9z"/>
					<path fill="#FFFFFF" d="M714.6,104c-1.2-0.5-4.1-1.3-5.7-1.6c0,0,0,0,0,0c-0.7-0.2-1.4,0.2-1.7,0.9l-2,5.1c0,0-0.1,0.2-0.2,0.5
						c-0.1,0.3-0.2,0.6-0.3,0.9C706.5,105.8,710.6,103.3,714.6,104z"/>
				</g>
			</g>
		</g>
		<path fill="#CCD2D9" d="M146.4,470.2c0.7,7.8,1.5,15.6,0.4,23.4c-1.2,8.7-4.7,16.9-7.3,25.3c-4.6,15.1-6.3,31-4.8,46.7
			c1,10.9,3.7,22.1,10.3,30.8c4.2,5.6,10.1,10.2,12.6,16.7c-15.2,0.1-30.5-1.1-45.5-3.4c-8.2-68.5,5.6-137.4,8-206.3
			c1.2-34.4,0.1-70.9,17.9-100.3c2.3-3.7,9.2-13.2,12.8-6.8c2.5,4.4-2.6,17.8-3.3,22.6c-2.6,16.7-4.1,33.6-4.8,50.4
			C141.4,403,143.3,436.7,146.4,470.2z"/>
		<path fill="#CCD2D9" d="M197.7,356.5c3.4,16.2,8.5,32.1,11,48.5c4.3,27.8,0.9,56.3,3.4,84.4c2.5,28.7,11.1,57.4,5.9,85.7
			c-2.1,11.4-6.4,22.6-5.3,34.1c7.6,1.6,15.1,3.2,22.7,4.8c2.1,0.4,4.3,0.9,6.3,0c1.7-0.7,2.8-2.3,3.7-3.8
			c3.4-5.9,4.4-12.9,5.1-19.7c3.4-31.5,3.2-63.3,3-95c-0.2-29.3-0.5-58.8-5.9-87.5c-4.6-24.7-13-48.4-21.3-72.1
			c-6.5-18.3-13.6-37.4-28.5-49.9c-3.3-2.7-13.9-11.8-15.7-5c-1.3,4.7,5.9,19.1,7,24.5C192.6,322.4,194.2,339.6,197.7,356.5z"/>
		<g>
			<polygon fill="#EAC1A4" points="99.3,248.8 104.6,233.1 111.3,235.1 110.1,246.7 113.7,246.1 107.6,259 100.3,257.9 			"/>
			<path fill="#CCD2D9" d="M124.3,352.7c2.2,0.1,4.5,0,6.7-0.2c4.2-0.5,8.6-1.5,11.8-4.3c4.1-3.6,5.6-9.2,6.7-14.6
				c2.2-10.9,6.6-28.2,3.9-39.2c-2.8-11.3-15,0.5-20.3,6.1c-1.8,1.9-3.5,3.9-5.8,5.2c-2.3,1.3-5.3,1.6-7.4,0.1
				c-2.2-1.6-2.8-4.7-3.1-7.5c-1.5-13-2.5-24.7-2.5-37.7L89,257.8c-0.8,14.5-1.5,29-2.3,43.5c-0.7,13.8-6,29.2,5.3,38.9
				C101,347.8,112.6,352.4,124.3,352.7z"/>
		</g>
	</g>
</g>
</svg>
